<svg id="组_10" data-name="组 10" xmlns="http://www.w3.org/2000/svg" width="534" height="60" viewBox="0 0 534 60">
  <metadata><?xpacket begin="﻿" id="W5M0MpCehiHzreSzNTczkc9d"?>
<x:xmpmeta xmlns:x="adobe:ns:meta/" x:xmptk="Adobe XMP Core 5.6-c138 79.159824, 2016/09/14-01:09:01        ">
   <rdf:RDF xmlns:rdf="http://www.w3.org/1999/02/22-rdf-syntax-ns#">
      <rdf:Description rdf:about=""/>
   </rdf:RDF>
</x:xmpmeta>
                                                                                                    
                                                                                                    
                                                                                                    
                                                                                                    
                                                                                                    
                                                                                                    
                                                                                                    
                                                                                                    
                                                                                                    
                                                                                                    
                                                                                                    
                                                                                                    
                                                                                                    
                                                                                                    
                                                                                                    
                                                                                                    
                                                                                                    
                                                                                                    
                                                                                                    
                                                                                                    
                           
<?xpacket end="w"?></metadata>
<defs>
    <style>
      .cls-1 {
        fill: #32c4f1;
      }

      .cls-1, .cls-2 {
        fill-rule: evenodd;
      }

      .cls-2 {
        fill: #151e27;
        stroke: #32c4f1;
        stroke-width: 2px;
      }
    </style>
  </defs>
  <path id="形状_8" data-name="形状 8" class="cls-1" d="M2059,358h-8l12,23h8Zm104,20h-5l3,3h3Zm8,0h-4l3,3h3Zm-93-14h-8l9,17h8Zm19,8h-8l6,9h60l-2-3h-53Z" transform="translate(-1639 -356)"/>
  <path id="形状_8_拷贝" data-name="形状 8 拷贝" class="cls-1" d="M1753,358h8l-12,23h-8Zm-104,20h5l-3,3h-3Zm-8,0h4l-3,3h-3Zm93-14h8l-9,17h-8Zm-19,8h8l-6,9h-60l2-3h53Z" transform="translate(-1639 -356)"/>
  <path id="形状_1" data-name="形状 1" class="cls-2" d="M1772,357l-16,29,15,29h269l17-28-16-30H1772Z" transform="translate(-1639 -356)"/>
</svg>
