<svg xmlns="http://www.w3.org/2000/svg" xmlns:xlink="http://www.w3.org/1999/xlink" preserveAspectRatio="xMidYMid" width="26" height="26" viewBox="0 0 26 26">
  <defs>
    <style>
      .cls-1 {
        fill: #fff;
        fill-rule: evenodd;
      }
    </style>
  </defs>
  <path d="M26.000,16.570 C26.000,16.664 25.989,16.756 25.986,16.850 L25.719,16.850 L25.425,16.850 L22.167,16.850 C22.134,15.242 21.700,13.734 20.956,12.422 C21.541,11.889 22.041,11.203 22.410,10.374 C22.142,10.164 21.862,9.970 21.568,9.796 C21.240,10.453 20.822,11.022 20.338,11.476 C19.801,10.749 19.164,10.104 18.444,9.559 C18.632,8.841 18.735,8.075 18.735,7.276 C18.735,4.360 17.380,1.851 15.428,0.691 C16.077,0.252 16.810,-0.001 17.588,-0.001 C20.221,-0.001 22.355,2.828 22.355,6.318 C22.355,7.388 22.153,8.397 21.799,9.280 C24.309,10.738 26.000,13.454 26.000,16.570 ZM17.211,10.429 C19.721,11.886 21.412,14.603 21.412,17.718 C21.412,17.813 21.401,17.905 21.397,17.999 L21.131,17.999 L20.837,17.999 L5.163,17.999 L4.869,17.999 L4.602,17.999 C4.599,17.905 4.588,17.813 4.588,17.718 C4.588,14.982 5.847,12.608 7.865,11.069 C7.899,11.045 7.921,11.029 7.938,11.069 C8.899,13.324 10.905,14.910 13.000,14.910 C14.959,14.910 16.847,13.715 17.822,11.522 C17.554,11.313 17.273,11.119 16.979,10.945 C16.126,12.657 14.663,13.787 13.000,13.787 C10.367,13.787 8.233,10.957 8.233,7.467 C8.233,3.977 10.367,1.148 13.000,1.148 C15.632,1.148 17.767,3.977 17.767,7.467 C17.767,8.538 17.565,9.546 17.211,10.429 ZM7.355,7.276 C7.355,8.075 7.460,8.841 7.650,9.559 C6.921,10.104 6.276,10.749 5.732,11.476 C5.242,11.022 4.819,10.453 4.487,9.796 C4.190,9.970 3.905,10.164 3.634,10.374 C4.008,11.203 4.514,11.889 5.106,12.422 C4.354,13.734 3.914,15.242 3.881,16.850 L0.582,16.850 L0.284,16.850 L0.014,16.850 C0.011,16.756 -0.000,16.664 -0.000,16.570 C-0.000,13.454 1.712,10.738 4.253,9.280 C3.894,8.397 3.690,7.388 3.690,6.318 C3.690,2.828 5.851,-0.001 8.516,-0.001 C9.305,-0.001 10.046,0.252 10.704,0.691 C8.727,1.851 7.355,4.360 7.355,7.276 Z" transform="translate(0 4)" class="cls-1"/>
</svg>
