<?xml version="1.0" encoding="utf-8"?>
<!-- Generator: Adobe Illustrator 19.0.0, SVG Export Plug-In . SVG Version: 6.00 Build 0)  -->
<svg version="1.1" id="图层_1" xmlns="http://www.w3.org/2000/svg" xmlns:xlink="http://www.w3.org/1999/xlink" x="0px" y="0px"
	 viewBox="0 0 24 24" style="enable-background:new 0 0 24 24;" xml:space="preserve">
<style type="text/css">
	.st0{fill:#FFFFFF;}
</style>
<path id="XMLID_1_" class="st0" d="M8.5,1c1-0.7,2.3-1,3.6-1c0.7,0,1.4,0.1,2,0.5c0.2,0.1,0.4,0.3,0.6,0.5c0.6,0.1,1.2,0.3,1.6,0.7
	c0.6,0.6,0.9,1.5,1,2.3c0.1,1.4-0.1,2.9-0.6,4.3c0.3,0.3,0.5,0.7,0.5,1.1c0,0.5-0.1,1-0.4,1.4c-0.1,0.2-0.4,0.4-0.6,0.4
	c-0.1,0.7-0.3,1.4-0.7,2.1c-0.2,0.3-0.4,0.6-0.6,0.8c0,0.8,0,1.7,0.1,2.5c0.2,0.6,0.7,1,1.3,1.3c1.6,0.9,3.4,1.3,4.9,2.3
	c0.8,0.5,1.4,1.2,1.8,2c0.2,0.5,0.3,1.1,0.4,1.7c-7.5,0-14.9,0-22.4,0c0.1-0.9,0.3-1.8,0.8-2.5c0.4-0.6,1-1,1.6-1.4
	c1.3-0.8,2.9-1.2,4.3-2c0.6-0.3,1.3-0.8,1.6-1.5c0.1-0.8,0.1-1.7,0.1-2.5c-0.3-0.2-0.5-0.6-0.7-0.9c-0.3-0.6-0.6-1.3-0.6-2
	c-0.4-0.1-0.6-0.4-0.8-0.7c-0.2-0.4-0.2-0.8-0.3-1.1c0-0.4,0.1-0.8,0.5-1C6.9,7.2,6.7,5.9,6.8,4.7c0-0.8,0.2-1.5,0.5-2.2
	C7.6,1.9,8,1.4,8.5,1L8.5,1z"/>
</svg>
