<svg xmlns="http://www.w3.org/2000/svg" xmlns:xlink="http://www.w3.org/1999/xlink" preserveAspectRatio="xMidYMid" width="16" height="14" viewBox="0 0 16 14">
  <defs>
    <style>
      .cls-1 {
        filter: url(#color-overlay-1);
      }

      .cls-2, .cls-3 {
        fill: #fff;
      }

      .cls-3 {
        fill-rule: evenodd;
      }
    </style>

    <filter id="color-overlay-1" filterUnits="userSpaceOnUse">
      <feFlood flood-color="#fff"/>
      <feComposite operator="in" in2="SourceGraphic"/>
      <feBlend in2="SourceGraphic" result="solidFill"/>
    </filter>
  </defs>
  <g class="cls-1">
    <circle cx="8.094" cy="7.594" r="2.687" class="cls-2"/>
    <path d="M10.580,4.054 C9.425,4.054 8.490,3.147 8.490,2.027 C8.490,0.908 9.425,-0.000 10.580,-0.000 C11.734,-0.000 12.669,0.908 12.669,2.027 C12.669,3.147 11.734,4.054 10.580,4.054 ZM10.580,0.633 C9.786,0.633 9.143,1.257 9.143,2.027 C9.143,2.797 9.786,3.421 10.580,3.421 C11.373,3.421 12.016,2.797 12.016,2.027 C12.016,1.257 11.373,0.633 10.580,0.633 Z" class="cls-3"/>
    <path d="M14.857,9.059 C14.226,9.059 13.714,8.562 13.714,7.950 C13.714,7.338 14.226,6.842 14.857,6.842 C15.488,6.842 16.000,7.338 16.000,7.950 C16.000,8.562 15.488,9.059 14.857,9.059 ZM14.857,7.188 C14.423,7.188 14.071,7.529 14.071,7.950 C14.071,8.371 14.423,8.712 14.857,8.712 C15.291,8.712 15.643,8.371 15.643,7.950 C15.643,7.529 15.291,7.188 14.857,7.188 Z" class="cls-3"/>
    <path d="M9.698,14.000 C9.067,14.000 8.555,13.504 8.555,12.891 C8.555,12.279 9.067,11.783 9.698,11.783 C10.329,11.783 10.841,12.279 10.841,12.891 C10.841,13.504 10.329,14.000 9.698,14.000 ZM9.698,12.129 C9.264,12.129 8.912,12.470 8.912,12.891 C8.912,13.312 9.264,13.654 9.698,13.654 C10.132,13.654 10.484,13.312 10.484,12.891 C10.484,12.470 10.132,12.129 9.698,12.129 Z" class="cls-3"/>
    <path d="M3.820,5.321 C3.189,5.321 2.678,4.825 2.678,4.213 C2.678,3.600 3.189,3.104 3.820,3.104 C4.452,3.104 4.963,3.600 4.963,4.213 C4.963,4.825 4.452,5.321 3.820,5.321 ZM3.820,3.451 C3.386,3.451 3.035,3.792 3.035,4.213 C3.035,4.634 3.386,4.975 3.820,4.975 C4.254,4.975 4.606,4.634 4.606,4.213 C4.606,3.792 4.254,3.451 3.820,3.451 Z" class="cls-3"/>
    <path d="M2.090,13.810 C0.936,13.810 -0.000,12.902 -0.000,11.783 C-0.000,10.663 0.936,9.756 2.090,9.756 C3.244,9.756 4.180,10.663 4.180,11.783 C4.180,12.902 3.244,13.810 2.090,13.810 ZM2.090,10.389 C1.296,10.389 0.653,11.013 0.653,11.783 C0.653,12.553 1.296,13.176 2.090,13.176 C2.883,13.176 3.527,12.553 3.527,11.783 C3.527,11.013 2.883,10.389 2.090,10.389 Z" class="cls-3"/>
  </g>
</svg>
