<?xml version="1.0" encoding="utf-8"?>
<!-- Generator: Adobe Illustrator 21.0.0, SVG Export Plug-In . SVG Version: 6.00 Build 0)  -->
<svg version="1.1" id="图层_1" xmlns="http://www.w3.org/2000/svg" xmlns:xlink="http://www.w3.org/1999/xlink" x="0px" y="0px"
	 viewBox="0 0 24 24" style="enable-background:new 0 0 24 24;" xml:space="preserve">
<style type="text/css">
	.st0{fill:#FFFFFF;}
</style>
<path class="st0" d="M18.4,23.8l0-12.8h5.2v12.8H18.4z M22.2,13.5h-2.4v1.4h2.4V13.5z M22.2,16.2h-2.4v1.4h2.4V16.2z M22.2,18.7
	h-2.4V20h2.4V18.7z M0.4,23.8V11.1h5.2l0,12.8H0.4z M4.2,13.5H1.8v1.4h2.4V13.5z M4.2,16.2H1.8v1.4h2.4V16.2z M4.2,18.7H1.8V20h2.4
	V18.7z"/>
<path class="st0" d="M23.6,22.5v1.4H0.4v-1.4H7V5.2H4.2L12,0l7.8,5.2H17v17.3L23.6,22.5L23.6,22.5z M14.6,15.2H9.4v6.6l5.2,0
	L14.6,15.2L14.6,15.2z M12,6.3c-1.5,0-2.7,1.2-2.7,2.7s1.2,2.7,2.7,2.7s2.7-1.2,2.7-2.7S13.5,6.3,12,6.3z"/>
</svg>
