<?xml version="1.0" standalone="no"?><!DOCTYPE svg PUBLIC "-//W3C//DTD SVG 1.1//EN" "http://www.w3.org/Graphics/SVG/1.1/DTD/svg11.dtd"><svg t="1573291691008" class="icon" viewBox="0 0 1024 1024" version="1.1" xmlns="http://www.w3.org/2000/svg" p-id="3058" xmlns:xlink="http://www.w3.org/1999/xlink" width="34" height="34"><defs><style type="text/css"></style></defs><path d="M480 448c-19.2 0-32-12.8-32-32V160c0-19.2 12.8-32 32-32s32 12.8 32 32v256c0 19.2-12.8 32-32 32z" fill="#454545" p-id="3059"></path><path d="M665.6 214.4c-9.6 12.8-6.4 32 6.4 41.6 92.8 70.4 147.2 185.6 121.6 316.8-22.4 128-124.8 230.4-252.8 252.8C339.2 864 160 707.2 160 512c0-105.6 51.2-195.2 128-256 12.8-9.6 16-28.8 6.4-41.6-9.6-16-32-19.2-48-9.6-96 73.6-156.8 188.8-150.4 320 6.4 198.4 169.6 364.8 368 371.2 220.8 9.6 400-166.4 400-384 0-124.8-60.8-233.6-153.6-304-12.8-12.8-35.2-9.6-44.8 6.4z" fill="#454545" p-id="3060"></path></svg>