<?xml version="1.0" encoding="utf-8"?>
<!-- Generator: Adobe Illustrator 19.0.0, SVG Export Plug-In . SVG Version: 6.00 Build 0)  -->
<svg version="1.1" id="图层_1" xmlns="http://www.w3.org/2000/svg" xmlns:xlink="http://www.w3.org/1999/xlink" x="0px" y="0px"
	 viewBox="0 0 24 24" style="enable-background:new 0 0 24 24;" xml:space="preserve">
<style type="text/css">
	.st0{fill:#FFFFFF;}
</style>
<path class="st0" d="M22.4,6.2l-0.1-0.6l-0.6,0c-0.1,0-2.1-0.1-2.4-2.5l0-0.4l-0.4-0.1c-6.7-2.5-6.7-2.5-6.9-2.5h-0.2l-0.1,0.1
	c-0.2,0.1-1.3,0.5-6.6,2.4L4.7,2.7l0,0.4C4.4,5.5,2.5,5.6,2.3,5.7l-0.6,0L1.6,6.2c0,0.1-1.4,13.3,9.9,17.6l0.1,0h0.6l0.1,0
	C23.8,19.5,22.4,6.4,22.4,6.2L22.4,6.2z M12.1,22.6h-0.2c-4.3-1.7-7.1-4.9-8.4-9.5c-0.7-2.7-0.7-5.2-0.6-6.2c1.1-0.3,2.6-1.1,3-3.2
	c4.1-1.5,5.5-2,6.1-2.2c0.4,0.2,1.8,0.6,6.1,2.2c0.4,2.1,1.9,3,3,3.2C21.2,9.2,21.2,19,12.1,22.6L12.1,22.6z M9,10.5L9,10.5
	c0.1-0.5,0.3-0.9,0.4-1.4c0.1-0.4,0.4-0.6,0.8-0.6c1.3,0,2.6,0,3.9,0c0.4,0,0.7,0.2,0.8,0.6c0.1,0.5,0.3,1.1,0.4,1.6c0,0,0,0,0,0.1
	l-6.4,0C8.9,10.7,8.9,10.6,9,10.5z M17.1,10.4L17.1,10.4c-0.1,0-0.3,0-0.4,0c-0.2,0-0.3,0-0.5,0.2c0,0,0-0.1,0-0.1
	c-0.2-0.7-0.4-1.3-0.6-2c-0.1-0.4-0.5-0.7-1-0.7c-1.7,0-3.4,0-5.1,0c-0.4,0-0.8,0.3-1,0.7C8.4,9,8.2,9.4,8.1,9.9
	c-0.1,0.2-0.2,0.5-0.2,0.7c0,0,0,0-0.1-0.1c-0.1-0.1-0.2-0.2-0.3-0.2c-0.2,0-0.4,0-0.6,0c-0.2,0-0.3,0.1-0.3,0.3
	c0,0.2,0,0.3,0.1,0.4c0.1,0.1,0.2,0.1,0.3,0.1h0.4v4.4c0.3,0,0.5,0,0.8-0.1c0.4-0.1,0.6-0.4,0.6-0.9c0-0.1,0-0.3-0.1-0.4h6.5
	c0,0.1-0.1,0.2-0.1,0.4c0,0.3,0.1,0.6,0.3,0.8c0.3,0.2,0.7,0.2,1.1,0.2v-4.4c0.2,0,0.3,0,0.5,0c0.2,0,0.4-0.2,0.4-0.4
	C17.4,10.6,17.3,10.4,17.1,10.4z M9,13c-0.4,0-0.7-0.3-0.7-0.7c0-0.4,0.3-0.6,0.6-0.7c0.4,0,0.7,0.3,0.7,0.7C9.6,12.7,9.3,13,9,13z
	 M15,13L15,13c-0.4,0-0.7-0.3-0.7-0.7c0-0.4,0.3-0.6,0.7-0.6c0.4,0,0.7,0.3,0.7,0.7C15.7,12.7,15.4,13,15,13z"/>
</svg>
