<svg xmlns="http://www.w3.org/2000/svg" xmlns:xlink="http://www.w3.org/1999/xlink" preserveAspectRatio="xMidYMid" width="23" height="24" viewBox="0 0 23 24">
  <defs>
    <style>
      .cls-1 {
        fill: #fff;
        fill-rule: evenodd;
      }
    </style>
  </defs>
  <path d="M22.230,24.000 L11.500,24.000 C11.500,24.000 10.679,23.642 10.679,23.200 L10.679,0.812 C10.679,0.371 11.046,0.013 11.500,0.013 L22.127,0.005 C22.581,0.005 23.000,0.314 23.000,0.755 L23.000,23.200 C23.000,23.200 22.684,24.000 22.230,24.000 ZM13.964,1.612 L12.321,1.612 L12.321,3.211 L13.964,3.211 L13.964,1.612 ZM13.964,4.010 L12.321,4.010 L12.321,5.609 L13.964,5.609 L13.964,4.010 ZM13.964,6.409 L12.321,6.409 L12.321,8.008 L13.964,8.008 L13.964,6.409 ZM13.964,8.808 L12.321,8.808 L12.321,10.407 L13.964,10.407 L13.964,8.808 ZM13.964,11.207 L12.321,11.207 L12.321,12.806 L13.964,12.806 L13.964,11.207 ZM13.964,13.605 L12.321,13.605 L12.321,15.204 L13.964,15.204 L13.964,13.605 ZM13.964,16.004 L12.321,16.004 L12.321,17.603 L13.964,17.603 L13.964,16.004 ZM13.964,18.403 L12.321,18.403 L12.321,20.002 L13.964,20.002 L13.964,18.403 ZM13.964,20.802 L12.321,20.802 L12.321,22.401 L13.964,22.401 L13.964,20.802 ZM16.429,1.612 L14.786,1.612 L14.786,3.211 L16.429,3.211 L16.429,1.612 ZM16.429,4.010 L14.786,4.010 L14.786,5.609 L16.429,5.609 L16.429,4.010 ZM16.429,6.409 L14.786,6.409 L14.786,8.008 L16.429,8.008 L16.429,6.409 ZM16.429,8.808 L14.786,8.808 L14.786,10.407 L16.429,10.407 L16.429,8.808 ZM16.429,11.207 L14.786,11.207 L14.786,12.806 L16.429,12.806 L16.429,11.207 ZM16.429,13.605 L14.786,13.605 L14.786,15.204 L16.429,15.204 L16.429,13.605 ZM16.429,16.004 L14.786,16.004 L14.786,17.603 L16.429,17.603 L16.429,16.004 ZM16.429,18.403 L14.786,18.403 L14.786,20.002 L16.429,20.002 L16.429,18.403 ZM18.893,1.612 L17.250,1.612 L17.250,3.211 L18.893,3.211 L18.893,1.612 ZM18.893,4.010 L17.250,4.010 L17.250,5.609 L18.893,5.609 L18.893,4.010 ZM18.893,6.409 L17.250,6.409 L17.250,8.008 L18.893,8.008 L18.893,6.409 ZM18.893,8.808 L17.250,8.808 L17.250,10.407 L18.893,10.407 L18.893,8.808 ZM18.893,11.207 L17.250,11.207 L17.250,12.806 L18.893,12.806 L18.893,11.207 ZM18.893,13.605 L17.250,13.605 L17.250,15.204 L18.893,15.204 L18.893,13.605 ZM18.893,16.004 L17.250,16.004 L17.250,17.603 L18.893,17.603 L18.893,16.004 ZM18.893,18.403 L17.250,18.403 L17.250,20.002 L18.893,20.002 L18.893,18.403 ZM21.357,1.612 L19.714,1.612 L19.714,3.211 L21.357,3.211 L21.357,1.612 ZM21.357,4.010 L19.714,4.010 L19.714,5.609 L21.357,5.609 L21.357,4.010 ZM21.357,6.409 L19.714,6.409 L19.714,8.008 L21.357,8.008 L21.357,6.409 ZM21.357,8.808 L19.714,8.808 L19.714,10.407 L21.357,10.407 L21.357,8.808 ZM21.357,11.207 L19.714,11.207 L19.714,12.806 L21.357,12.806 L21.357,11.207 ZM21.357,13.605 L19.714,13.605 L19.714,15.204 L21.357,15.204 L21.357,13.605 ZM21.357,16.004 L19.714,16.004 L19.714,17.603 L21.357,17.603 L21.357,16.004 ZM21.357,18.403 L19.714,18.403 L19.714,20.002 L21.357,20.002 L21.357,18.403 ZM21.357,20.802 L19.714,20.802 L19.714,22.401 L21.357,22.401 L21.357,20.802 ZM9.036,24.000 L0.821,24.000 C0.368,24.000 0.000,23.642 0.000,23.200 L0.000,9.608 C0.000,9.166 0.368,8.808 0.821,8.808 L9.036,8.808 C9.489,8.808 9.857,9.166 9.857,9.608 L9.857,23.200 C9.857,23.642 9.489,24.000 9.036,24.000 ZM3.286,10.407 L1.643,10.407 L1.643,12.806 L3.286,12.806 L3.286,10.407 ZM3.286,13.605 L1.643,13.605 L1.643,16.004 L3.286,16.004 L3.286,13.605 ZM3.286,16.804 L1.643,16.804 L1.643,19.202 L3.286,19.202 L3.286,16.804 ZM3.286,20.002 L1.643,20.002 L1.643,22.401 L3.286,22.401 L3.286,20.002 ZM5.750,10.407 L4.107,10.407 L4.107,12.806 L5.750,12.806 L5.750,10.407 ZM5.750,13.605 L4.107,13.605 L4.107,16.004 L5.750,16.004 L5.750,13.605 ZM5.750,16.804 L4.107,16.804 L4.107,19.202 L5.750,19.202 L5.750,16.804 ZM8.214,10.407 L6.571,10.407 L6.571,12.806 L8.214,12.806 L8.214,10.407 ZM8.214,13.605 L6.571,13.605 L6.571,16.004 L8.214,16.004 L8.214,13.605 ZM8.214,16.804 L6.571,16.804 L6.571,19.202 L8.214,19.202 L8.214,16.804 ZM8.214,20.002 L6.571,20.002 L6.571,22.401 L8.214,22.401 L8.214,20.002 Z" class="cls-1"/>
</svg>
