<?xml version="1.0" encoding="utf-8"?>
<!-- Generator: Adobe Illustrator 19.0.0, SVG Export Plug-In . SVG Version: 6.00 Build 0)  -->
<svg version="1.1" id="图层_1" xmlns="http://www.w3.org/2000/svg" xmlns:xlink="http://www.w3.org/1999/xlink" x="0px" y="0px"
	 viewBox="0 0 24 24" style="enable-background:new 0 0 24 24;" xml:space="preserve">
<style type="text/css">
	.st0{fill:#FFFFFF;}
</style>
<path id="XMLID_8_" class="st0" d="M18.4,5.4l-0.2-0.2l-1,1l0.2,0.2c3,3.1,3,8.1,0,11.2l-0.2,0.2l1,1l0.2-0.2C22,14.9,22,9,18.4,5.4
	z"/>
<path id="XMLID_7_" class="st0" d="M6.4,6.4l0.2-0.2l-1-1L5.4,5.4c-3.6,3.6-3.6,9.5,0,13.1l0.2,0.2l1-1l-0.2-0.2
	C3.4,14.5,3.4,9.5,6.4,6.4z"/>
<path id="XMLID_6_" class="st0" d="M20.4,3.4l-0.2-0.2l-1,1l0.2,0.2c2,2,3.1,4.7,3.1,7.6s-1.1,5.6-3.1,7.6l-0.2,0.2l1,1l0.2-0.2
	c2.3-2.3,3.5-5.3,3.5-8.6S22.7,5.7,20.4,3.4z"/>
<path id="XMLID_5_" class="st0" d="M1.3,12c0-2.9,1.1-5.6,3.1-7.6l0.2-0.2l-1-1L3.5,3.4C1.2,5.7-0.1,8.8-0.1,12
	c0,3.2,1.2,6.3,3.5,8.6l0.2,0.2l1-1l-0.2-0.2C2.4,17.6,1.3,14.9,1.3,12z"/>
<path id="XMLID_4_" class="st0" d="M16.4,7.5l-0.2-0.2l-1,1l0.2,0.2c0.9,0.9,1.5,2.2,1.5,3.6c0,1.4-0.5,2.6-1.5,3.6l-0.2,0.2l1,1
	l0.2-0.2c1.2-1.2,1.8-2.8,1.8-4.5C18.3,10.3,17.7,8.7,16.4,7.5z"/>
<path id="XMLID_3_" class="st0" d="M6.9,12c0-1.4,0.5-2.6,1.5-3.6l0.2-0.2l-1-1L7.4,7.5C6.2,8.7,5.6,10.3,5.6,12s0.7,3.3,1.8,4.5
	l0.2,0.2l1-1l-0.2-0.2C7.5,14.6,6.9,13.4,6.9,12z"/>
<path class="st0" d="M11.9,8.6c-1.8,0-3.4,1.5-3.4,3.4c0,1.8,1.5,3.4,3.4,3.4c1.8,0,3.4-1.5,3.4-3.4S13.8,8.6,11.9,8.6z M11.9,14.1
	c-1.2,0-2.1-0.9-2.1-2.1c0-1.2,0.9-2.1,2.1-2.1S14,10.8,14,12C14,13.2,13.1,14.1,11.9,14.1z"/>
</svg>
