<?xml version="1.0" encoding="utf-8"?>
<!-- Generator: Adobe Illustrator 19.0.0, SVG Export Plug-In . SVG Version: 6.00 Build 0)  -->
<svg version="1.1" id="图层_1" xmlns="http://www.w3.org/2000/svg" xmlns:xlink="http://www.w3.org/1999/xlink" x="0px" y="0px"
	 viewBox="0 0 24 24" style="enable-background:new 0 0 24 24;" xml:space="preserve">
<style type="text/css">
	.st0{fill:#FFFFFF;}
</style>
<path id="XMLID_5_" class="st0" d="M23.8,13.1L12.5,1.9c-0.1-0.1-0.3-0.2-0.5-0.2c-0.2,0-0.4,0.1-0.5,0.2L0.2,13.1
	c-0.3,0.3-0.3,0.7,0,1c0.3,0.3,0.6,0.3,0.9,0l2.2-2.3v8.9c0,0.4,0.5,0.9,0.9,0.9h5h5.7h5c0.4,0,0.5-0.5,0.5-0.9V12l2.2,2.2
	c0.1,0.1,0.4,0.2,0.6,0.2c0.2,0,0.4-0.1,0.5-0.2C24.1,13.9,24.1,13.4,23.8,13.1z M14,20.3H9.7v-4.8c0-0.6,0.7-0.9,1.2-0.9h2.1
	c0.6,0,0.9,0.3,0.9,0.9L14,20.3L14,20.3z M19,20.3h-3.6v-4.8c0-1.4-1-2.3-2.3-2.3H11c-1.4,0-2.7,0.9-2.7,2.3v4.8H4.7v-9.8
	c0,0,0.1,0,0.1,0l7.1-7.1l7.1,7.2V20.3z"/>
</svg>
