<?xml version="1.0" encoding="utf-8"?>
<!-- Generator: Adobe Illustrator 19.0.0, SVG Export Plug-In . SVG Version: 6.00 Build 0)  -->
<svg version="1.1" id="图层_1" xmlns="http://www.w3.org/2000/svg" xmlns:xlink="http://www.w3.org/1999/xlink" x="0px" y="0px"
	 viewBox="0 0 24 24" style="enable-background:new 0 0 24 24;" xml:space="preserve">
<style type="text/css">
	.st0{fill:#FFFFFF;}
</style>
<path id="XMLID_3_" class="st0" d="M3.4,9.7c0-4.7,3.8-8.5,8.5-8.5c4.7,0,8.5,3.8,8.5,8.5c0,0.3,0.3,0.6,0.6,0.6
	c0.3,0,0.6-0.3,0.6-0.6c0-5.3-4.3-9.7-9.7-9.7C6.5,0,2.2,4.3,2.2,9.7c0,6.6,9,12.9,9.3,13.2c0.3,0.2,0.7,0.1,0.8-0.1c0,0,0,0,0,0
	c0.2-0.3,0.1-0.7-0.1-0.8c0,0,0,0,0,0C12.1,21.8,3.4,15.6,3.4,9.7L3.4,9.7z"/>
<path id="XMLID_14_" class="st0" d="M12.3,6.1c-2.2,0-4,1.8-4,4c0,2.2,1.8,4,4,4s4-1.8,4-4C16.2,7.9,14.5,6.1,12.3,6.1z M12.3,13.2
	c-1.7,0-3.1-1.4-3.1-3.1c0-1.7,1.4-3.1,3.1-3.1s3.1,1.4,3.1,3.1C15.3,11.8,13.9,13.2,12.3,13.2z"/>
<path id="XMLID_10_" class="st0" d="M22.5,21.6l-2.2-2.5c0.5-0.6,0.8-1.3,0.8-2c0-1.8-1.4-3.2-3.2-3.2s-3.2,1.4-3.2,3.2
	c0,1.8,1.4,3.2,3.2,3.2c0.7,0,1.3-0.2,1.9-0.6l2.2,2.5c0.1,0.2,0.4,0.2,0.6,0C22.6,22,22.7,21.8,22.5,21.6z M15.4,17.1
	c0-1.3,1.1-2.4,2.4-2.4c1.3,0,2.4,1.1,2.4,2.4c0,1.3-1.1,2.4-2.4,2.4C16.5,19.5,15.4,18.4,15.4,17.1z"/>
</svg>
