<?xml version="1.0" encoding="utf-8"?>
<!-- Generator: Adobe Illustrator 19.0.0, SVG Export Plug-In . SVG Version: 6.00 Build 0)  -->
<svg version="1.1" id="图层_1" xmlns="http://www.w3.org/2000/svg" xmlns:xlink="http://www.w3.org/1999/xlink" x="0px" y="0px"
	 viewBox="0 0 16 16" style="enable-background:new 0 0 16 16;" xml:space="preserve">
<style type="text/css">
	.st0{fill:#fff;}
</style>
<g id="XMLID_17_">
	<path id="XMLID_16_" class="st0" d="M1.2,9C1.4,9,1.5,9,1.6,9c0.1,0,0.2-0.1,0.3-0.2l0,0C2,8.8,2,8.7,2.1,8.6
		c0.1-0.1,0.1-0.2,0.2-0.3c0-0.1,0.1-0.2,0.1-0.3c0-0.1,0-0.3-0.1-0.4C2.2,7.5,2.1,7.4,2,7.3C1.9,7.2,1.8,7.1,1.7,7
		C1.5,7,1.4,7,1.2,7l0,0C1.1,7,1,7,0.8,7C0.7,7.1,0.6,7.2,0.5,7.3C0.4,7.4,0.3,7.5,0.3,7.6C0.2,7.7,0.2,7.9,0.2,8
		c0,0.1,0,0.3,0.1,0.4c0.1,0.1,0.1,0.2,0.2,0.3S0.7,8.9,0.8,9C1,9,1.1,9,1.2,9z"/>
	<path id="XMLID_15_" class="st0" d="M15.7,7.6c-0.1-0.1-0.1-0.2-0.2-0.3c-0.1-0.1-0.2-0.2-0.3-0.2C15,7,14.9,7,14.8,7l0,0
		c-0.1,0-0.3,0-0.4,0.1c-0.1,0.1-0.2,0.1-0.3,0.2c-0.1,0.1-0.2,0.2-0.2,0.3c-0.1,0.1-0.1,0.3-0.1,0.4c0,0.1,0,0.3,0.1,0.4
		c0.1,0.1,0.1,0.2,0.2,0.3c0.1,0.1,0.2,0.2,0.3,0.2C14.5,9,14.6,9,14.8,9C14.9,9,15,9,15.1,9c0.1,0,0.2-0.1,0.3-0.2l0,0
		c0.1,0,0.1-0.1,0.1-0.2c0.1-0.1,0.1-0.2,0.2-0.3c0-0.1,0.1-0.2,0.1-0.3C15.8,7.9,15.8,7.7,15.7,7.6z"/>
	<path id="XMLID_14_" class="st0" d="M0.8,5.9C0.8,6,0.9,6.1,1,6.2c0.1,0.1,0.2,0.2,0.3,0.2c0.1,0,0.2,0.1,0.3,0.1
		c0.1,0,0.2,0,0.3,0l0,0c0.1,0,0.1-0.1,0.2-0.1c0.1-0.1,0.2-0.1,0.3-0.2C2.6,6.1,2.6,6,2.7,5.9c0.1-0.1,0.1-0.3,0.1-0.4
		s0-0.3-0.1-0.4C2.6,5,2.6,4.9,2.5,4.8C2.4,4.7,2.2,4.6,2.1,4.5l0,0C2,4.5,1.8,4.5,1.7,4.5s-0.3,0-0.4,0.1C1.2,4.6,1.1,4.7,1,4.8
		C0.9,4.9,0.8,5,0.8,5.1C0.7,5.3,0.7,5.4,0.7,5.5C0.7,5.7,0.7,5.8,0.8,5.9z"/>
	<path id="XMLID_13_" class="st0" d="M15.2,10.1C15.2,10,15.1,9.9,15,9.8c-0.1-0.1-0.2-0.2-0.3-0.2l0,0c-0.1-0.1-0.3-0.1-0.4-0.1
		c-0.1,0-0.3,0-0.4,0.1c-0.1,0.1-0.2,0.1-0.3,0.2c-0.1,0.1-0.2,0.2-0.2,0.3c-0.1,0.1-0.1,0.3-0.1,0.4c0,0.1,0,0.3,0.1,0.4
		c0.1,0.1,0.1,0.2,0.2,0.3c0.1,0.1,0.2,0.2,0.3,0.2c0.1,0,0.2,0.1,0.3,0.1c0.1,0,0.2,0,0.3,0l0,0c0.1,0,0.1-0.1,0.2-0.1
		c0.1-0.1,0.2-0.1,0.3-0.2c0.1-0.1,0.1-0.2,0.2-0.3c0.1-0.1,0.1-0.3,0.1-0.4C15.3,10.3,15.3,10.2,15.2,10.1z"/>
	<path id="XMLID_12_" class="st0" d="M9,0.8C8.9,0.7,8.8,0.6,8.7,0.5C8.6,0.4,8.5,0.3,8.4,0.3C8.3,0.2,8.1,0.2,8,0.2
		c-0.1,0-0.3,0-0.4,0.1C7.5,0.3,7.4,0.4,7.3,0.5C7.2,0.6,7.1,0.7,7,0.8C7,1,7,1.1,7,1.2C7,1.4,7,1.5,7,1.6c0,0.1,0.1,0.2,0.2,0.3
		l0,0C7.2,2,7.3,2,7.4,2.1c0.1,0.1,0.2,0.1,0.3,0.2c0.1,0,0.2,0.1,0.3,0.1c0.1,0,0.3,0,0.4-0.1C8.5,2.2,8.6,2.1,8.7,2
		C8.8,1.9,8.9,1.8,9,1.7C9,1.5,9,1.4,9,1.2l0,0C9,1.1,9,1,9,0.8z"/>
	<path id="XMLID_11_" class="st0" d="M9,14.3c-0.1-0.1-0.1-0.2-0.2-0.3c-0.1-0.1-0.2-0.2-0.3-0.2c-0.1-0.1-0.3-0.1-0.4-0.1
		c-0.1,0-0.3,0-0.4,0.1c-0.1,0.1-0.2,0.1-0.3,0.2c-0.1,0.1-0.2,0.2-0.2,0.3C7,14.5,7,14.6,7,14.8C7,14.9,7,15,7,15.1
		c0,0.1,0.1,0.2,0.2,0.3l0,0c0,0.1,0.1,0.1,0.2,0.1c0.1,0.1,0.2,0.1,0.3,0.2c0.1,0,0.2,0.1,0.3,0.1c0.1,0,0.3,0,0.4-0.1
		c0.1-0.1,0.2-0.1,0.3-0.2c0.1-0.1,0.2-0.2,0.2-0.3C9,15,9,14.9,9,14.8l0,0C9,14.6,9,14.5,9,14.3z"/>
	<path id="XMLID_10_" class="st0" d="M11.8,3.7C11.9,3.8,12,3.9,12,4c0.1,0.1,0.2,0.2,0.3,0.2c0.1,0.1,0.3,0.1,0.4,0.1
		c0.1,0,0.3,0,0.4-0.1c0.1-0.1,0.2-0.1,0.3-0.2v0c0.1-0.1,0.2-0.2,0.2-0.3c0.1-0.1,0.1-0.3,0.1-0.4c0-0.1,0-0.3-0.1-0.4
		c-0.1-0.1-0.1-0.2-0.2-0.3c-0.1-0.1-0.2-0.2-0.3-0.2c-0.1-0.1-0.3-0.1-0.4-0.1c-0.1,0-0.3,0-0.4,0.1c-0.1,0.1-0.2,0.1-0.3,0.2
		c-0.1,0.1-0.2,0.2-0.2,0.3c-0.1,0.1-0.1,0.2-0.1,0.3l0,0c0,0.1,0,0.1,0,0.2C11.8,3.5,11.8,3.6,11.8,3.7z"/>
	<path id="XMLID_9_" class="st0" d="M4,12c-0.1-0.1-0.2-0.2-0.3-0.2s-0.3-0.1-0.4-0.1c-0.1,0-0.3,0-0.4,0.1
		c-0.1,0.1-0.2,0.1-0.3,0.2c-0.1,0.1-0.2,0.2-0.2,0.3c-0.1,0.1-0.1,0.2-0.1,0.3l0,0c0,0.1,0,0.1,0,0.2c0,0.1,0,0.2,0.1,0.3
		c0.1,0.1,0.1,0.2,0.2,0.3c0.1,0.1,0.2,0.2,0.3,0.2c0.1,0.1,0.3,0.1,0.4,0.1c0.1,0,0.3,0,0.4-0.1c0.1-0.1,0.2-0.1,0.3-0.2v0
		c0.1-0.1,0.2-0.2,0.2-0.3c0.1-0.1,0.1-0.3,0.1-0.4c0-0.1,0-0.3-0.1-0.4C4.1,12.3,4.1,12.1,4,12z"/>
	<path id="XMLID_8_" class="st0" d="M13.3,4.9L13.3,4.9c0,0.1-0.1,0.1-0.1,0.2c0,0.1,0,0.2,0,0.3c0,0.1,0,0.2,0.1,0.3
		c0.1,0.1,0.1,0.2,0.2,0.3c0.1,0.1,0.2,0.2,0.3,0.2c0.1,0,0.3,0.1,0.4,0.1c0.1,0,0.3,0,0.4-0.1l0,0c0.1-0.1,0.2-0.1,0.3-0.2
		c0.1-0.1,0.2-0.2,0.2-0.3c0-0.1,0.1-0.3,0.1-0.4c0-0.1,0-0.3-0.1-0.4S15.1,4.7,15,4.6c-0.1-0.1-0.2-0.2-0.3-0.2
		c-0.1,0-0.3-0.1-0.4-0.1c-0.1,0-0.3,0-0.4,0.1c-0.1,0-0.2,0.1-0.3,0.2C13.4,4.7,13.4,4.8,13.3,4.9z"/>
	<path id="XMLID_7_" class="st0" d="M2.7,11c0-0.1,0.1-0.3,0.1-0.4c0-0.1,0-0.3-0.1-0.4C2.7,10.1,2.6,10,2.5,9.9
		C2.4,9.8,2.3,9.7,2.2,9.7C2,9.6,1.9,9.6,1.8,9.6c-0.1,0-0.3,0-0.4,0.1c-0.1,0-0.2,0.1-0.3,0.2C1,9.9,0.9,10,0.9,10.1l0,0
		c0,0.1-0.1,0.1-0.1,0.2c0,0.1,0,0.2,0,0.3c0,0.1,0,0.2,0.1,0.3c0.1,0.1,0.1,0.2,0.2,0.3c0.1,0.1,0.2,0.2,0.3,0.2
		c0.1,0,0.3,0.1,0.4,0.1s0.3,0,0.4-0.1l0,0c0.1-0.1,0.2-0.1,0.3-0.2C2.6,11.2,2.7,11.1,2.7,11z"/>
	<path id="XMLID_6_" class="st0" d="M9.6,2.3c0.1,0.1,0.1,0.2,0.2,0.3s0.2,0.1,0.3,0.2c0.1,0.1,0.3,0.1,0.4,0.1c0.1,0,0.3,0,0.4-0.1
		c0.1-0.1,0.2-0.1,0.3-0.2c0.1-0.1,0.2-0.2,0.2-0.3l0,0c0.1-0.1,0.1-0.3,0.1-0.4c0-0.1,0-0.3-0.1-0.4S11.4,1.1,11.3,1
		c-0.1-0.1-0.2-0.2-0.3-0.2c-0.1-0.1-0.3-0.1-0.4-0.1s-0.3,0-0.4,0.1C10,0.8,9.9,0.9,9.8,1C9.7,1.1,9.6,1.2,9.6,1.4
		c0,0.1-0.1,0.2-0.1,0.3c0,0.1,0,0.2,0,0.3l0,0C9.6,2.1,9.6,2.2,9.6,2.3L9.6,2.3z"/>
	<path id="XMLID_5_" class="st0" d="M6.4,13.8c-0.1-0.1-0.1-0.2-0.2-0.3c-0.1-0.1-0.2-0.2-0.3-0.2c-0.1-0.1-0.3-0.1-0.4-0.1
		c-0.1,0-0.3,0-0.4,0.1c-0.1,0.1-0.2,0.1-0.3,0.2s-0.2,0.2-0.2,0.3c0,0.1-0.1,0.2-0.1,0.3c0,0.1,0,0.2,0,0.3l0,0
		c0,0.1,0.1,0.1,0.1,0.2c0.1,0.1,0.1,0.2,0.2,0.3c0.1,0.1,0.2,0.1,0.3,0.2c0.1,0.1,0.3,0.1,0.4,0.1c0.1,0,0.3,0,0.4-0.1
		C6,15.2,6.1,15.1,6.2,15c0.1-0.1,0.2-0.2,0.2-0.3l0,0c0.1-0.1,0.1-0.3,0.1-0.4C6.5,14.1,6.5,14,6.4,13.8z"/>
	<path id="XMLID_4_" class="st0" d="M13.5,12c-0.1-0.1-0.2-0.2-0.3-0.2c-0.1-0.1-0.2-0.1-0.3-0.1l0,0c-0.1,0-0.1,0-0.2,0
		c-0.1,0-0.2,0-0.3,0.1C12.2,11.9,12.1,12,12,12c-0.1,0.1-0.2,0.2-0.2,0.3c-0.1,0.1-0.1,0.3-0.1,0.4c0,0.1,0,0.3,0.1,0.4
		c0.1,0.1,0.1,0.2,0.2,0.3h0c0.1,0.1,0.2,0.2,0.3,0.2c0.1,0.1,0.3,0.1,0.4,0.1c0.1,0,0.3,0,0.4-0.1c0.1-0.1,0.2-0.1,0.3-0.2
		c0.1-0.1,0.2-0.2,0.2-0.3c0.1-0.1,0.1-0.3,0.1-0.4c0-0.1,0-0.3-0.1-0.4C13.7,12.3,13.6,12.1,13.5,12z"/>
	<path id="XMLID_3_" class="st0" d="M4,2.5C3.9,2.4,3.8,2.3,3.7,2.3C3.6,2.2,3.5,2.2,3.3,2.2l0,0c-0.1,0-0.1,0-0.2,0
		c-0.1,0-0.2,0-0.3,0.1C2.7,2.3,2.6,2.4,2.5,2.5C2.4,2.6,2.3,2.7,2.3,2.8C2.2,3,2.2,3.1,2.2,3.2c0,0.1,0,0.3,0.1,0.4
		C2.3,3.7,2.4,3.9,2.5,4h0c0.1,0.1,0.2,0.2,0.3,0.2C3,4.2,3.1,4.3,3.2,4.3c0.1,0,0.3,0,0.4-0.1C3.7,4.1,3.9,4.1,4,4
		c0.1-0.1,0.2-0.2,0.2-0.3c0.1-0.1,0.1-0.3,0.1-0.4c0-0.1,0-0.3-0.1-0.4C4.1,2.7,4.1,2.6,4,2.5z"/>
	<path id="XMLID_2_" class="st0" d="M11.4,13.5c-0.1-0.1-0.2-0.2-0.3-0.2l0,0c-0.1,0-0.1-0.1-0.2-0.1c-0.1,0-0.2,0-0.3,0
		c-0.1,0-0.2,0-0.3,0.1c-0.1,0.1-0.2,0.1-0.3,0.2c-0.1,0.1-0.2,0.2-0.2,0.3c0,0.1-0.1,0.3-0.1,0.4c0,0.1,0,0.3,0.1,0.4l0,0
		c0.1,0.1,0.1,0.2,0.2,0.3c0.1,0.1,0.2,0.2,0.3,0.2c0.1,0,0.3,0.1,0.4,0.1c0.1,0,0.3,0,0.4-0.1c0.1-0.1,0.2-0.1,0.3-0.2
		c0.1-0.1,0.2-0.2,0.2-0.3c0-0.1,0.1-0.3,0.1-0.4c0-0.1,0-0.3-0.1-0.4C11.6,13.7,11.5,13.6,11.4,13.5z"/>
	<path id="XMLID_1_" class="st0" d="M4.6,2.5c0.1,0.1,0.2,0.2,0.3,0.2s0.3,0.1,0.4,0.1c0.1,0,0.3,0,0.4-0.1C5.9,2.7,6,2.6,6.1,2.5
		c0.1-0.1,0.2-0.2,0.2-0.3c0-0.1,0.1-0.3,0.1-0.4c0-0.1,0-0.3-0.1-0.4c0-0.1-0.1-0.2-0.2-0.3C6,1,5.9,0.9,5.8,0.9l0,0
		c-0.1,0-0.1-0.1-0.2-0.1c-0.1,0-0.2,0-0.3,0c-0.1,0-0.2,0-0.3,0.1C4.8,0.9,4.7,1,4.6,1.1C4.5,1.2,4.4,1.3,4.4,1.4S4.3,1.7,4.3,1.8
		c0,0.1,0,0.3,0.1,0.4l0,0C4.4,2.3,4.5,2.5,4.6,2.5z"/>
</g>
</svg>
