<?xml version="1.0" encoding="utf-8"?>
<!-- Generator: Adobe Illustrator 19.0.0, SVG Export Plug-In . SVG Version: 6.00 Build 0)  -->
<svg version="1.1" id="图层_1" xmlns="http://www.w3.org/2000/svg" xmlns:xlink="http://www.w3.org/1999/xlink" x="0px" y="0px"
	 viewBox="0 0 26 26" style="enable-background:new 0 0 26 26;" xml:space="preserve">
<style type="text/css">
	.st0{fill:#FFFFFF;}
</style>
<path id="XMLID_4_" class="st0" d="M24.1,22.6v-1.4H23V7.8h1.6V6.2L13.8,2.1h-1.7L1.4,6.2v1.6h1.6v13.4H1.8v1.4H0v1.4h26v-1.4
	L24.1,22.6L24.1,22.6z M16.2,13.4v1.2h-2.6V16h2.6v1.2h-2.6v3.1h-1.4v-3.1H9.6V16h2.6v-1.4H9.6v-1.2H12L8.1,8.3h1.7l3,4l3-4h1.7
	l-3.9,5.2C13.7,13.4,16.2,13.4,16.2,13.4z"/>
</svg>
