<?xml version="1.0" encoding="utf-8"?>
<!-- Generator: Adobe Illustrator 21.0.0, SVG Export Plug-In . SVG Version: 6.00 Build 0)  -->
<svg version="1.1" id="图层_1" xmlns="http://www.w3.org/2000/svg" xmlns:xlink="http://www.w3.org/1999/xlink" x="0px" y="0px"
	 viewBox="0 0 24 24" style="enable-background:new 0 0 24 24;" xml:space="preserve">
<style type="text/css">
	.st0{fill:#FFFFFF;}
</style>
<path class="st0" d="M13.9,11.6H6.8V9.5c0-0.6-0.5-1-1-1s-1,0.5-1,1v11.2c0,0.6,0.5,1,1,1h8.1c0.6,0,1-0.5,1-1s-0.5-1-1-1H6.8v-6
	h7.1c0.6,0,1-0.5,1-1C14.9,12,14.5,11.6,13.9,11.6z M9,7H3C2.5,7,2,6.6,2,6V2.2c0-0.6,0.5-1,1-1h6c0.6,0,1,0.5,1,1V6
	C10,6.6,9.6,7,9,7z M22,15h-4c-0.5,0-1-0.4-1-1v-3.8c0-0.6,0.5-1,1-1h4c0.5,0,1,0.4,1,1V14C23,14.6,22.5,15,22,15z M22,24h-4
	c-0.5,0-1-0.5-1-1v-3.8c0-0.5,0.5-1,1-1h4c0.5,0,1,0.5,1,1V23C23,23.5,22.5,24,22,24z"/>
</svg>
