<svg xmlns="http://www.w3.org/2000/svg" xmlns:xlink="http://www.w3.org/1999/xlink" preserveAspectRatio="xMidYMid" width="59.969" height="59" viewBox="0 0 59.969 59">
  <defs>
    <style>
      .cls-1 {
        fill: #fff;
      }

      .cls-1, .cls-2 {
        fill-rule: evenodd;
      }

      .cls-2 {
        fill: #fff;
      }
    </style>
  </defs>
  <g>
    <path d="M42.003,2.454 C26.841,-4.053 9.129,2.785 2.505,17.695 C-4.109,32.610 2.841,50.040 18.000,56.546 C22.437,58.457 27.099,59.216 31.634,58.968 C35.542,58.749 39.348,57.772 42.856,56.138 L42.863,56.162 C43.219,56.031 46.341,54.820 47.213,51.892 C47.754,50.074 47.258,48.128 45.790,46.134 C46.229,45.648 46.296,44.962 45.958,44.428 L45.958,44.423 L40.367,35.703 C39.937,35.022 39.042,34.847 38.365,35.256 L35.512,37.629 C34.128,38.285 32.838,36.914 30.542,34.025 L25.769,26.599 C24.817,24.688 24.046,22.743 25.383,21.761 L28.661,20.063 L28.661,20.058 C29.372,19.616 29.526,18.726 29.110,18.089 L29.110,18.084 L23.519,9.360 C23.094,8.684 22.200,8.494 21.522,8.912 L18.603,11.169 C16.885,12.647 12.684,19.494 21.849,34.157 C31.352,49.378 39.981,49.038 42.141,47.973 L43.090,47.535 L42.784,47.725 C43.644,48.843 44.287,50.142 44.074,50.886 C43.800,51.839 42.102,52.952 41.444,53.273 C38.236,54.771 34.736,55.637 31.162,55.792 C27.207,55.968 23.159,55.282 19.298,53.619 C5.775,47.812 -0.424,32.274 5.486,18.974 C11.386,5.673 27.183,-0.425 40.708,5.377 C54.164,11.159 60.358,26.585 54.594,39.842 C54.448,39.992 54.292,40.532 54.240,40.741 C54.050,41.480 54.678,41.889 55.605,42.113 C56.529,42.341 56.665,42.341 57.273,41.743 C57.293,41.675 57.614,41.062 57.614,40.989 C63.996,26.147 57.060,8.917 42.003,2.454 Z" class="cls-1"/>
    <path d="M42.003,2.454 C26.841,-4.053 9.129,2.785 2.505,17.695 C-4.109,32.610 2.841,50.040 18.000,56.546 C22.437,58.457 27.099,59.216 31.634,58.968 C35.542,58.749 39.348,57.772 42.856,56.138 L42.863,56.162 C43.219,56.031 46.341,54.820 47.213,51.892 C47.754,50.074 47.258,48.128 45.790,46.134 C46.229,45.648 46.296,44.962 45.958,44.428 L45.958,44.423 L40.367,35.703 C39.937,35.022 39.042,34.847 38.365,35.256 L35.512,37.629 C34.128,38.285 32.838,36.914 30.542,34.025 L25.769,26.599 C24.817,24.688 24.046,22.743 25.383,21.761 L28.661,20.063 L28.661,20.058 C29.372,19.616 29.526,18.726 29.110,18.089 L29.110,18.084 L23.519,9.360 C23.094,8.684 22.200,8.494 21.522,8.912 L18.603,11.169 C16.885,12.647 12.684,19.494 21.849,34.157 C31.352,49.378 39.981,49.038 42.141,47.973 L43.090,47.535 L42.784,47.725 C43.644,48.843 44.287,50.142 44.074,50.886 C43.800,51.839 42.102,52.952 41.444,53.273 C38.236,54.771 34.736,55.637 31.162,55.792 C27.207,55.968 23.159,55.282 19.298,53.619 C5.775,47.812 -0.424,32.274 5.486,18.974 C11.386,5.673 27.183,-0.425 40.708,5.377 C54.164,11.159 60.358,26.585 54.594,39.842 C54.448,39.992 54.292,40.532 54.240,40.741 C54.050,41.480 54.678,41.889 55.605,42.113 C56.529,42.341 56.665,42.341 57.273,41.743 C57.293,41.675 57.614,41.062 57.614,40.989 C63.996,26.147 57.060,8.917 42.003,2.454 Z" class="cls-2"/>
  </g>
</svg>
