<?xml version="1.0" encoding="utf-8"?>
<!-- Generator: Adobe Illustrator 19.0.0, SVG Export Plug-In . SVG Version: 6.00 Build 0)  -->
<svg version="1.1" id="图层_1" xmlns="http://www.w3.org/2000/svg" xmlns:xlink="http://www.w3.org/1999/xlink" x="0px" y="0px"
	 viewBox="0 0 24 24" style="enable-background:new 0 0 24 24;" xml:space="preserve">
<style type="text/css">
	.st0{fill:#FFFFFF;}
</style>
<g id="XMLID_11_">
	<path id="XMLID_10_" class="st0" d="M14.4,10c0.7-0.9,1.1-2,1.1-3.2c0-2.8-2.3-5.2-5.1-5.2C7.6,1.7,5.3,4,5.3,6.8
		c0,2.8,2.3,5.2,5.1,5.2c0.2,0,0.3,0.2,0.5,0.2c0,0,0,0,0,0c-0.3,0.5-0.4,0.8-0.4,1.4c0,0.2,0,0.3,0.1,0.5c-0.1,0-0.1,0-0.2,0
		c-4.4,0-8,3.6-8,8.1c0,0,0,0,0,0.1H0.9c0,0,0,0,0-0.1c0-4.3,2.7-8,6.5-9.3c-2.2-1.1-3.7-3.4-3.7-6.1c0-3.8,3-6.8,6.6-6.8
		C14.1,0,17,3.1,17,6.8c0,1.6-0.5,3-1.4,4.2C15.2,10.7,14.4,10,14.4,10L14.4,10z"/>
	<path id="XMLID_9_" class="st0" d="M9.3,13c0-0.3,0.1-0.5,0.3-0.7c0.2-0.2,0.5-0.3,0.7-0.3c0.3,0,0.5,0.1,0.7,0.3
		c0.2,0.2,0.3,0.5,0.3,0.7c0,0.3-0.1,0.5-0.3,0.7c-0.2,0.2-0.5,0.3-0.7,0.3c-0.3,0-0.5-0.1-0.7-0.3C9.4,13.6,9.3,13.3,9.3,13L9.3,13
		z"/>
	<path id="XMLID_8_" class="st0" d="M14.2,10.5c0-0.2,0.1-0.4,0.2-0.6c0.1-0.1,0.4-0.2,0.6-0.2c0.2,0,0.4,0.1,0.6,0.2
		c0.1,0.1,0.2,0.4,0.2,0.6c0,0.2-0.1,0.4-0.2,0.6c-0.1,0.1-0.4,0.2-0.6,0.2c-0.2,0-0.4-0.1-0.6-0.2C14.3,10.9,14.2,10.7,14.2,10.5
		L14.2,10.5z"/>
	<path id="XMLID_6_" class="st0" d="M19.1,15.5"/>
	<path class="st0" d="M17,24c-3.3,0-6.1-2.7-6.1-6.1c0-3.3,2.7-6.1,6.1-6.1c3.3,0,6.1,2.7,6.1,6.1C23.1,21.3,20.4,24,17,24L17,24z
		 M17,13.1c-2.6,0-4.8,2.1-4.8,4.8c0,2.6,2.1,4.8,4.8,4.8c2.6,0,4.8-2.1,4.8-4.8C21.8,15.3,19.7,13.1,17,13.1L17,13.1z M16.2,18.8
		L16.2,18.8c-0.3-0.3-0.5-0.7-0.5-0.7s-0.4-0.5-0.1-0.9c0.5-0.8,0.7-0.8,0.4-1.2c-0.8-1.4-1.3-1.3-1.4-1.3c-0.5,0.1-0.9,1-0.7,2
		c0.2,1,0.8,2,1.6,2.8c0.8,0.8,1.8,1.3,2.8,1.6c1,0.2,1.9-0.2,2-0.7c0-0.1,0.1-0.6-1.3-1.4c-0.4-0.2-0.4-0.1-1.2,0.4
		c-0.4,0.2-0.9-0.1-0.9-0.1S16.5,19.1,16.2,18.8L16.2,18.8z"/>
	<g>
		<path id="XMLID_2_" class="st0" d="M19.3,16.5l0.8-0.8l-0.8-0.8l0,0.7l-2.2,0l0,0.4l2.2,0L19.3,16.5z"/>
		<path id="XMLID_1_" class="st0" d="M20.1,17.6l0-0.4l-2.2-0.1l0-0.6L17,17.3l0.8,0.8l0-0.7L20.1,17.6z"/>
	</g>
</g>
</svg>
