<?xml version="1.0" encoding="utf-8"?>
<!-- Generator: Adobe Illustrator 19.0.0, SVG Export Plug-In . SVG Version: 6.00 Build 0)  -->
<svg version="1.1" id="图层_1" xmlns="http://www.w3.org/2000/svg" xmlns:xlink="http://www.w3.org/1999/xlink" x="0px" y="0px"
	 viewBox="0 1 16 15" style="enable-background:new 0 1 16 15;" xml:space="preserve">
<style type="text/css">
	.st0{fill:#FFFFFF;}
</style>
<g>
	<circle class="st0" cx="8.6" cy="9.4" r="2.5"/>
	<path class="st0" d="M12.2,4.8c-1.1,0-1.9-0.9-1.9-1.9c0-1.1,0.9-1.9,1.9-1.9c1.1,0,1.9,0.9,1.9,1.9S13.3,4.8,12.2,4.8z M12.2,1.6
		c-0.7,0-1.3,0.6-1.3,1.3s0.6,1.3,1.3,1.3s1.3-0.6,1.3-1.3S13,1.6,12.2,1.6z"/>
	<path class="st0" d="M14.9,10c-0.6,0-1.1-0.5-1.1-1s0.5-1,1.1-1S16,8.5,16,9S15.5,10,14.9,10z M14.9,8.2c-0.4,0-0.7,0.3-0.7,0.7
		s0.3,0.7,0.7,0.7s0.7-0.3,0.7-0.7C15.7,8.5,15.3,8.2,14.9,8.2z"/>
	<path class="st0" d="M9.3,16c-0.6,0-1.1-0.5-1.1-1s0.5-1,1.1-1s1.1,0.5,1.1,1S9.9,16,9.3,16z M9.3,14.2c-0.4,0-0.7,0.3-0.7,0.7
		s0.3,0.7,0.7,0.7s0.7-0.3,0.7-0.7S9.7,14.2,9.3,14.2z"/>
	<path class="st0" d="M4.5,5.7c-0.6,0-1.1-0.5-1.1-1s0.5-1,1.1-1s1.1,0.5,1.1,1S5.1,5.7,4.5,5.7z M4.5,3.9c-0.4,0-0.7,0.3-0.7,0.7
		c0,0.4,0.3,0.7,0.7,0.7S5.2,5,5.2,4.6C5.2,4.2,4.9,3.9,4.5,3.9z"/>
	<path class="st0" d="M1.9,14.9c-1,0-1.9-0.8-1.9-1.9s0.9-1.9,1.9-1.9s2,0.9,2,1.9S3,14.9,1.9,14.9z M1.9,11.7
		c-0.7,0-1.3,0.6-1.3,1.3s0.6,1.3,1.3,1.3s1.3-0.6,1.3-1.3S2.7,11.7,1.9,11.7z"/>
	<path class="st0" d="M11.1,4.3l0.5,0.3l-1.9,3L9.3,7.3L11.1,4.3z"/>
	<path class="st0" d="M9.5,10L9.4,9.4l4.7-0.7l0.1,0.6L9.5,10z"/>
	<path class="st0" d="M4.9,5.5l0.5-0.4l2.7,3.1L7.6,8.6L4.9,5.5z"/>
	<path class="st0" d="M3.6,12.5L3.3,12l3.3-1.7l0.3,0.5L3.6,12.5z"/>
	<path class="st0" d="M9.6,14.3H9.1L9,11.5h0.5L9.6,14.3z"/>
</g>
</svg>
