<?xml version="1.0" encoding="utf-8"?>
<!-- Generator: Adobe Illustrator 19.0.0, SVG Export Plug-In . SVG Version: 6.00 Build 0)  -->
<svg version="1.1" id="图层_1" xmlns="http://www.w3.org/2000/svg" xmlns:xlink="http://www.w3.org/1999/xlink" x="0px" y="0px"
	 viewBox="0 0 24 24" style="enable-background:new 0 0 24 24;" xml:space="preserve">
<style type="text/css">
	.st0{fill:#FFFFFF;}
</style>
<path id="XMLID_1_" class="st0" d="M8.7,15.9c0.7,0.8,1.1,1.9,1.1,3l0,0.2h9c0.4-1,1.3-1.6,2.4-1.6c1.4,0,2.5,1.1,2.5,2.6
	c0,1.4-1.1,2.6-2.5,2.6c-1,0-2-0.6-2.4-1.6H9.4c-0.8,1.7-2.4,2.7-4.3,2.7c-0.8,0-1.5-0.2-2.1-0.5H2.8v-0.1c-1.5-0.9-2.4-2.5-2.4-4.2
	c0-1.8,1-3.4,2.4-4.2V5.9C1.7,5.4,1,4.4,1,3.2c0-1.6,1.3-2.9,2.9-2.9c1.6,0,2.9,1.3,2.9,2.9c0,1.3-0.9,2.4-2.1,2.8v8
	c0.9-0.1,1.9,0.1,2.7,0.6l8.9-8c-0.3-0.6-0.5-1.3-0.5-1.9c0-2.1,1.6-3.7,3.6-3.7C21.5,1,23,2.7,23,4.7c0,2.1-1.6,3.7-3.6,3.7
	c-0.7,0-1.3-0.2-1.9-0.5L8.7,15.9z"/>
</svg>
