<svg xmlns="http://www.w3.org/2000/svg" xmlns:xlink="http://www.w3.org/1999/xlink" preserveAspectRatio="xMidYMid" width="26" height="26" viewBox="0 0 26 26">
  <defs>
    <style>
      .cls-1 {
        fill: #fff;
        fill-rule: evenodd;
      }
    </style>
  </defs>
  <path d="M21.340,9.498 C19.578,9.498 18.046,8.502 17.254,7.033 L11.369,9.840 C11.624,10.511 11.769,11.238 11.769,12.001 C11.769,12.659 11.661,13.292 11.469,13.885 L17.312,16.862 C18.121,15.452 19.619,14.501 21.338,14.501 C23.913,14.501 26.001,16.628 26.001,19.250 C26.001,21.873 23.913,24.000 21.338,24.000 C18.763,24.000 16.675,21.873 16.675,19.250 C16.675,18.749 16.753,18.267 16.894,17.813 L11.066,14.845 C10.072,16.722 8.125,17.998 5.885,17.998 C2.635,17.998 -0.000,15.313 -0.000,12.001 C-0.000,8.688 2.635,6.004 5.885,6.004 C8.036,6.004 9.913,7.184 10.939,8.941 L16.876,6.109 C16.749,5.678 16.679,5.221 16.679,4.748 C16.679,2.126 18.766,-0.001 21.340,-0.001 C23.913,-0.001 26.000,2.126 26.000,4.748 C26.000,7.372 23.913,9.498 21.340,9.498 Z" transform="translate(0 1)" class="cls-1"/>
</svg>
