<?xml version="1.0" encoding="UTF-8"?><svg version="1.1" viewBox="0 0 24 24" xmlns="http://www.w3.org/2000/svg" xmlns:xlink="http://www.w3.org/1999/xlink"><!--Generated by IJSVG (https://github.com/curthard89/IJSVG)--><g fill="#fff"><path d="M7,9.75c-0.69,0 -1.25,0.56 -1.25,1.25c0,0.69 0.56,1.25 1.25,1.25c0.69,0 1.25,-0.56 1.25,-1.25c0,-0.69 -0.56,-1.25 -1.25,-1.25Zm6,0c-0.69,0 -1.25,0.56 -1.25,1.25c0,0.69 0.56,1.25 1.25,1.25c0.69,0 1.25,-0.56 1.25,-1.25c0,-0.69 -0.56,-1.25 -1.25,-1.25Zm-3,-9.75c-5.52,0 -10,4.48 -10,10c0,5.52 4.48,10 10,10c5.52,0 10,-4.48 10,-10c0,-5.52 -4.48,-10 -10,-10Zm0,18c-4.41,0 -8,-3.59 -8,-8c0,-0.29 0.02,-0.58 0.05,-0.86c2.36,-1.05 4.23,-2.98 5.21,-5.37c1.81,2.56 4.79,4.23 8.16,4.23c0.78,0 1.53,-0.09 2.25,-0.26c0.21,0.71 0.33,1.47 0.33,2.26c0,4.41 -3.59,8 -8,8Z" transform="translate(2, 2)"></path><path fill="none" d="M0,0h24v24h-24Z"></path></g></svg>