<?xml version="1.0" encoding="utf-8"?>
<!-- Generator: Adobe Illustrator 19.0.0, SVG Export Plug-In . SVG Version: 6.00 Build 0)  -->
<svg version="1.1" id="图层_1" xmlns="http://www.w3.org/2000/svg" xmlns:xlink="http://www.w3.org/1999/xlink" x="0px" y="0px"
	 viewBox="0 0 24 24" style="enable-background:new 0 0 24 24;" xml:space="preserve">
<style type="text/css">
	.st0{fill:#FFFFFF;}
</style>
<path id="XMLID_8_" class="st0" d="M22.1,20.5h-1.5v-1.3H3.6v1.3H2.1v1.2H1V23h22.1v-1.3h-1.1L22.1,20.5z M7.3,18.1v-6.4H8v-0.8
	C8,10.4,7.6,10,7.1,10H3.8c-0.5,0-0.9,0.4-0.9,0.9v0.8h0.8v6.4L7.3,18.1L7.3,18.1z M20.5,18.1v-6.4h0.8v-0.8c0-0.5-0.4-0.9-0.9-0.9
	h-3.3c-0.5,0-0.9,0.4-0.9,0.9v0.8H17v6.4L20.5,18.1L20.5,18.1z M13.9,18.1v-6.4h0.8v-0.8c0-0.5-0.4-0.9-0.9-0.9h-3.3
	c-0.5,0-0.9,0.4-0.9,0.9v0.8h0.7v6.4L13.9,18.1L13.9,18.1z M12.9,1.2c-0.5-0.3-1.2-0.3-1.7,0L1.3,6.7c-0.6,0.3-1,1-1,1.7V9h23.4V8.4
	c0-0.7-0.4-1.4-1-1.7L12.9,1.2z M8.3,6.4c-0.1,0-0.2-0.1-0.2-0.2c0-0.1,0-0.2,0.1-0.2l3-1.6c0.5-0.3,1.2-0.3,1.7,0l3,1.6
	c0.1,0,0.1,0.1,0.1,0.2c0,0.1-0.1,0.2-0.2,0.2H8.3L8.3,6.4z"/>
</svg>
