<?xml version="1.0" encoding="utf-8"?>
<!-- Generator: Adobe Illustrator 21.0.0, SVG Export Plug-In . SVG Version: 6.00 Build 0)  -->
<svg version="1.1" id="图层_1" xmlns="http://www.w3.org/2000/svg" xmlns:xlink="http://www.w3.org/1999/xlink" x="0px" y="0px"
	 viewBox="0 0 24 24" style="enable-background:new 0 0 24 24;" xml:space="preserve">
<style type="text/css">
	.st0{fill:#FFFFFF;}
</style>
<path class="st0" d="M18.3,2.1c0,0-0.7-0.7-1.4,0L2.5,16.5l-0.4,0.4l4,4l0.6,0.6l0.3,0.3l0.7-0.7l0,0L19,9.9l0,0l0.7-0.7l0,0
	l2.1-2.1c0.7-0.7,0-1.4,0-1.4L18.3,2.1z M7.1,20.4l-3.5-3.5L14.8,5.6l3.5,3.5L7.1,20.4L7.1,20.4z M19,8.5l-3.5-3.5l2.1-2.1l3.5,3.5
	L19,8.5L19,8.5z"/>
<path class="st0" d="M2.6,20.9l0.6-3l-1.1-1.1l-0.9,5.4c0,0.3,0.2,0.5,0.5,0.5l5.4-0.9l-0.3-0.3l-0.6-0.6l-3.1,0.5
	C2.8,21.5,2.5,21.2,2.6,20.9z M16.8,23.1c-0.3,0-0.7-0.1-0.9-0.4L1.3,7.2C1.1,7,1,6.7,1,6.3C1,6,1.1,5.7,1.4,5.5l4.3-4
	C6.2,1,7,1,7.4,1.5L22,17c0.2,0.2,0.3,0.6,0.3,0.9c0,0.3-0.1,0.6-0.4,0.9l-4.3,4C17.4,23,17.1,23.1,16.8,23.1z M6.6,2.3l-4.4,4
	l14.5,15.6l4.4-4c0,0,0-0.1,0-0.1L6.6,2.3z"/>
</svg>
