<?xml version="1.0" encoding="utf-8"?>
<!-- Generator: Adobe Illustrator 21.0.0, SVG Export Plug-In . SVG Version: 6.00 Build 0)  -->
<svg version="1.1" id="图层_1" xmlns="http://www.w3.org/2000/svg" xmlns:xlink="http://www.w3.org/1999/xlink" x="0px" y="0px"
	 viewBox="0 0 24 24" style="enable-background:new 0 0 24 24;" xml:space="preserve">
<style type="text/css">
	.st0{fill:#FFFFFF;}
</style>
<path class="st0" d="M6.7,22.1H3.4c-0.2,0-0.4-0.2-0.4-0.4V2c0-0.2,0.2-0.4,0.4-0.4h16.8c0.2,0,0.4,0.2,0.4,0.4v10.6l1.5,0.6V2
	c0-1-0.8-1.8-1.8-1.8H3.4C2.4,0.2,1.6,1,1.6,2v19.7c0,1,0.8,1.8,1.8,1.8h3.3L6.7,22.1L6.7,22.1z M18.6,10.7c0-1.9-1.5-3.4-3.4-3.4
	c-1.9,0-3.4,1.5-3.4,3.4c0,1.9,1.5,3.4,3.4,3.4C17,14.2,18.6,12.6,18.6,10.7L18.6,10.7z M19.7,15.3h-0.6l-3.6,7.3l1.3-6.7l-1.7-1.7
	l-1.7,1.7l1.3,6.7l-3.6-7.3h-0.6c-2.3,0-2.3,1.5-2.3,3.4v4.8H22v-4.8C22,16.9,22,15.3,19.7,15.3z M5.3,4h12.8v1.4H5.3V4z M5.3,7.5
	h4.4v1.4H5.3C5.3,8.9,5.3,7.5,5.3,7.5z M5.3,11.2h4.9v1.4H5.3C5.3,12.5,5.3,11.2,5.3,11.2z"/>
</svg>
