<?xml version="1.0" encoding="utf-8"?>
<!-- Generator: Adobe Illustrator 19.0.0, SVG Export Plug-In . SVG Version: 6.00 Build 0)  -->
<svg version="1.1" id="图层_1" xmlns="http://www.w3.org/2000/svg" xmlns:xlink="http://www.w3.org/1999/xlink" x="0px" y="0px"
	 viewBox="0 0 24 24" style="enable-background:new 0 0 24 24;" xml:space="preserve">
<style type="text/css">
	.st0{fill:#fff;}
	.st1{font-family:'STHeitiSC-Medium';}
	.st2{font-size:7.7534px;}
</style>
<g>
	<path id="XMLID_3_" class="st0" d="M1.3,14.1c-0.5-0.7-0.8-1.2-1.2-1.8C4,8.4,7.9,4.6,11.8,0.7c3.9,3.7,8,7.6,12.1,11.5
		c-0.6,0.4-1.2,0.8-1.8,1.2c-3.5-3.3-6.9-6.6-10.4-9.8C8.3,7.1,4.8,10.5,1.3,14.1z"/>
	<path id="XMLID_2_" class="st0" d="M18.6,15.2c0.7,0,1.2,0,1.8,0c0,0.9,0,1.7,0,2.6c0,1.2,0,2.4,0,3.6c0,1.2-0.7,1.9-1.9,1.9
		c-4.4,0-8.7,0-13.1,0c-1,0-1.8-0.6-1.9-1.6c0-2.2,0-4.3,0-6.6c0.6,0,1.1,0,1.7,0c0,2.1,0,4.2,0,6.3c4.5,0,8.9,0,13.3,0
		C18.6,19.4,18.6,17.3,18.6,15.2z"/>
	<text id="XMLID_1_" transform="matrix(1 0 0 1 8.006 16.4)" class="st0 st1 st2">过</text>
</g>
</svg>
