<?xml version="1.0" encoding="utf-8"?>
<!-- Generator: Adobe Illustrator 19.0.0, SVG Export Plug-In . SVG Version: 6.00 Build 0)  -->
<svg version="1.1" id="图层_1" xmlns="http://www.w3.org/2000/svg" xmlns:xlink="http://www.w3.org/1999/xlink" x="0px" y="0px"
	 viewBox="0 0 24 24" style="enable-background:new 0 0 24 24;" xml:space="preserve">
<style type="text/css">
	.st0{fill:#FFFFFF;}
</style>
<g id="XMLID_8_">
	<path id="XMLID_6_" class="st0" d="M11.7,9.8l-1.5,1.3c0.4,0.3,0.7,0.4,0.9,0.4c0.3,0,0.5-0.1,0.7-0.3c0.1-0.1,0.1-0.2,0.2-0.3
		c0-0.1,0-0.2,0-0.3c0-0.1,0-0.2-0.1-0.4C11.9,10.2,11.8,10,11.7,9.8z"/>
	<path id="XMLID_5_" class="st0" d="M12.1,7.2c-0.2,0.2-0.2,0.4-0.2,0.6c0,0.2,0.1,0.5,0.2,0.8l1.5-1.2C13.2,7.1,12.9,7,12.7,7
		C12.4,7,12.2,7.1,12.1,7.2z"/>
	<path id="XMLID_4_" class="st0" d="M15.1,23.7c0,0.2-0.1,0.3-0.3,0.3H7.6c-0.2,0-0.3-0.1-0.3-0.3v-1.8c0-0.2,0.1-0.3,0.3-0.3h7.2
		c0.2,0,0.3,0.1,0.3,0.3V23.7z"/>
	<path id="XMLID_3_" class="st0" d="M18.3,15.4l-2-3.7c-0.4-0.8-1.3-1.1-2-0.8c-0.7,0.4-0.8,1.3-0.4,2.1l1.5,2.7l-3.3,3.1
		c-0.7,0.6-1.8,0.8-2.8-0.1l-2.1-2.2v3.7c0,0.4,0.3,0.7,0.7,0.7h6.6c0.4,0,0.7-0.4,0.7-0.4l3-3.4l0,0C18.6,16.7,18.7,16,18.3,15.4z"
		/>
	<path id="XMLID_9_" class="st0" d="M20.6,6.6l-6-6c-0.8-0.8-2.1-0.8-2.9,0L3.4,9c-0.8,0.8-0.8,2.1,0,2.9l6,6
		c0.4,0.4,0.9,0.6,1.4,0.6c0.6,0,1.1-0.2,1.5-0.6l2.5-2.5c0,0-1.3-2.2-1.4-2.9c-0.1-0.8,0-1.4,0.6-1.8c1.1-0.7,2.1-0.1,2.7,0.7
		c0.2,0.3,0.8,1.4,0.8,1.4l3.2-3.3c0.4-0.4,0.6-0.9,0.6-1.5C21.2,7.5,21,7,20.6,6.6z M15,7.8c0.1,0.1,0.2,0.3,0.3,0.4l-0.5,0.6
		c-0.1-0.2-0.2-0.3-0.3-0.5c-0.1-0.1-0.2-0.3-0.3-0.4l-1.7,1.4c0.1,0.2,0.2,0.4,0.3,0.7c0.1,0.2,0.2,0.4,0.2,0.7c0,0.2,0,0.4,0,0.7
		c-0.1,0.2-0.2,0.4-0.3,0.6c-0.2,0.2-0.4,0.4-0.6,0.4c-0.2,0.1-0.5,0.1-0.7,0.1c-0.3,0-0.5-0.1-0.8-0.2c-0.3-0.1-0.5-0.3-0.8-0.5
		l-0.9,0.8l-0.5-0.5L9,11.2c-0.2-0.2-0.4-0.4-0.5-0.6c-0.2-0.2-0.3-0.4-0.4-0.5l0.6-0.6C8.8,9.6,8.9,9.8,9.1,10
		c0.1,0.2,0.3,0.4,0.5,0.6l1.8-1.5c-0.1-0.2-0.2-0.4-0.3-0.6C11,8.3,11,8.1,10.9,7.9c0-0.2,0-0.4,0-0.6s0.2-0.4,0.3-0.6
		c0.1-0.2,0.3-0.3,0.5-0.4c0.2-0.1,0.4-0.1,0.7-0.1c0.2,0,0.5,0.1,0.8,0.2c0.3,0.1,0.6,0.3,0.9,0.5l0.7-0.6l0.5,0.5l-0.8,0.6
		C14.8,7.5,14.9,7.7,15,7.8z"/>
</g>
</svg>
