<svg xmlns="http://www.w3.org/2000/svg" xmlns:xlink="http://www.w3.org/1999/xlink" preserveAspectRatio="xMidYMid" width="26" height="26" viewBox="0 0 26 26">
  <defs>
    <style>
      .cls-1 {
        fill: #fff;
        fill-rule: evenodd;
      }
    </style>
  </defs>
  <path d="M16.918,26.001 C15.564,26.001 14.316,25.569 13.306,24.848 C12.160,24.976 10.888,25.053 9.525,25.026 C9.525,25.026 4.017,24.760 0.504,23.248 C0.504,23.248 0.007,23.135 -0.010,22.026 C-0.010,22.026 0.168,17.171 1.696,14.993 C1.696,14.993 2.132,14.418 3.165,14.037 C3.165,14.037 6.697,13.003 6.937,12.124 C6.937,12.124 9.542,18.624 12.976,12.105 C12.976,12.105 12.988,12.697 14.735,13.291 C14.735,13.291 16.105,13.708 17.219,14.313 C20.433,14.465 22.994,17.014 22.994,20.148 C22.994,23.381 20.273,26.001 16.918,26.001 ZM18.485,15.331 C17.990,15.182 17.464,15.101 16.918,15.101 C14.027,15.101 11.677,17.365 11.677,20.148 C11.677,22.131 12.872,23.843 14.600,24.669 C15.299,25.001 16.085,25.196 16.918,25.196 C19.807,25.196 22.159,22.930 22.159,20.148 C22.159,17.892 20.612,15.977 18.485,15.331 ZM16.238,23.430 C16.108,23.549 15.905,23.549 15.779,23.430 L12.907,20.645 C12.782,20.524 12.782,20.327 12.907,20.205 L13.594,19.545 C13.721,19.424 13.924,19.424 14.050,19.545 L16.010,21.443 L19.813,17.781 C19.940,17.660 20.145,17.660 20.272,17.781 L20.958,18.442 C21.085,18.564 21.085,18.761 20.958,18.884 L16.238,23.430 ZM14.359,7.990 C14.291,8.404 14.114,8.584 14.002,8.662 C13.713,10.648 11.855,12.929 9.904,12.929 C8.204,12.929 6.334,10.759 6.069,8.662 C5.960,8.584 5.778,8.404 5.712,7.990 C5.712,7.990 5.262,6.437 5.921,6.735 C5.457,4.375 5.810,3.571 5.810,3.571 C6.404,1.792 8.455,1.021 8.455,1.021 C8.455,1.021 8.792,0.896 8.989,0.923 C9.185,0.949 9.254,1.043 9.254,1.043 L9.246,1.069 C9.362,0.658 9.717,0.429 9.866,0.346 C10.065,0.114 10.280,0.008 10.280,0.008 C10.076,0.177 9.951,0.382 9.874,0.603 C10.066,0.334 10.391,0.189 10.391,0.189 C10.391,0.663 10.914,1.089 11.171,1.271 L11.829,1.488 C13.238,1.893 13.815,2.654 13.815,2.654 C15.053,3.994 14.416,6.152 14.223,6.707 C14.775,6.551 14.359,7.990 14.359,7.990 Z" transform="translate(1.5)" class="cls-1"/>
</svg>
