<?xml version="1.0" encoding="utf-8"?>
<!-- Generator: Adobe Illustrator 19.0.0, SVG Export Plug-In . SVG Version: 6.00 Build 0)  -->
<svg version="1.1" id="图层_1" xmlns="http://www.w3.org/2000/svg" xmlns:xlink="http://www.w3.org/1999/xlink" x="0px" y="0px"
	 viewBox="0 0 26 26" style="enable-background:new 0 0 26 26;" xml:space="preserve">
<style type="text/css">
	.st0{fill:#FFFFFF;}
</style>
<path id="XMLID_15_" class="st0" d="M14.2,24.8c-0.4,0-0.8-0.1-1.2-0.1c-0.3,0-0.6,0.2-0.7,0.5c0,0.3,0.2,0.6,0.5,0.7
	c0.4,0.1,0.8,0.1,1.3,0.1c0,0,0,0,0,0c0.3,0,0.6-0.2,0.6-0.6C14.8,25.1,14.5,24.8,14.2,24.8z M19,13c0.1,0.1,0.2,0.1,0.3,0.1
	c0.2,0,0.4-0.1,0.5-0.3c0.2-0.3,0.4-0.6,0.7-0.9c0.2-0.2,0.2-0.6-0.1-0.8c-0.3-0.2-0.6-0.2-0.8,0.1c-0.3,0.4-0.6,0.7-0.8,1.1
	C18.7,12.5,18.7,12.8,19,13z M10.7,24.2c-0.4-0.1-0.7-0.3-1-0.5c-0.3-0.2-0.6-0.1-0.8,0.2c-0.2,0.3-0.1,0.6,0.2,0.8
	c0.4,0.2,0.8,0.4,1.2,0.6c0.1,0,0.1,0,0.2,0c0.2,0,0.5-0.1,0.6-0.4C11.2,24.6,11,24.3,10.7,24.2z M8.3,21.9c0-0.3-0.3-0.6-0.6-0.6
	c-0.3,0-0.6,0.3-0.6,0.6c0,0.1,0,0.4,0.2,0.8C7.3,22.9,7.6,23,7.8,23c0.1,0,0.1,0,0.2,0c0.3-0.1,0.5-0.5,0.3-0.8
	C8.3,22,8.3,21.9,8.3,21.9z M22.4,8.6c-0.3,0.2-0.7,0.5-1,0.8c-0.3,0.2-0.3,0.6-0.1,0.8c0.1,0.1,0.3,0.2,0.5,0.2
	c0.1,0,0.3,0,0.4-0.1c0.3-0.3,0.6-0.5,0.9-0.7c0.3-0.2,0.3-0.6,0.1-0.8C23.1,8.4,22.7,8.4,22.4,8.6z M22.5,20.3
	c-0.3,0.1-0.5,0.4-0.5,0.7c0,0.2,0.1,0.4,0.1,0.6c0,0.1,0,0.3,0,0.4c-0.1,0.3,0.1,0.6,0.5,0.7c0,0,0.1,0,0.1,0
	c0.3,0,0.5-0.2,0.6-0.5c0-0.2,0.1-0.4,0.1-0.7c0-0.3,0-0.5-0.1-0.8C23.2,20.5,22.8,20.3,22.5,20.3z M25.9,7.1
	c-0.1-0.3-0.5-0.4-0.8-0.3c0,0-0.2,0.1-0.5,0.3c-0.3,0.2-0.4,0.5-0.2,0.8c0.1,0.2,0.3,0.3,0.5,0.3c0.1,0,0.2,0,0.3-0.1
	c0.3-0.2,0.5-0.3,0.5-0.3C26,7.8,26.1,7.4,25.9,7.1z M22,18.4c-0.2-0.3-0.5-0.7-0.9-1c-0.2-0.2-0.6-0.2-0.8,0
	c-0.2,0.2-0.2,0.6,0,0.8c0.3,0.3,0.5,0.6,0.8,0.9c0.1,0.2,0.3,0.2,0.5,0.2c0.1,0,0.3,0,0.4-0.1C22.2,19,22.2,18.6,22,18.4z
	 M17.8,24.7c-0.4,0.1-0.8,0.1-1.2,0.1c-0.3,0-0.6,0.3-0.6,0.6c0,0.3,0.3,0.6,0.6,0.6c0,0,0,0,0,0c0.4,0,0.9-0.1,1.3-0.1
	c0.3,0,0.5-0.3,0.5-0.7C18.4,24.9,18.1,24.6,17.8,24.7z M21,23.6c-0.3,0.2-0.6,0.4-1,0.5c-0.3,0.1-0.4,0.5-0.3,0.8
	c0.1,0.2,0.3,0.4,0.5,0.4c0.1,0,0.2,0,0.2,0c0.4-0.2,0.8-0.4,1.2-0.6c0.3-0.2,0.3-0.6,0.1-0.8C21.6,23.5,21.2,23.4,21,23.6z
	 M19.6,15.7c-0.2-0.3-0.3-0.6-0.3-0.9c0-0.3-0.3-0.6-0.7-0.5c-0.3,0-0.6,0.3-0.5,0.7c0.1,0.5,0.2,0.9,0.5,1.4
	c0.1,0.2,0.3,0.3,0.5,0.3c0.1,0,0.2,0,0.3-0.1C19.7,16.3,19.8,16,19.6,15.7z M7.7,0C3.5,0,0,3.5,0,7.7C0,14,7.7,20.1,7.7,20.1
	s7.7-6.1,7.7-12.4C15.4,3.5,11.9,0,7.7,0z M7.7,10.6c-1.6,0-3-1.3-3-3s1.3-3,3-3c1.6,0,3,1.3,3,3S9.3,10.6,7.7,10.6z"/>
</svg>
