<?xml version="1.0" encoding="utf-8"?>
<!-- Generator: Adobe Illustrator 19.0.0, SVG Export Plug-In . SVG Version: 6.00 Build 0)  -->
<svg version="1.1" id="图层_1" xmlns="http://www.w3.org/2000/svg" xmlns:xlink="http://www.w3.org/1999/xlink" x="0px" y="0px"
	 viewBox="0 0 24 24" style="enable-background:new 0 0 24 24;" xml:space="preserve">
<style type="text/css">
	.st0{fill:#FFFFFF;}
</style>
<path id="XMLID_7_" class="st0" d="M20.7,6.3l-5.5-5.4C14.7,0.4,14,0,13.3-0.1l-9.5,0c-1.9,0-2.6,0.7-2.6,2.6v19.2
	c0.1,1.7,0.9,2.4,2.6,2.4H19c1.9,0,2.6-0.7,2.6-2.6V8.1l0-0.1C21.5,7.3,21.2,6.7,20.7,6.3L20.7,6.3z M19.1,7.1h-3.7
	c-0.6,0-1.2-0.5-1.2-1.2V2.3L19.1,7.1L19.1,7.1z M19,22.6H3.8c-0.6,0-1.1-0.5-1.1-1.1v-19c0-0.6,0.5-1.1,1.1-1.1h9V6
	c0,1.8,0.8,2.6,2.7,2.6h4.7v13C20.2,22.1,19.7,22.6,19,22.6L19,22.6z"/>
<path id="XMLID_9_" class="st0" d="M16.3,17.5c-0.6,0.8-2.6,1.4-4.9,1.4c-2.3,0-4.3-0.6-4.9-1.4c-0.1-0.2-0.2-0.1-0.2,0v1.2
	c0,1.2,2.3,2.4,5.1,2.4s5.1-1.2,5.1-2.4v-1.2C16.5,17.4,16.4,17.3,16.3,17.5L16.3,17.5z M16.3,13.8c-0.6,0.8-2.6,1.3-4.9,1.3
	s-4.3-0.6-4.9-1.3c-0.1-0.2-0.2-0.1-0.2,0v1.5c0,1.1,2.3,2,5.1,2s5.1-0.9,5.1-2v-1.5C16.5,13.8,16.4,13.7,16.3,13.8L16.3,13.8z
	 M11.4,9.4c-2.8,0-5.1,0.8-5.1,1.7v0.8c0,1,2.3,1.8,5.1,1.8s5.1-0.8,5.1-1.8v-0.8C16.5,10.2,14.2,9.4,11.4,9.4L11.4,9.4z"/>
</svg>
