<?xml version="1.0" encoding="utf-8"?>
<!-- Generator: Adobe Illustrator 19.0.0, SVG Export Plug-In . SVG Version: 6.00 Build 0)  -->
<svg version="1.1" id="图层_1" xmlns="http://www.w3.org/2000/svg" xmlns:xlink="http://www.w3.org/1999/xlink" x="0px" y="0px"
	 viewBox="0 0 24 24" style="enable-background:new 0 0 24 24;" xml:space="preserve">
<style type="text/css">
	.st0{fill:#FFFFFF;}
</style>
<g id="XMLID_8_">
	<path id="XMLID_14_" class="st0" d="M7.8,8.3L4.5,7l3.5-1.2L5.7,5L0,7l5.5,2L7.8,8.3z M9.4,5.2L12,4.3L15,5.4l2.3-0.8L12,2.7
		L7.2,4.5L9.4,5.2z M16.5,5.9L19.5,7l-3.1,1.1L18.7,9L24,7l-5.2-1.9L16.5,5.9z M14.6,8.8l-2.6,1l-2.8-1L6.9,9.5l5,1.8l4.9-1.8
		L14.6,8.8z"/>
	<path id="XMLID_3_" class="st0" d="M0,8.3v2.1l11.8,4.3L24,10.4V8.3l-12.1,4.3L0,8.3z"/>
	<path id="XMLID_2_" class="st0" d="M0,11.6v2.1L11.9,18L24,13.7v-2.1L11.9,16L0,11.6z"/>
	<path id="XMLID_1_" class="st0" d="M0,14.9V17l11.8,4.3L24,17v-2.1l-12.1,4.3L0,14.9z"/>
</g>
</svg>
