<?xml version="1.0" encoding="utf-8"?>
<!-- Generator: Adobe Illustrator 19.0.0, SVG Export Plug-In . SVG Version: 6.00 Build 0)  -->
<svg version="1.1" id="图层_1" xmlns="http://www.w3.org/2000/svg" xmlns:xlink="http://www.w3.org/1999/xlink" x="0px" y="0px"
	 viewBox="0 0 24 24" style="enable-background:new 0 0 24 24;" xml:space="preserve">
<style type="text/css">
	.st0{fill:#FFFFFF;}
</style>
<path id="XMLID_10_" class="st0" d="M9.4,3v7.9H1.6V3H9.4 M9.4,1.4H1.6C0.8,1.4,0,2.2,0,3v7.9c0,0.9,0.6,1.6,1.6,1.6h7.9
	c0.9,0,1.6-0.6,1.6-1.6V3C11,2.2,10.4,1.4,9.4,1.4z M22.2,3v6.3h-7.7V3H22.2 M22.2,1.4h-7.7c-0.9,0-1.6,0.6-1.6,1.6v6.3
	c0,0.9,0.6,1.6,1.6,1.6h7.7c0.9,0,1.6-0.6,1.6-1.6V3C23.8,2,23.2,1.4,22.2,1.4z M9.4,15.6v6.3H1.7v-6.3H9.4 M9.4,14H1.7
	c-0.9,0-1.6,0.6-1.6,1.6v6.3c0,0.9,0.6,1.6,1.6,1.6h7.7c0.9,0,1.6-0.6,1.6-1.6v-6.3C10.9,14.6,10.3,14,9.4,14z M22.3,14v7.9h-7.9V14
	L22.3,14 M22.3,12.4h-7.9c-0.8,0-1.6,0.8-1.6,1.6v7.9c0,0.9,0.6,1.6,1.6,1.6h7.9c0.9,0,1.6-0.6,1.6-1.6V14
	C23.9,13.2,23.3,12.4,22.3,12.4z"/>
</svg>
