<?xml version="1.0" encoding="utf-8"?>
<!-- Generator: Adobe Illustrator 19.0.0, SVG Export Plug-In . SVG Version: 6.00 Build 0)  -->
<svg version="1.1" id="图层_1" xmlns="http://www.w3.org/2000/svg" xmlns:xlink="http://www.w3.org/1999/xlink" x="0px" y="0px"
	 viewBox="0 0 24 24" style="enable-background:new 0 0 24 24;" xml:space="preserve">
<style type="text/css">
	.st0{fill:#fff;}
</style>
<g id="XMLID_7_">
	<path class="st0" d="M23.3,17.4v-2.8c0-0.2,0-0.2-0.2-0.4c-1.7-0.9-3.4-1.9-4.9-2.8c-0.2-0.2-0.2,0-0.4,0c-1.7,0.9-3.4,2.1-5.1,3
		c-0.2,0.2-0.2,0.2-0.2,0.4v5.6c0,0.2,0,0.4,0.2,0.4c1.7,0.9,3.4,1.9,5.1,3h0.4c1.5-1.1,3.2-2.1,4.9-3c0-0.2,0.2-0.2,0.2-0.4
		L23.3,17.4 M0.7,17v3c0,0.2,0,0.2,0.2,0.4c1.7,0.9,3.2,1.9,4.9,3h0.4c1.7-0.9,3.2-1.9,4.9-3c0.2,0,0.2-0.2,0.2-0.4v-5.8
		c0-0.2,0-0.2-0.2-0.4c-1.7-0.9-3.2-1.9-4.9-3H5.8c-1.7,0.9-3.2,1.9-4.9,2.8c-0.2,0-0.2,0.2-0.2,0.4L0.7,17 M6.9,6.6v2.8
		c0,0.2,0,0.4,0.2,0.4c1.7,0.9,3.2,1.9,4.9,2.8h0.4c1.9-0.9,3.6-1.9,5.3-2.8c0.2,0,0.2-0.2,0.2-0.4V3.6c0-0.2,0-0.2-0.2-0.4
		c-1.7-0.9-3.4-1.9-5.1-3h-0.4c-1.7,0.9-3.4,1.9-5.1,3c-0.2,0-0.2,0.2-0.2,0.4L6.9,6.6"/>
	<path id="XMLID_3_" class="st0" d="M9.2,6.8c0,1.7,1.3,3,3,3s3-1.3,3-3c0-1.7-1.3-3-3-3C10.5,3.8,9.2,5.2,9.2,6.8
		C9.2,6.8,9.2,6.8,9.2,6.8z"/>
	<path id="XMLID_2_" class="st0" d="M2.8,17.4c0,1.7,1.3,3,3,3c1.7,0,3-1.3,3-3c0,0,0,0,0,0c0-1.7-1.3-3-3-3
		C4.1,14.3,2.8,15.7,2.8,17.4C2.8,17.4,2.8,17.4,2.8,17.4z"/>
	<path id="XMLID_1_" class="st0" d="M15.2,17.4c0,1.7,1.3,3,3,3c1.7,0,3-1.3,3-3c0,0,0,0,0,0c0-1.7-1.3-3-3-3
		C16.5,14.3,15.2,15.7,15.2,17.4C15.2,17.4,15.2,17.4,15.2,17.4z"/>
</g>
</svg>
