<?xml version="1.0" encoding="utf-8"?>
<!-- Generator: Adobe Illustrator 19.0.0, SVG Export Plug-In . SVG Version: 6.00 Build 0)  -->
<svg version="1.1" id="图层_1" xmlns="http://www.w3.org/2000/svg" xmlns:xlink="http://www.w3.org/1999/xlink" x="0px" y="0px"
	 viewBox="0 0 26 26" style="enable-background:new 0 0 26 26;" xml:space="preserve">
<style type="text/css">
	.st0{fill:#FFFFFF;}
</style>
<g id="XMLID_7_">
	<path id="XMLID_6_" class="st0" d="M18.7,13.5"/>
	<path id="XMLID_12_" class="st0" d="M6.3,6.6C2.8,6.6,0,9.4,0,13c0,3.2,4.5,8,5.4,9c0.9,1,0.9,1,1.8,0c0.9-1,5.4-5.9,5.4-9
		C12.6,9.4,9.8,6.6,6.3,6.6z M6.2,16.1c-1.7,0-3.1-1.4-3.1-3.1c0-1.7,1.4-3.1,3.1-3.1s3.1,1.4,3.1,3.1C9.3,14.7,7.9,16.1,6.2,16.1z"
		/>
	<path id="XMLID_9_" class="st0" d="M19.4,12.5c0.6-0.7,3.8-4.2,3.8-6.4c0-2.5-2-4.5-4.5-4.5s-4.5,2-4.5,4.5c0,2.2,3.2,5.7,3.8,6.4
		C18.7,13.2,18.7,13.2,19.4,12.5z M16.5,6.1c0-1.2,1-2.2,2.2-2.2c1.2,0,2.2,1,2.2,2.2c0,1.2-1,2.2-2.2,2.2
		C17.5,8.3,16.5,7.3,16.5,6.1z"/>
	<path id="XMLID_1_" class="st0" d="M25.7,18c-0.5-0.9-1.4-1.7-2.8-2.4c-1.2-0.6-2.5-0.9-3.2-1c-0.1,0-0.2,0-0.2,0
		c-0.5-0.1-0.7-0.2-0.8-0.3c-0.1-0.2-0.3-0.3-0.5-0.3h-0.1c-0.5,0-0.8,0.6-0.6,1c0.1,0.2,0.3,0.4,0.5,0.5c0.4,0.2,0.8,0.3,1.2,0.4
		c0.1,0,0.1,0,0.2,0c0.6,0.1,1.8,0.4,2.9,0.9c1.1,0.5,1.8,1.1,2.1,1.7c0.3,0.5,0.2,1.1-0.1,1.8c0,0.1-0.1,0.2-0.1,0.2L23.9,21l0,0
		c-0.3,0.5-1.8,1.5-4,1.9c-1.3,0.2-2.8,0.2-4.3-0.1c-1.7-0.3-3.4-1-5.2-2c-0.3-0.2-0.7-0.1-0.9,0.3l0,0c-0.2,0.3-0.1,0.7,0.3,0.9
		c1.9,1,3.8,1.7,5.6,2.1c1,0.2,1.9,0.3,2.8,0.3c0.7,0,1.4-0.1,2-0.2c1.2-0.2,2.3-0.6,3.3-1.1c0.7-0.4,1.3-0.9,1.6-1.3l0.3-0.4
		c0.1-0.2,0.2-0.3,0.3-0.5C26.1,19.9,26.1,18.9,25.7,18z"/>
</g>
</svg>
