<?xml version="1.0" encoding="utf-8"?>
<!-- Generator: Adobe Illustrator 19.0.0, SVG Export Plug-In . SVG Version: 6.00 Build 0)  -->
<svg version="1.1" id="图层_1" xmlns="http://www.w3.org/2000/svg" xmlns:xlink="http://www.w3.org/1999/xlink" x="0px" y="0px"
	 viewBox="0 0 26 26" style="enable-background:new 0 0 26 26;" xml:space="preserve">
<style type="text/css">
	.st0{fill:#FFFFFF;}
</style>
<path class="st0" d="M18.7,5.4c0-1.1-0.8-1.9-1.9-1.9c-1.1,0-1.9,0.8-1.9,1.9s0.8,1.9,1.9,1.9C17.9,7.3,18.7,6.4,18.7,5.4z
	 M22.6,19.1H3.4c-1.1,0-1.9-0.8-1.9-1.9c0-1.1,0.8-1.9,1.9-1.9h13.4c0,0,5.9-4.7,5.9-9.3c0-3.4-2.7-6-5.9-6s-5.9,2.7-5.9,6
	c0,3,2.4,6,4.2,7.8H3.4C1.5,13.8,0,15.3,0,17.2c0,1.9,1.5,3.4,3.4,3.4c0,0,0,0,0,0h19.1c1.1,0,1.9,0.8,1.9,1.9
	c0,1.1-0.8,1.9-1.9,1.9H3.4V26h19.1c1.9,0,3.4-1.5,3.4-3.4C26,20.7,24.5,19.1,22.6,19.1z M12.5,6c0-2.4,1.9-4.5,4.4-4.5
	c2.4,0,4.4,2,4.4,4.5c0,2.6-2.6,5.7-4.4,7.3C15.1,11.6,12.5,8.6,12.5,6z"/>
</svg>
