<?xml version="1.0" encoding="utf-8"?>
<!-- Generator: Adobe Illustrator 19.0.0, SVG Export Plug-In . SVG Version: 6.00 Build 0)  -->
<svg version="1.1" id="图层_1" xmlns="http://www.w3.org/2000/svg" xmlns:xlink="http://www.w3.org/1999/xlink" x="0px" y="0px"
	 viewBox="0 0 24 24" style="enable-background:new 0 0 24 24;" xml:space="preserve">
<style type="text/css">
	.st0{fill:#FFFFFF;}
</style>
<path class="st0" d="M12,0.1c2.3,0,4.2,2.3,4.2,5.1v0h3.4l1.7,18.7H2.7L4.4,5.2h3.4v0C7.8,2.4,9.7,0.1,12,0.1 M12.1,11.9l-1.3,2.8
	l-3,0.4l2.2,2.1l-0.6,3l2.7-1.5l2.7,1.5l-0.6-3l2.2-2.1l-3-0.4L12.1,11.9z M16,7.1c-0.2,0.6-0.4,1.1-0.8,1.5c0.1,0,0.2,0.1,0.3,0.1
	c0.5,0,0.8-0.4,0.8-0.8C16.4,7.5,16.2,7.2,16,7.1 M8.8,8.6C8.5,8.2,8.2,7.7,8.1,7.1C7.9,7.3,7.8,7.5,7.8,7.8c0,0.5,0.4,0.8,0.8,0.8
	C8.7,8.6,8.8,8.6,8.8,8.6 M8.2,5.2H16c0-2.6-1.8-4.7-3.9-4.7C9.9,0.5,8.2,2.6,8.2,5.2 M8.6,6.9c-0.1,0-0.1,0-0.2,0
	c0.2,0.5,0.4,1,0.7,1.5C9.3,8.3,9.5,8,9.5,7.8C9.5,7.3,9.1,6.9,8.6,6.9 M15.5,6.9c-0.5,0-0.8,0.4-0.8,0.8c0,0.3,0.1,0.5,0.3,0.7
	C15.3,8,15.6,7.5,15.7,7C15.7,6.9,15.6,6.9,15.5,6.9"/>
</svg>
