<?xml version="1.0" encoding="utf-8"?>
<!-- Generator: Adobe Illustrator 21.0.0, SVG Export Plug-In . SVG Version: 6.00 Build 0)  -->
<svg version="1.1" id="图层_1" xmlns="http://www.w3.org/2000/svg" xmlns:xlink="http://www.w3.org/1999/xlink" x="0px" y="0px"
	 viewBox="0 0 24 24" style="enable-background:new 0 0 24 24;" xml:space="preserve">
<style type="text/css">
	.st0{fill:#FFFFFF;}
</style>
<path class="st0" d="M15.4,6.5L2.9,3.4c-0.5-0.1-1,0.3-1.1,0.8l-1.5,6.3c-0.1,0.6,0.1,1.2,0.6,1.3l11,2.7c0.2,0,0.4,0,0.5-0.2
	l3.6-6.2C16.3,7.4,16.1,6.7,15.4,6.5L15.4,6.5z M18.1,9.6l-2.1,5.2l3.1,4.9l4.4-10.8L18.1,9.6z M15.5,9.5l-2.4,4.6l2.4,0.6l2-4.7
	L15.5,9.5z M6.3,13.6l-3.3-0.7c-0.6-0.1-1.1,0.3-1.3,1c-0.2,0.7,0.2,1.3,0.7,1.5l1.2,0.3L3.4,17l-2.2,0.4c-0.2,0-0.4,0.3-0.4,0.6
	c0,0.3,0.2,0.5,0.5,0.4L3.6,18c0,0,0,0,0,0c0.2,0.1,0.5-0.1,0.5-0.4l0.4-1.8l1.2,0.3c0.6,0.1,1.1-0.3,1.3-1
	C7.2,14.4,6.9,13.7,6.3,13.6z"/>
</svg>
