<?xml version="1.0" encoding="UTF-8"?><svg version="1.1" viewBox="0 0 24 24" xmlns="http://www.w3.org/2000/svg" xmlns:xlink="http://www.w3.org/1999/xlink"><!--Generated by IJSVG (https://github.com/curthard89/IJSVG)--><g fill="none"><path d="M0,0h24v24h-24Z"></path><path fill="#fff" d="M8,0c-4.42,0 -8,0.5 -8,4v9.5c0,1.93 1.57,3.5 3.5,3.5l-1.5,1.5v0.5h12v-0.5l-1.5,-1.5c1.93,0 3.5,-1.57 3.5,-3.5v-9.5c0,-3.5 -3.58,-4 -8,-4Zm-4.5,15c-0.83,0 -1.5,-0.67 -1.5,-1.5c0,-0.83 0.67,-1.5 1.5,-1.5c0.83,0 1.5,0.67 1.5,1.5c0,0.83 -0.67,1.5 -1.5,1.5Zm3.5,-6h-5v-5h5v5Zm5.5,6c-0.83,0 -1.5,-0.67 -1.5,-1.5c0,-0.83 0.67,-1.5 1.5,-1.5c0.83,0 1.5,0.67 1.5,1.5c0,0.83 -0.67,1.5 -1.5,1.5Zm1.5,-6h-5v-5h5v5Z" transform="translate(4, 2)"></path></g></svg>