<?xml version="1.0" encoding="utf-8"?>
<!-- Generator: Adobe Illustrator 19.0.0, SVG Export Plug-In . SVG Version: 6.00 Build 0)  -->
<svg version="1.1" id="图层_1" xmlns="http://www.w3.org/2000/svg" xmlns:xlink="http://www.w3.org/1999/xlink" x="0px" y="0px"
	 viewBox="0 0 24 24" style="enable-background:new 0 0 24 24;" xml:space="preserve">
<style type="text/css">
	.st0{fill:#FFFFFF;}
</style>
<path id="XMLID_6_" class="st0" d="M17.2,11.7c-3.3,0-5.9,2.7-5.9,5.9c0,3.3,2.7,5.9,5.9,5.9c3.3,0,5.9-2.7,5.9-5.9
	C23.2,14.3,20.5,11.7,17.2,11.7z M14.3,15.9l1.8-1.8c0.2-0.1,0.5-0.1,0.7,0c0.3,0.2,0.4,0.6,0.2,0.9l-0.8,0.8h4l0,0
	c0.3,0,0.6,0.3,0.6,0.6c0,0.3-0.3,0.6-0.6,0.6h-5.5c-0.1,0-0.2,0-0.3,0c-0.1,0-0.1-0.1-0.2-0.1C14,16.5,14,16.1,14.3,15.9z
	 M20.7,19.3l-1.9,1.8c-0.3,0.2-0.7,0.2-0.9,0c-0.2-0.3-0.2-0.7,0-0.9l0.8-0.8h-4c-0.3,0-0.5-0.3-0.6-0.6c0-0.3,0.2-0.6,0.6-0.7h5.5
	c0.1,0,0.2,0,0.3,0l0,0c0.2,0.1,0.3,0.3,0.4,0.5C21,18.9,20.9,19.1,20.7,19.3z"/>
<path id="XMLID_4_" class="st0" d="M9.5,18.6c0-0.9,0.1-1.7,0.4-2.5c0.3-0.8,0.6-1.5,1.1-2.2c0.5-0.7,1-1.3,1.7-1.8
	c0.6-0.5,1.4-0.9,2.1-1.2c0.1-0.1,0.1-0.2,0.2-0.4l0.1-0.3c0-0.1,0.1-0.2,0.1-0.3c0.2-0.1,0.3-0.1,0.4-0.3c0.1-0.1,0.2-0.3,0.3-0.4
	C16,9,16.1,8.8,16.1,8.5c0-0.2,0-0.4,0-0.6C16,7.7,16,7.6,15.9,7.5c-0.1-0.1-0.2-0.2-0.3-0.3c0-0.6-0.1-1.2-0.1-1.8
	c-0.1-0.5-0.2-1.1-0.4-1.6c-0.2-0.6-0.5-1.1-0.9-1.6c-0.2-0.2-0.4-0.4-0.7-0.6c-0.3-0.2-0.6-0.4-1-0.6c-0.4-0.2-0.8-0.3-1.2-0.4
	c-0.4-0.1-0.9-0.2-1.3-0.2c-0.3,0-0.7,0-1.1,0.1C8.6,0.6,8.2,0.7,7.9,0.8C7.5,1,7.1,1.2,6.8,1.4c-0.3,0.3-0.7,0.6-1,1
	C5.5,2.9,5.3,3.4,5.1,3.9C4.9,4.5,4.8,5,4.8,5.5C4.7,6,4.7,6.6,4.7,7.1C4.6,7.3,4.5,7.4,4.4,7.6C4.3,7.8,4.3,8,4.3,8.2
	c0,0.2,0,0.4,0.1,0.7c0.1,0.3,0.2,0.5,0.3,0.6c0.1,0.1,0.2,0.3,0.3,0.3C5,9.8,5.1,9.9,5.2,9.9c0.1,0.2,0.2,0.5,0.2,0.7
	c0.1,0.2,0.2,0.4,0.3,0.6c0.1,0.2,0.2,0.3,0.3,0.4c0.3,0.2,0.5,0.4,0.7,0.6c0.2,0.2,0.3,0.5,0.4,0.8c0,0.3,0,0.5,0,0.7
	c0,0.2-0.1,0.4-0.1,0.6c-0.1,0.2-0.2,0.4-0.4,0.6c-0.2,0.2-0.4,0.4-0.7,0.6c-0.3,0.2-0.6,0.3-0.9,0.4c-0.3,0.1-0.7,0.2-1,0.3
	c-0.4,0.1-0.7,0.2-1,0.3c-0.3,0.1-0.6,0.3-0.9,0.4c-0.3,0.2-0.5,0.4-0.7,0.6C1.2,17.7,1.1,18,1,18.4c-0.2,1-0.2,1.8-0.1,2.4
	c0.1,0.6,0.2,1,0.4,1.1c0.1,0.1,0.3,0.2,0.7,0.2c0.3,0.1,0.8,0.2,1.3,0.2c0.5,0.1,1.1,0.2,1.7,0.2c0.6,0.1,1.2,0.1,1.8,0.2
	c0.6,0.1,1.2,0.1,1.8,0.1s1.1,0.1,1.5,0.1h0.6c-0.4-0.6-0.7-1.3-0.9-2C9.6,20.1,9.5,19.4,9.5,18.6L9.5,18.6z"/>
</svg>
