<?xml version="1.0" encoding="utf-8"?>
<!-- Generator: Adobe Illustrator 19.0.0, SVG Export Plug-In . SVG Version: 6.00 Build 0)  -->
<svg version="1.1" id="图层_1" xmlns="http://www.w3.org/2000/svg" xmlns:xlink="http://www.w3.org/1999/xlink" x="0px" y="0px"
	 viewBox="0 0 24 24" style="enable-background:new 0 0 24 24;" xml:space="preserve">
<style type="text/css">
	.st0{fill:#FFFFFF;}
</style>
<path id="XMLID_1_" class="st0" d="M23.5,16l-0.1-0.4l-0.1-0.4L23.3,15l-0.1-0.2l-0.1-0.2l-0.1-0.3l-0.1-0.2L23,13.8l-0.2-0.4
	l-0.1-0.3l-0.1-0.3l-0.1-0.3l-0.1-0.3l-0.1-0.3l-0.3-0.3l-0.3-0.5l-0.1-0.1v-0.1v-0.1l0.1-0.1l0.1-0.1l0.1-0.3l0.1-0.1V10V9.8V9.7
	V9.6V9.4l-0.1-0.2L21.6,9l-0.1-0.2l-0.1-0.2l-0.1-0.1l-0.1-0.1l-0.1-0.1L21.1,8L21,7.9V7.9l-0.1-0.4l-0.1-0.3l-0.1-0.3l-0.1-0.3
	l-0.1-0.4l-0.1-0.2l-0.1-0.2l-0.1-0.2l-0.1-0.3l-0.1-0.4l-0.1-0.3L19.9,4l-0.1-0.2l-0.1-0.3l-0.1-0.1l-0.1-0.3l-0.2-0.2L19,2.7
	l-0.2-0.2l-0.2-0.2l-0.2-0.2l-0.2-0.2l-0.1-0.1l-0.1-0.1l-0.3-0.2l-0.3-0.2l-0.3-0.2l-0.3-0.1l-0.3-0.1l-0.3-0.1l-0.3-0.1l-0.3-0.1
	L15,0.4l-0.3-0.1l-0.3-0.1L14,0.2l-0.3-0.1L13.3,0H13h-0.3h-0.3H12l-0.3,0.1l-0.3,0.1l-0.3,0.1l-0.3,0.1l-0.3,0.1L9.9,0.5L9.6,0.7
	H9.2L9,0.8L8.7,0.9L8.4,1.1L8.1,1.2L7.9,1.3L7.7,1.6L7.4,1.8L7.2,2L6.9,2.3L6.6,2.6L6.4,2.9L6.2,3.1L6,3.4L5.8,3.7L5.7,3.8L5.7,4
	L5.5,4.2L5.4,4.5L5.3,4.7L5.1,5L5,5.2L5,5.4L4.9,5.6L4.8,5.8L4.7,6.2L4.6,6.6L4.6,6.9L4.5,7.2v0.2v0.1v0.1L4.4,7.7L4.4,7.9L4.3,7.9
	L4.2,8.1L4.2,8.3L4.1,8.5v0.2v0.1V9L4,9.2L3.9,9.4L3.8,9.6L3.7,9.8L3.7,10l-0.1,0.1v0.1v0.1v0.1v0.1l0.1,0.2l0.1,0.1l0,0l-0.2,0.1
	l-0.3,0.3l-0.2,0.1l-0.2,0.1l-0.1,0.1l-0.1,0.1l-0.2,0.2l-0.2,0.2l-0.1,0.2l-0.2,0.3l-0.2,0.3l-0.2,0.3l-0.1,0.3l-0.1,0.3l-0.1,0.3
	L1,14.4l-0.1,0.3L0.8,15l-0.1,0.3l-0.1,0.2l-0.1,0.3l-0.1,0.2l-0.1,0.2v0.5V17v0.2v0.2l0.1,0.3v0.1l0.1,0.1l0.1,0.1l0.1,0.1l0.1,0.2
	l0.1,0.1v0.1h0.1l0,0l0,0h0.2l0.2-0.1l0.1-0.1l0.1-0.1l0.1-0.1l0.1-0.1L2,18l0.1-0.1l0.1-0.1l0.1-0.1l0.1-0.1l0.1-0.1l0.1-0.2
	L2.8,17V17v-0.1v-0.1l0,0h0.1l0,0l0,0l0,0l0,0l0.1,0.3L3,17.4l0.1,0.3l0.1,0.2l0.1,0.2l0.1,0.2l0.1,0.2l0.1,0.2l0.1,0.1L3.7,19
	L4,19.2l0.2,0.3l0.2,0.2l0.2,0.2L4.8,20l0.3,0.2l0.1,0.1l0.1,0.1l0,0l0,0l0,0H5.3H5H4.8H4.7l-0.1,0.1l-0.1,0.1l-0.1,0.1l-0.1,0.1
	l-0.1,0.1L4,20.8l-0.1,0.1l-0.1,0.1L3.7,21l-0.1,0.1l-0.1,0.1l-0.1,0.1l-0.1,0.1l-0.1,0.1l-0.1,0.1v0.1V22V22v0.1v0.1v0.1v0.1v0.1
	v0.1l0.1,0.1l0.1,0.1l0.1,0.1l0.1,0.1l0.1,0.1l0.1,0.1L3.7,23L4,23.1l0.2,0.1l0.2,0.1l0.2,0.1l0.2,0.1L5,23.5l0.3,0.1l0.3,0.1
	l0.3,0.1l0.3,0.1l0.3,0.1L7,24h0.6h0.5h0.3h0.3H9h0.2h0.2h0.2l0.3-0.1l0.2-0.1l0.2-0.1l0.4-0.2l0.2-0.1l0.2-0.1l0.3-0.1l0.3-0.1
	L12,23l0.1-0.1h0.2h0.2h0.3H13h0.1h0.1l0.1,0.1l0.1,0.1l0.2,0.1l0.3,0.1l0.3,0.1l0.3,0.1l0.3,0.1l0.3,0.1l0.4,0.1l0.3,0.1l0.3,0.1
	h0.3h0.3h0.3h0.3h0.3l0.3-0.1H19l0.3-0.1l0.3-0.1l0.3-0.1l0.3-0.1h0.1l0.1-0.1l0.2-0.1l0.2-0.1l0.2-0.1l0.2-0.1l0.1-0.1l0.1-0.1
	l0.1-0.1l0.1-0.1l0.1-0.1l0.1-0.1v-0.1l0.1-0.1v-0.1v-0.1v-0.1V22v-0.1l-0.1-0.1l-0.1-0.1l-0.1-0.1l-0.1-0.1l-0.1-0.1l-0.1-0.1
	L21.1,21l-0.3-0.2l-0.3-0.1l-0.3-0.1l-0.6-0.3l-0.1-0.1l-0.1-0.1l0,0l0.3-0.3l0.1-0.1l0.1-0.1l0.2-0.3l0.2-0.3l0.1-0.3l0.1-0.3
	l0.2-0.5l0.1-0.4l0.1-0.3l0.1-0.1l0.1-0.1l0.1-0.1l0,0l0,0l0.1,0.3l0.1,0.3l0.1,0.1l0.1,0.1l0.1,0.2l0.1,0.1l0.1,0.1l0.1,0.1
	l0.1,0.1l0.1,0.1l0.1,0.1l0.1,0.1h0.1h0.1h0.1h0.1l0.1-0.1l0.1-0.1l0.1-0.1l0.1-0.1l0.1-0.1l0.1-0.1l0.1-0.1l0.1-0.1l0.1-0.1v-0.1
	l0.1-0.3l0.1-0.3l0.1-0.3v-0.2v-0.1v-0.2l0,0L23.5,16z"/>
</svg>
