<svg xmlns="http://www.w3.org/2000/svg" xmlns:xlink="http://www.w3.org/1999/xlink" preserveAspectRatio="xMidYMid" width="26" height="26" viewBox="0 0 26 26">
  <defs>
    <style>
      .cls-1 {
        fill: #fff;
        fill-rule: evenodd;
      }
    </style>
  </defs>
  <path d="M25.133,23.999 L0.867,23.999 C0.388,23.999 -0.000,23.615 -0.000,23.142 L-0.000,5.999 C-0.000,5.526 0.388,5.142 0.867,5.142 L8.233,5.142 L8.233,4.285 L8.233,2.999 C8.233,2.526 8.620,2.143 9.098,2.142 L9.533,2.142 L13.000,2.142 L16.033,2.142 L16.033,5.142 L16.900,5.142 L16.900,1.714 C16.900,1.477 16.706,1.285 16.467,1.285 L10.400,1.285 L10.400,0.856 C10.400,0.382 10.788,-0.001 11.267,-0.001 L17.333,-0.001 C17.812,-0.001 18.200,0.382 18.200,0.856 L18.200,5.142 L25.133,5.142 C25.612,5.142 26.000,5.526 26.000,5.999 L26.000,23.142 C26.000,23.615 25.612,23.999 25.133,23.999 ZM7.367,9.428 C5.694,9.428 4.339,11.155 4.339,13.285 C4.339,15.415 5.694,17.142 7.367,17.142 C8.205,17.142 8.963,16.707 9.512,16.006 C10.573,16.608 11.349,17.634 11.602,18.856 L3.124,18.856 C3.314,17.938 3.799,17.127 4.479,16.525 C4.309,16.295 4.158,16.044 4.026,15.775 C2.890,16.718 2.167,18.131 2.167,19.714 L2.600,19.714 L3.033,19.714 L11.700,19.714 L12.133,19.714 L12.567,19.714 C12.567,17.810 11.512,16.163 9.957,15.274 C10.233,14.692 10.394,14.014 10.394,13.285 C10.394,11.155 9.039,9.428 7.367,9.428 ZM15.167,5.142 L15.167,4.285 L15.167,3.428 C15.167,3.191 14.973,2.999 14.733,2.999 L9.533,2.999 C9.294,2.999 9.100,3.191 9.100,3.428 L9.100,4.285 L9.100,5.142 L9.100,5.999 L9.100,6.427 C9.100,6.664 9.294,6.856 9.533,6.856 L14.733,6.856 C14.973,6.856 15.167,6.664 15.167,6.427 L15.167,5.142 ZM23.400,10.285 L14.300,10.285 C14.061,10.285 13.867,10.477 13.867,10.713 C13.867,10.950 14.061,11.142 14.300,11.142 L23.400,11.142 C23.639,11.142 23.833,10.950 23.833,10.713 C23.833,10.477 23.639,10.285 23.400,10.285 ZM23.400,12.856 L14.300,12.856 C14.061,12.856 13.867,13.048 13.867,13.285 C13.867,13.522 14.061,13.714 14.300,13.714 L23.400,13.714 C23.639,13.714 23.833,13.522 23.833,13.285 C23.833,13.048 23.639,12.856 23.400,12.856 ZM23.400,15.428 L14.300,15.428 C14.061,15.428 13.867,15.619 13.867,15.857 C13.867,16.093 14.061,16.285 14.300,16.285 L23.400,16.285 C23.639,16.285 23.833,16.093 23.833,15.857 C23.833,15.619 23.639,15.428 23.400,15.428 ZM23.400,17.999 L18.633,17.999 C18.394,17.999 18.200,18.191 18.200,18.428 C18.200,18.665 18.394,18.856 18.633,18.856 L23.400,18.856 C23.639,18.856 23.833,18.665 23.833,18.428 C23.833,18.191 23.639,17.999 23.400,17.999 ZM7.367,16.289 C6.191,16.289 5.200,14.997 5.200,13.358 C5.200,11.719 6.191,10.280 7.367,10.280 C8.542,10.280 9.533,11.573 9.533,13.212 C9.533,14.851 8.542,16.289 7.367,16.289 Z" transform="translate(0 1)" class="cls-1"/>
</svg>
