<?xml version="1.0" encoding="utf-8"?>
<!-- Generator: Adobe Illustrator 19.0.0, SVG Export Plug-In . SVG Version: 6.00 Build 0)  -->
<svg version="1.1" id="图层_1" xmlns="http://www.w3.org/2000/svg" xmlns:xlink="http://www.w3.org/1999/xlink" x="0px" y="0px"
	 viewBox="0 0 24 24" style="enable-background:new 0 0 24 24;" xml:space="preserve">
<style type="text/css">
	.st0{fill:#FFFFFF;}
</style>
<path id="XMLID_20_" class="st0" d="M0.1,21l10,2.1c1.1,0.1,1.6-0.3,0.7-1.2l-3.5-4.7L0.1,21L0.1,21z"/>
<path id="XMLID_19_" class="st0" d="M24,3.7L13.9,1.3c-1.1-0.2-1.3,0.2-0.9,1.1l3.3,4.4L24,3.7L24,3.7z"/>
<g id="XMLID_5_">
	<g id="XMLID_52_">
		<path id="XMLID_53_" class="st0" d="M11.2,0.8C5,0.8,0,5.8,0,12s5,11.2,11.2,11.2s11.2-5,11.2-11.2S17.4,0.8,11.2,0.8z M15.1,10.6
			v1.6h-3.3v1.1h3.3V15h-3.3v2.5h-1.4V15H7.2v-1.6h3.3v-1.1H7.2v-1.6h2.5L7.2,8.2l1.1-1.4l2.7,3l3-3l1.1,1.4l-2.5,2.5H15.1z"/>
	</g>
</g>
</svg>
