<svg xmlns="http://www.w3.org/2000/svg" xmlns:xlink="http://www.w3.org/1999/xlink" preserveAspectRatio="xMidYMid" width="25" height="25" viewBox="0 0 25 25">
  <defs>
    <style>
      .cls-1 {
        fill: #fff;
        fill-rule: evenodd;
      }
    </style>
  </defs>
  <path d="M18.950,21.881 C18.950,21.881 18.933,22.155 18.366,22.507 C18.366,22.507 14.453,24.100 9.076,23.991 C9.076,23.991 3.842,23.734 0.504,22.286 C0.504,22.286 0.032,22.175 0.013,21.112 C0.013,21.112 0.184,16.454 1.635,14.363 C1.635,14.363 2.049,13.813 3.030,13.446 C3.030,13.446 6.388,12.457 6.616,11.613 C6.616,11.613 9.095,17.846 12.355,11.595 C12.355,11.595 12.368,12.162 14.028,12.730 C14.028,12.730 17.140,13.685 17.649,14.784 C17.649,14.784 19.348,18.545 18.950,21.881 ZM13.671,7.648 C13.607,8.045 13.436,8.219 13.331,8.291 C13.055,10.196 11.292,12.385 9.435,12.385 C7.824,12.385 6.042,10.303 5.792,8.291 C5.688,8.219 5.516,8.045 5.451,7.648 C5.451,7.648 5.024,6.156 5.649,6.443 C5.210,4.179 5.544,3.407 5.544,3.407 C6.109,1.702 8.059,0.961 8.059,0.961 C8.059,0.961 8.381,0.840 8.565,0.866 C8.751,0.893 8.820,0.980 8.820,0.980 L8.812,1.009 C8.923,0.612 9.257,0.392 9.402,0.313 C9.591,0.092 9.795,-0.012 9.795,-0.012 C9.600,0.149 9.480,0.349 9.408,0.558 C9.591,0.301 9.900,0.161 9.900,0.161 C9.900,0.615 10.397,1.025 10.641,1.200 L11.268,1.409 C12.605,1.797 13.154,2.526 13.154,2.526 C14.330,3.814 13.723,5.884 13.541,6.416 C14.067,6.266 13.671,7.648 13.671,7.648 ZM9.058,0.848 L9.128,0.872 C9.167,0.677 9.248,0.516 9.344,0.388 C9.203,0.525 9.111,0.680 9.058,0.848 Z" transform="translate(3 0.5)" class="cls-1"/>
</svg>
