<?xml version="1.0" encoding="utf-8"?>
<!-- Generator: Adobe Illustrator 19.0.0, SVG Export Plug-In . SVG Version: 6.00 Build 0)  -->
<svg version="1.1" id="图层_1" xmlns="http://www.w3.org/2000/svg" xmlns:xlink="http://www.w3.org/1999/xlink" x="0px" y="0px"
	 viewBox="0 0 24 24" style="enable-background:new 0 0 24 24;" xml:space="preserve">
<style type="text/css">
	.st0{fill:#FFFFFF;}
</style>
<path id="XMLID_4_" class="st0" d="M17.3,13.8V7.7l-4.8-3.5V2.4h4.2V0.1h-4.8v4.1L7.1,7.9v5.9H1.2v10.1h8.7V20c0-1.1,1-2.1,2.1-2.1
	c1.2,0,2.2,1,2.2,2.1v3.8h8.6V13.8H17.3z M12.1,12.3c-1.2,0-2.1-0.9-2.1-2.1c0-1.1,1-2.1,2.1-2.1c1.2,0,2.1,0.9,2.1,2.1
	C14.3,11.3,13.3,12.3,12.1,12.3z"/>
</svg>
