<svg xmlns="http://www.w3.org/2000/svg" xmlns:xlink="http://www.w3.org/1999/xlink" preserveAspectRatio="xMidYMid" width="24" height="24" viewBox="0 0 24 24">
  <defs>
    <style>
      .cls-1 {
        fill: #fff;
        fill-rule: evenodd;
      }
    </style>
  </defs>
  <path d="M16.805,1.003 C10.740,-1.644 3.655,1.137 1.005,7.202 C-1.640,13.268 1.140,20.357 7.203,23.004 C8.978,23.781 10.843,24.090 12.657,23.989 C14.220,23.900 15.743,23.502 17.146,22.838 L17.149,22.848 C17.291,22.794 18.540,22.302 18.889,21.111 C19.105,20.371 18.906,19.580 18.319,18.769 C18.495,18.571 18.522,18.292 18.386,18.075 L18.386,18.073 L16.150,14.526 C15.978,14.249 15.620,14.178 15.349,14.344 L14.208,15.309 C13.655,15.576 13.139,15.019 12.220,13.844 L10.311,10.823 C9.930,10.046 9.622,9.255 10.157,8.855 L11.468,8.165 L11.468,8.163 C11.752,7.983 11.814,7.621 11.648,7.362 L11.648,7.360 L9.411,3.811 C9.241,3.536 8.883,3.459 8.612,3.629 L7.445,4.547 C6.758,5.148 5.077,7.933 8.743,13.897 C12.544,20.088 15.996,19.950 16.860,19.516 L17.240,19.339 L17.117,19.416 C17.461,19.871 17.718,20.399 17.633,20.701 C17.523,21.089 16.844,21.542 16.581,21.673 C15.298,22.282 13.898,22.634 12.468,22.697 C10.886,22.768 9.267,22.489 7.723,21.813 C2.313,19.451 -0.166,13.131 2.198,7.722 C4.558,2.312 10.876,-0.168 16.286,2.191 C21.669,4.543 24.146,10.817 21.841,16.209 C21.783,16.271 21.720,16.490 21.699,16.575 C21.623,16.876 21.874,17.042 22.245,17.133 C22.615,17.226 22.669,17.226 22.913,16.983 C22.920,16.955 23.049,16.706 23.049,16.676 C25.602,10.639 22.827,3.631 16.805,1.003 Z" class="cls-1"/>
</svg>
