<?xml version="1.0" encoding="utf-8"?>
<!-- Generator: Adobe Illustrator 19.0.0, SVG Export Plug-In . SVG Version: 6.00 Build 0)  -->
<svg version="1.1" id="图层_1" xmlns="http://www.w3.org/2000/svg" xmlns:xlink="http://www.w3.org/1999/xlink" x="0px" y="0px"
	 viewBox="0 0 24 24" style="enable-background:new 0 0 24 24;" xml:space="preserve">
<style type="text/css">
	.st0{fill:#fff;}
	.st1{fill:#fff;}
</style>
<g>
	<g id="XMLID_11_">
		<path id="XMLID_20_" class="st1" d="M20.6,17v-4.2c0-0.3-0.2-0.4-0.4-0.4H6.7V9.8c0-0.3-0.2-0.4-0.4-0.4H3.9
			c-0.3,0-0.4,0.2-0.4,0.4V17c0,0.3,0.2,0.4,0.4,0.4h2.4c0.3,0,0.4-0.2,0.4-0.4v-1h10.5v1c0,0.3,0.2,0.4,0.4,0.4H20
			C20.4,17.5,20.6,17.3,20.6,17z M19.7,16.5h-1.5v-0.9c0-0.3-0.2-0.4-0.4-0.4H6.3c-0.3,0-0.4,0.2-0.4,0.4v0.9H4.3v-6.3h1.5v2.5
			c0,0.3,0.2,0.4,0.4,0.4h13.4L19.7,16.5L19.7,16.5z"/>
		<path id="XMLID_4_" class="st1" d="M11,11.8h0.9c0-0.7,0.2-0.9,1.1-0.9s1.1,0.2,1.1,0.9H15c0-1.8-1.5-1.8-2-1.8S11,10,11,11.8z"/>
		<path id="XMLID_1_" class="st1" d="M15.7,11.8h0.9c0-0.7,0.2-0.9,1.1-0.9s1.1,0.2,1.1,0.9h0.9c0-1.8-1.5-1.8-2-1.8
			C17.1,10,15.7,10,15.7,11.8z"/>
	</g>
	<polygon class="st1" points="4.1,9.8 6.3,9.8 6.3,12.6 20.1,12.7 20.1,16.8 17.8,16.8 17.7,15.7 6.3,15.7 6.2,16.8 3.7,16.8 	"/>
</g>
<circle class="st1" cx="12.8" cy="8.2" r="1.4"/>
<circle class="st1" cx="17.7" cy="8.2" r="1.4"/>
</svg>
