<?xml version="1.0" encoding="utf-8"?>
<!-- Generator: Adobe Illustrator 19.0.0, SVG Export Plug-In . SVG Version: 6.00 Build 0)  -->
<svg version="1.1" id="图层_1" xmlns="http://www.w3.org/2000/svg" xmlns:xlink="http://www.w3.org/1999/xlink" x="0px" y="0px"
	 viewBox="0 0 24 24" style="enable-background:new 0 0 24 24;" xml:space="preserve">
<style type="text/css">
	.st0{fill:#FFFFFF;}
</style>
<path id="XMLID_2_" class="st0" d="M23.8,12c-2.9,0.2-10.8,0.8-10.8,0.8c-0.1-0.7,0.1-2.4,0.1-2.4c4.8,0.7,9.7,1,10.6,1V9.6
	c-5.4-0.3-10-3.4-10-3.4c-2.6-2-5.5-1.6-5.5-1.6c-1,0.1-2.1,0.5-3,1.3c-1.3,1-2.4,2.5-3.3,3.8c-1.2,1.6-1.6,3.4-0.7,5.2
	c0.3,0.6,0.7,1.2,1.2,1.6c0.1,0.1,0.4,0.6,0.7,0.6c-0.7,0.4-1.8,1.1-2.9,1.8h2.2c0,0,1.5-1,3-1.7c1,0,2.1,0.1,3,0.1
	c-0.7,0.4-2,1.3-3,2.1h2.2c0,0,4.2-2.7,7.7-3.3l-0.5,0.1c6.9-1.7,9.1-1.8,9.1-1.8V12H23.8z M2.9,12.4c-0.7,0-1.4-0.4-1.4-0.8
	c0-0.4,0.6-0.8,1.4-0.8c0.7,0,1.4,0.4,1.4,0.8S3.7,12.4,2.9,12.4z M6.9,8.2L4.1,8c0,0,1.3-1.7,1.7-1.8h1.7L6.9,8.2z M8.1,6.3
	l2.4,0.1v1.9H7.7L8.1,6.3z M8,11.6c0-0.4,0.6-0.8,1.4-0.8c0.7,0,1.4,0.4,1.4,0.8c0,0.4-0.6,0.8-1.4,0.8C8.6,12.4,8,12,8,11.6z"/>
</svg>
