<?xml version="1.0" encoding="UTF-8"?><svg version="1.1" viewBox="0 0 24 24" xmlns="http://www.w3.org/2000/svg" xmlns:xlink="http://www.w3.org/1999/xlink"><!--Generated by IJSVG (https://github.com/curthard89/IJSVG)--><g fill="none"><path d="M0,0h24v24h-24Z"></path><path fill="#fff" d="M16,17.59v-11.59l-6,-6h-8c-1.1,0 -1.99,0.9 -1.99,2l-0.01,16c0,1.1 0.89,2 1.99,2h12.01c0.45,0 0.85,-0.15 1.19,-0.4l-4.43,-4.43c-0.8,0.52 -1.74,0.83 -2.76,0.83c-2.76,0 -5,-2.24 -5,-5c0,-2.76 2.24,-5 5,-5c2.76,0 5,2.24 5,5c0,1.02 -0.31,1.96 -0.83,2.75l3.83,3.84Zm-11,-6.59c0,1.66 1.34,3 3,3c1.66,0 3,-1.34 3,-3c0,-1.66 -1.34,-3 -3,-3c-1.66,0 -3,1.34 -3,3Z" transform="translate(4, 2)"></path></g></svg>