<?xml version="1.0" encoding="utf-8"?>
<!-- Generator: Adobe Illustrator 19.0.0, SVG Export Plug-In . SVG Version: 6.00 Build 0)  -->
<svg version="1.1" id="图层_1" xmlns="http://www.w3.org/2000/svg" xmlns:xlink="http://www.w3.org/1999/xlink" x="0px" y="0px"
	 viewBox="0 0 24 24" style="enable-background:new 0 0 24 24;" xml:space="preserve">
<style type="text/css">
	.st0{fill:#FFFFFF;}
</style>
<g>
	<path class="st0" d="M17.7,11.8c-0.9-0.1-0.5-0.7-0.5-0.7s0.9-1.5-0.1-2.6c-1.3-1.3-4.6,0.1-4.6,0.1c-1.2,0.4-0.9-0.1-0.7-1.2
		c0-1.2-0.4-3.1-3.7-1.9s-6.2,5.1-6.2,5.1c-2,2.6-1.8,4.7-1.8,4.7c0.5,4.5,5.3,5.8,9,6.1c3.9,0.3,9.3-1.4,10.9-4.7
		C21.6,13.3,18.6,11.9,17.7,11.8z M9.5,20.2c-3.9,0.1-7.1-1.8-7.1-4.4s3.1-4.7,7.1-4.9c3.9-0.1,7.1,1.5,7.1,4
		C16.5,17.6,13.3,20.1,9.5,20.2z"/>
	<path class="st0" d="M8.7,12.7c-3.9,0.4-3.5,4.2-3.5,4.2s-0.1,1.2,1,1.8c2.3,1.2,4.7,0.5,5.8-1C13.3,16,12.6,12.2,8.7,12.7z
		 M7.6,17.8c-0.7,0.1-1.3-0.4-1.3-0.9s0.5-1.2,1.2-1.3c0.9-0.1,1.4,0.4,1.4,1C8.9,17.2,8.4,17.7,7.6,17.8z M10,15.8
		c-0.2,0.2-0.6,0.1-0.7-0.1c-0.1-0.2-0.1-0.6,0.1-0.7c0.3-0.2,0.6-0.1,0.7,0.1C10.3,15.3,10.2,15.7,10,15.8z"/>
	<path id="XMLID_2_" class="st0" d="M19.7,10.2c0.3,0,0.6-0.2,0.7-0.5V9.6C20.8,5.3,16.8,6,16.8,6c-0.4,0-0.7,0.3-0.7,0.7
		s0.3,0.7,0.7,0.7c2.9-0.7,2.3,2.3,2.3,2.3C19,9.9,19.3,10.2,19.7,10.2z"/>
	<path id="XMLID_1_" class="st0" d="M19.2,2.6c-1.4-0.3-2.8-0.1-3.2,0c0,0-0.1,0-0.1,0.1l0,0c-0.4,0.1-0.7,0.5-0.7,0.9
		c0,0.5,0.4,0.9,0.9,0.9c0,0,0.5-0.1,0.9-0.2c0.4-0.1,3.2-0.1,4.7,2.3c0.8,1.8,0.4,2.9,0.3,3.1c0,0-0.2,0.4-0.2,0.9
		c0,0.5,0.4,0.9,0.9,0.9c0.4,0,0.8-0.1,0.9-0.8l0,0C25.1,5.6,21.6,3.2,19.2,2.6z"/>
</g>
</svg>
