<?xml version="1.0" encoding="utf-8"?>
<!-- Generator: Adobe Illustrator 19.0.0, SVG Export Plug-In . SVG Version: 6.00 Build 0)  -->
<svg version="1.1" id="图层_1" xmlns="http://www.w3.org/2000/svg" xmlns:xlink="http://www.w3.org/1999/xlink" x="0px" y="0px"
	 viewBox="0 0 24 24" style="enable-background:new 0 0 24 24;" xml:space="preserve">
<style type="text/css">
	.st0{fill:#FFFFFF;}
</style>
<path id="XMLID_11_" class="st0" d="M6.6,11.4c0.7,0,1.4,0.1,2.1,0.3c0.7-3.4,4-5.9,8-5.9c0.1,0,0.2,0,0.3,0
	c-0.9-3.2-4.2-5.5-8.1-5.5c-4.6,0-8.3,3.2-8.3,7.2c0,1.9,0.9,3.6,2.3,4.9C3.9,11.8,5.2,11.4,6.6,11.4z M12.2,3.8
	c0.6,0,1.1,0.5,1.1,1.1S12.8,6,12.2,6s-1.1-0.5-1.1-1.1C11.1,4.3,11.6,3.8,12.2,3.8z M5.7,3.8c0.6,0,1.1,0.5,1.1,1.1S6.3,6,5.7,6
	S4.6,5.5,4.6,4.9C4.6,4.3,5.1,3.8,5.7,3.8z M23.7,12.9c0-3.4-3.2-6.1-7-6.1c-3.5,0-6.5,2.3-7,5.2c2.5,1,4.2,3.2,4.2,5.8
	c0,0.2,0,0.4,0,0.7c0.9,0.3,1.8,0.5,2.8,0.5c0.9,0,1.8-0.2,2.6-0.4l2.4,0.9l-0.3-2.1C22.8,16.3,23.7,14.7,23.7,12.9L23.7,12.9z
	 M14.1,11.6c-0.6,0-1-0.5-1-1c0-0.6,0.5-1,1-1c0.6,0,1,0.5,1,1C15.1,11.2,14.7,11.6,14.1,11.6z M19.2,11.6c-0.6,0-1-0.5-1-1
	c0-0.6,0.5-1,1-1c0.6,0,1,0.5,1,1C20.2,11.2,19.8,11.6,19.2,11.6z M6.6,12.4c-3.5,0-6.3,2.5-6.3,5.5c0,1.6,0.8,3.1,2.1,4.1l-0.3,1.9
	l2.1-0.9c0.7,0.3,1.5,0.4,2.4,0.4c3.5,0,6.3-2.5,6.3-5.5C12.9,14.8,10.1,12.4,6.6,12.4L6.6,12.4z M4.3,16.7c-0.5,0-0.9-0.4-0.9-0.9
	s0.4-0.9,0.9-0.9s0.9,0.4,0.9,0.9S4.8,16.7,4.3,16.7z M8.9,16.7c-0.5,0-0.9-0.4-0.9-0.9s0.4-0.9,0.9-0.9s0.9,0.4,0.9,0.9
	S9.4,16.7,8.9,16.7z"/>
</svg>
