<?xml version="1.0" encoding="utf-8"?>
<!-- Generator: Adobe Illustrator 19.0.0, SVG Export Plug-In . SVG Version: 6.00 Build 0)  -->
<svg version="1.1" id="图层_1" xmlns="http://www.w3.org/2000/svg" xmlns:xlink="http://www.w3.org/1999/xlink" x="0px" y="0px"
	 viewBox="0 0 24 24" style="enable-background:new 0 0 24 24;" xml:space="preserve">
<style type="text/css">
	.st0{fill:#FFFFFF;}
</style>
<g>
	<path class="st0" d="M16.2,8.1c0.3,0,0.5,0,0.8,0.1c-0.8-3.5-4.4-5.9-8.6-5.9C3.8,2.3,0,5.4,0,9.5c0,2.3,1.3,4.3,3.4,5.7l-0.8,2.6
		l2.9-1.5c1.1,0.2,1.9,0.5,3,0.5c0.3,0,0.5,0,0.8,0c-0.2-0.6-0.2-1.1-0.2-1.8C9,11.1,12.2,8.1,16.2,8.1z M11.7,5.8
		c0.7,0,1.1,0.5,1.1,1.1s-0.5,1.1-1.1,1.1c-0.6,0-1.3-0.5-1.3-1.1S11.1,5.8,11.7,5.8z M5.7,8C5.1,8,4.4,7.5,4.4,6.9
		c0-0.7,0.7-1.1,1.3-1.1s1.1,0.5,1.1,1.1S6.4,8,5.7,8z"/>
	<path class="st0" d="M24,14.7c0-3.4-3.4-6.2-7.2-6.2c-4.1,0-7.2,2.8-7.2,6.2s3.2,6.2,7.2,6.2c0.8,0,1.7-0.2,2.6-0.5l2.3,1.3
		l-0.6-2.1C22.7,18.3,24,16.7,24,14.7z M14.4,13.7c-0.5,0-0.8-0.5-0.8-0.8c0-0.5,0.5-0.8,0.8-0.8c0.7,0,1.1,0.5,1.1,0.8
		S15.1,13.7,14.4,13.7z M19.1,13.7c-0.5,0-0.8-0.5-0.8-0.8c0-0.5,0.5-0.8,0.8-0.8c0.6,0,1.1,0.5,1.1,0.8S19.8,13.7,19.1,13.7z"/>
</g>
</svg>
