<?xml version="1.0" encoding="utf-8"?>
<!-- Generator: Adobe Illustrator 21.0.0, SVG Export Plug-In . SVG Version: 6.00 Build 0)  -->
<svg version="1.1" id="图层_1" xmlns="http://www.w3.org/2000/svg" xmlns:xlink="http://www.w3.org/1999/xlink" x="0px" y="0px"
	 viewBox="0 0 24 24" style="enable-background:new 0 0 24 24;" xml:space="preserve">
<style type="text/css">
	.st0{fill:#FFFFFF;}
</style>
<path class="st0" d="M21.9,20.1l-2.3-4c0.4-0.1,0.7-0.4,0.9-0.7l0,0l0,0c0.2-0.4,0.3-0.8,0.2-1.3l-0.3-1.4l0,0l1-1l0.1-0.1
	c0.3-0.4,0.4-0.8,0.4-1.3c0-0.4-0.1-0.9-0.4-1.2l-1-1.1l0.3-1.4c0.1-0.4,0-0.9-0.2-1.3c-0.2-0.4-0.6-0.7-1-0.8L18,4l-0.4-1.4
	c-0.1-0.4-0.4-0.8-0.8-1l0,0c-0.4-0.2-0.8-0.3-1.3-0.2L14,1.5l0,0l-1-1l-0.1-0.1C12.5,0.1,12.1,0,11.6,0c-0.4,0-0.9,0.1-1.3,0.4
	l-1,1H9.3L7.8,1.2c-0.4-0.1-0.9,0-1.3,0.2C6.1,1.6,5.8,2,5.7,2.5L5.2,3.9l0,0L3.8,4.3C3.3,4.5,3,4.8,2.7,5.2C2.5,5.5,2.4,6,2.5,6.4
	l0.4,1.4l-1,1V9c-0.3,0.4-0.4,0.7-0.4,1.2c0,0.4,0.1,0.9,0.4,1.3l0,0l1,1l0,0l-0.2,1.4l0,0c-0.1,0.4,0,0.9,0.2,1.3
	c0.2,0.4,0.5,0.6,0.9,0.8l-2.3,4c-0.1,0.3-0.1,0.6,0.2,0.7c0,0.1,0.1,0.1,0.2,0.1l0,0h3.1l1.6,2.8c0.1,0.3,0.5,0.4,0.7,0.2l0.2-0.2
	l2.4-4.2l0.4,0.4c0.4,0.3,0.8,0.4,1.2,0.4c0.4,0,0.9-0.1,1.3-0.4l0.4-0.4l2.4,4.2l0.2,0.2c0.3,0.1,0.6,0.1,0.7-0.2l1.6-2.8h3.1l0,0
	c0.1,0,0.2,0,0.3-0.1C22,20.7,22,20.3,21.9,20.1L21.9,20.1L21.9,20.1z M7.1,22.2L7.1,22.2L5.8,20c-0.1-0.1-0.3-0.3-0.5-0.3H2.7
	l1.9-3.4l0.4,0.1l0.4,1.4c0.1,0.4,0.4,0.8,0.8,1c0.4,0.2,0.8,0.3,1.3,0.1l1.2-0.3L7.1,22.2L7.1,22.2L7.1,22.2z M10,18.1L10,18.1
	c-0.2-0.2-0.3-0.2-0.4-0.2c-0.1,0-0.2,0-0.2,0c-0.1,0-0.2,0-0.2,0L7,18.4l-0.7-2.2l0,0c0-0.1-0.1-0.2-0.2-0.4
	c-0.2-0.2-0.3-0.2-0.4-0.2l0,0l-2.2-0.7L4,12.8l0,0c0-0.2,0-0.3,0-0.4l0-0.1v0c-0.1-0.1-0.1-0.2-0.2-0.4l0,0l0-0.1l-1.4-1.5l1.5-1.6
	l0,0C3.9,8.4,3.9,8.3,4,8.2C4,8,4,7.8,4,7.7l0,0L3.5,5.5l2.2-0.7l0,0c0.1,0,0.2-0.1,0.4-0.2c0.2-0.2,0.2-0.3,0.2-0.4l0,0L7,2.1
	l2.2,0.5l0,0c0.1,0,0.2,0,0.2,0c0.1,0,0.2,0,0.2,0c0.1,0,0.2-0.1,0.4-0.2l0.1-0.1l1.6-1.5l1.6,1.5l0,0c0.2,0.2,0.3,0.2,0.4,0.2
	c0.1,0,0.2,0,0.2,0c0.1,0,0.2,0,0.2,0l0,0L16.4,2l0.7,2.2l0,0c0.1,0.3,0.3,0.5,0.6,0.6l0,0l2.2,0.7l-0.6,2.2c0,0.2,0,0.3,0,0.5
	c0,0.1,0.1,0.2,0.2,0.4l0,0l1.5,1.6l-1.5,1.6l0,0c-0.1,0.1-0.2,0.2-0.2,0.3v0.1l0,0.1c0,0.2,0,0.3,0,0.4l0,0l0.5,2.2l-2.2,0.7l0,0
	c-0.1,0-0.2,0.1-0.4,0.2C17.1,15.9,17,16,17,16.1l0,0l-0.7,2.1l-2.2-0.6c0,0,0,0,0,0l-0.4,0.1c-0.1,0-0.3,0.1-0.4,0.2l-0.1,0.1
	l-1.6,1.5L10,18.1z M17.9,19.7L17.9,19.7c-0.2,0-0.4,0.1-0.5,0.3l-1.3,2.2l-1.9-3.4l1.1,0.2l0,0c0.4,0.1,0.9,0,1.3-0.1h0.1
	c0.4-0.2,0.7-0.5,0.8-1v-0.1l0.4-1.4l0,0l0.4-0.1l1.9,3.4L17.9,19.7L17.9,19.7L17.9,19.7z M15.1,13.6L15.1,13.6
	c0.9-0.9,1.4-2.1,1.4-3.4c0-1.3-0.5-2.5-1.4-3.4S13,5.2,11.6,5.2c-1.3,0-2.5,0.5-3.4,1.4c-0.9,0.9-1.4,2.1-1.4,3.4
	c0,1.3,0.5,2.5,1.4,3.4l0,0c0.9,0.9,2.1,1.4,3.4,1.4C13,15.1,14.2,14.5,15.1,13.6L15.1,13.6L15.1,13.6z M14.3,12.9L14.3,12.9
	L14.3,12.9c-0.7,0.7-1.6,1.1-2.7,1.1c-1,0-2-0.4-2.7-1.1l0,0c-0.7-0.7-1-1.6-1-2.6c0-1,0.4-2,1.1-2.7c0.7-0.7,1.6-1.1,2.7-1.1
	c1,0,2,0.4,2.7,1.1c0.7,0.7,1.1,1.6,1.1,2.7C15.5,11.2,15,12.2,14.3,12.9L14.3,12.9L14.3,12.9L14.3,12.9z"/>
</svg>
