<?xml version="1.0" encoding="utf-8"?>
<!-- Generator: Adobe Illustrator 19.0.0, SVG Export Plug-In . SVG Version: 6.00 Build 0)  -->
<svg version="1.1" id="图层_1" xmlns="http://www.w3.org/2000/svg" xmlns:xlink="http://www.w3.org/1999/xlink" x="0px" y="0px"
	 viewBox="0 0 24 24" style="enable-background:new 0 0 24 24;" xml:space="preserve">
<style type="text/css">
	.st0{fill:#FFFFFF;}
</style>
<path id="XMLID_6_" class="st0" d="M21.8,9.1l-2-5c-0.4-1-1.2-1.8-2.7-1.8h-2.8c0,0-0.9,0-1.4,0h-2c-0.5,0-1.4,0-1.4,0H6.8
	c-1.5,0-2.3,0.8-2.7,1.8l-2,5C1.4,9.2,0,10.1,0,11.8v6.4h2.2v1.6c0,2.5,3,2.5,3,0v-1.6h13.6v1.6c0,2.5,3,2.5,3,0v-1.6H24v-6.4
	C24,10.1,22.6,9.2,21.8,9.1z M4.8,14.4c-0.9,0-1.7-0.8-1.7-1.7c0-1,0.8-1.7,1.7-1.7c0.9,0,1.7,0.8,1.7,1.7
	C6.5,13.6,5.8,14.4,4.8,14.4z M4.2,9l1.5-3.9c0.2-0.6,0.5-1,1.1-1h10.4c0.6,0,0.9,0.4,1.1,1L19.8,9H4.2z M19.2,14.4
	c-0.9,0-1.7-0.8-1.7-1.7c0-1,0.8-1.7,1.7-1.7c0.9,0,1.7,0.8,1.7,1.7C20.9,13.6,20.1,14.4,19.2,14.4z"/>
</svg>
