<?xml version="1.0" encoding="utf-8"?>
<!-- Generator: Adobe Illustrator 19.0.0, SVG Export Plug-In . SVG Version: 6.00 Build 0)  -->
<svg version="1.1" id="图层_1" xmlns="http://www.w3.org/2000/svg" xmlns:xlink="http://www.w3.org/1999/xlink" x="0px" y="0px"
	 viewBox="0 0 24 24" style="enable-background:new 0 0 24 24;" xml:space="preserve">
<style type="text/css">
	.st0{fill:#fff;}
</style>
<path class="st0" d="M12.7,19.5l0.3,1.5l-3.6,1.3l-8.5-7.1L2.8,4.4l10.4-3.8l8.5,7.1l-1.1,6.5l-1.4-0.6L20,8.2l-7.2-6L4.1,5.5
	l-1.6,9.2l7.2,6L12.7,19.5L12.7,19.5z M17.1,12.8l0.7-3.7l-5.3-4.6L5.9,6.9l-1.3,6.9l5.3,4.6l2.4-0.8L12,16l-1.8,0.6l-4-3.4l1-5.2
	l5-1.7l4,3.4l-0.5,2.5L17.1,12.8z M23.1,16.8l-4.9,2.5l-3.1,4.2l-2.3-10.8L23.1,16.8z M19.5,16.9L14.8,15l1,4.9l1.3-1.8L19.5,16.9
	L19.5,16.9z"/>
</svg>
