<svg xmlns="http://www.w3.org/2000/svg" xmlns:xlink="http://www.w3.org/1999/xlink" preserveAspectRatio="xMidYMid" width="49.969" height="66" viewBox="0 0 49.969 66">
  <defs>
    <style>
      .cls-1 {
        fill: #464e55;
      }

      .cls-1, .cls-2 {
        fill-rule: evenodd;
      }

      .cls-2 {
        fill: #252a2d;
      }
    </style>
  </defs>
  <g>
    <path d="M49.814,60.200 C49.814,60.200 49.769,60.953 48.278,61.920 C48.278,61.920 37.984,66.303 23.840,66.001 C23.840,66.001 10.070,65.294 1.292,61.313 C1.292,61.313 0.049,61.007 -0.002,58.084 C-0.002,58.084 0.450,45.276 4.265,39.525 C4.265,39.525 5.355,38.012 7.935,37.003 C7.935,37.003 16.770,34.283 17.368,31.964 C17.368,31.964 23.889,49.104 32.466,31.914 C32.466,31.914 32.499,33.473 36.865,35.035 C36.865,35.035 45.052,37.661 46.391,40.683 C46.391,40.683 50.859,51.027 49.814,60.200 ZM35.926,21.058 C35.759,22.149 35.307,22.628 35.031,22.827 C34.307,28.065 29.669,34.085 24.784,34.085 C20.545,34.085 15.859,28.359 15.200,22.827 C14.927,22.628 14.476,22.149 14.305,21.058 C14.305,21.058 13.182,16.957 14.826,17.746 C13.670,11.520 14.549,9.395 14.549,9.395 C16.036,4.707 21.163,2.669 21.163,2.669 C21.163,2.669 22.012,2.338 22.496,2.408 C22.986,2.483 23.167,2.722 23.167,2.722 L23.144,2.801 C23.437,1.709 24.316,1.106 24.698,0.887 C25.195,0.279 25.730,-0.006 25.730,-0.006 C25.219,0.436 24.902,0.986 24.713,1.560 C25.195,0.853 26.008,0.469 26.008,0.469 C26.008,1.718 27.314,2.846 27.957,3.326 L29.604,3.901 C33.123,4.967 34.567,6.972 34.567,6.972 C37.659,10.515 36.064,16.208 35.584,17.672 C36.967,17.258 35.926,21.058 35.926,21.058 ZM23.793,2.358 L23.976,2.425 C24.078,1.887 24.291,1.445 24.544,1.093 C24.174,1.470 23.932,1.895 23.793,2.358 Z" class="cls-1"/>
    <path d="M46.391,40.683 C45.052,37.661 36.865,35.035 36.865,35.035 C32.499,33.473 32.466,31.914 32.466,31.914 C23.889,49.104 17.368,31.964 17.368,31.964 C16.770,34.283 7.935,37.003 7.935,37.003 C5.355,38.012 4.265,39.525 4.265,39.525 C0.450,45.276 -0.002,58.084 -0.002,58.084 C0.049,61.007 1.292,61.313 1.292,61.313 C10.070,65.294 23.840,66.001 23.840,66.001 C37.984,66.303 48.278,61.920 48.278,61.920 C49.769,60.953 49.814,60.200 49.814,60.200 C50.859,51.027 46.391,40.683 46.391,40.683 Z" class="cls-2"/>
  </g>
</svg>
