<?xml version="1.0" encoding="UTF-8"?><svg version="1.1" viewBox="0 0 48 48" xmlns="http://www.w3.org/2000/svg" xmlns:xlink="http://www.w3.org/1999/xlink"><!--Generated by IJSVG (https://github.com/curthard89/IJSVG)--><g fill="none"><path d="M0,0h48v48h-48Z"></path><path fill="#fff" d="M36,0h-32c-2.21,0 -3.98,1.79 -3.98,4l-0.02,20c0,2.21 1.79,4 4,4h32c2.21,0 4,-1.79 4,-4v-20c0,-2.21 -1.79,-4 -4,-4Zm-18,6h4v4h-4v-4Zm0,6h4v4h-4v-4Zm-6,-6h4v4h-4v-4Zm0,6h4v4h-4v-4Zm-2,4h-4v-4h4v4Zm0,-6h-4v-4h4v4Zm18,14h-16v-4h16v4Zm0,-8h-4v-4h4v4Zm0,-6h-4v-4h4v4Zm6,6h-4v-4h4v4Zm0,-6h-4v-4h4v4Zm-14,30l8,-8h-16l8,8Z" transform="translate(4, 6)"></path></g></svg>