<svg xmlns="http://www.w3.org/2000/svg" xmlns:xlink="http://www.w3.org/1999/xlink" preserveAspectRatio="xMidYMid" width="26" height="26" viewBox="0 0 26 26">
  <defs>
    <style>
      .cls-1 {
        fill: #fff;
        fill-rule: evenodd;
      }
    </style>
  </defs>
  <path d="M13.000,26.008 C5.820,26.008 -0.000,20.187 -0.000,13.004 C-0.000,5.822 5.820,-0.002 13.000,-0.002 C20.180,-0.002 26.000,5.822 26.000,13.004 C26.000,20.187 20.180,26.008 13.000,26.008 ZM13.000,21.674 C8.213,21.674 4.333,17.791 4.333,13.004 C4.333,8.215 8.213,4.334 13.000,4.334 C17.786,4.334 21.667,8.215 21.667,13.004 C21.667,17.791 17.786,21.674 13.000,21.674 ZM13.000,5.201 C8.692,5.201 5.200,8.694 5.200,13.004 C5.200,17.313 8.692,20.806 13.000,20.806 C17.308,20.806 20.800,17.313 20.800,13.004 C20.800,8.694 17.308,5.201 13.000,5.201 ZM13.000,17.339 C10.607,17.339 8.667,15.398 8.667,13.004 C8.667,10.610 10.607,8.669 13.000,8.669 C15.393,8.669 17.333,10.610 17.333,13.004 C17.333,15.398 15.393,17.339 13.000,17.339 ZM13.000,9.536 C10.873,9.536 9.533,10.875 9.533,13.004 C9.533,15.131 10.873,16.472 13.000,16.472 C15.127,16.472 16.467,15.131 16.467,13.004 C16.467,10.875 15.127,9.536 13.000,9.536 Z" class="cls-1"/>
</svg>
