<?xml version="1.0" encoding="UTF-8"?><svg version="1.1" viewBox="0 0 48 48" xmlns="http://www.w3.org/2000/svg" xmlns:xlink="http://www.w3.org/1999/xlink"><!--Generated by IJSVG (https://github.com/curthard89/IJSVG)--><g fill="#fff"><path d="M24,18v-12l-6,-6l-6,6v4h-12v28h36v-20h-12Zm-16,16h-4v-4h4v4Zm0,-8h-4v-4h4v4Zm0,-8h-4v-4h4v4Zm12,16h-4v-4h4v4Zm0,-8h-4v-4h4v4Zm0,-8h-4v-4h4v4Zm0,-8h-4v-4h4v4Zm12,24h-4v-4h4v4Zm0,-8h-4v-4h4v4Z" transform="translate(6, 4)"></path><path fill="none" d="M0,0h48v48h-48Z"></path></g></svg>