<?xml version="1.0" encoding="utf-8"?>
<!-- Generator: Adobe Illustrator 19.0.0, SVG Export Plug-In . SVG Version: 6.00 Build 0)  -->
<svg version="1.1" id="图层_1" xmlns="http://www.w3.org/2000/svg" xmlns:xlink="http://www.w3.org/1999/xlink" x="0px" y="0px"
	 viewBox="0 0 24 24" style="enable-background:new 0 0 24 24;" xml:space="preserve">
<style type="text/css">
	.st0{fill:#FFFFFF;}
</style>
<path id="XMLID_19_" class="st0" d="M23.6,21.9h-1.2V7.4c0-0.4-0.2-0.7-0.5-0.9L15.9,3c-0.3-0.2-0.8-0.2-1.1,0
	c-0.3,0.2-0.5,0.6-0.5,0.9v17.9H13V1.2c0-0.4-0.2-0.7-0.5-0.9c-0.3-0.2-0.7-0.2-1-0.1l-9.2,4c-0.4,0.2-0.7,0.6-0.7,1v16.8H0.4
	c-0.2,0-0.4,0.2-0.4,0.4v1.3c0,0.2,0.2,0.4,0.4,0.4h23.1c0.2,0,0.4-0.2,0.4-0.4v-1.3C23.9,22.1,23.8,21.9,23.6,21.9L23.6,21.9z
	 M6.5,20.6c0,0.2-0.2,0.4-0.4,0.4H4.8c-0.2,0-0.4-0.2-0.4-0.4v-1.2c0-0.2,0.2-0.4,0.4-0.4h1.2c0.2,0,0.4,0.2,0.4,0.4V20.6z
	 M6.5,17.5c0,0.2-0.2,0.4-0.4,0.4H4.8c-0.2,0-0.4-0.2-0.4-0.4v-1.2c0-0.2,0.2-0.4,0.4-0.4h1.2c0.2,0,0.4,0.2,0.4,0.4V17.5z
	 M6.5,14.4c0,0.2-0.2,0.4-0.4,0.4H4.8c-0.2,0-0.4-0.2-0.4-0.4v-1.2c0-0.2,0.2-0.4,0.4-0.4h1.2c0.2,0,0.4,0.2,0.4,0.4V14.4z
	 M6.5,11.3c0,0.2-0.2,0.4-0.4,0.4H4.8c-0.2,0-0.4-0.2-0.4-0.4v-1.2c0-0.2,0.2-0.4,0.4-0.4h1.2c0.2,0,0.4,0.2,0.4,0.4
	C6.5,10.1,6.5,11.3,6.5,11.3z M6.5,8.2c0,0.2-0.2,0.4-0.4,0.4H4.8c-0.2,0-0.4-0.2-0.4-0.4V7c0-0.2,0.2-0.4,0.4-0.4h1.2
	c0.2,0,0.4,0.2,0.4,0.4V8.2z M10.2,20.6c0,0.2-0.2,0.4-0.4,0.4H8.6c-0.2,0-0.4-0.2-0.4-0.4v-1.2c0-0.2,0.2-0.4,0.4-0.4h1.2
	c0.2,0,0.4,0.2,0.4,0.4L10.2,20.6L10.2,20.6z M10.2,17.5c0,0.2-0.2,0.4-0.4,0.4H8.6c-0.2,0-0.4-0.2-0.4-0.4v-1.2
	c0-0.2,0.2-0.4,0.4-0.4h1.2c0.2,0,0.4,0.2,0.4,0.4L10.2,17.5L10.2,17.5z M10.2,14.4c0,0.2-0.2,0.4-0.4,0.4H8.6
	c-0.2,0-0.4-0.2-0.4-0.4v-1.2c0-0.2,0.2-0.4,0.4-0.4h1.2c0.2,0,0.4,0.2,0.4,0.4L10.2,14.4L10.2,14.4z M10.2,11.3
	c0,0.2-0.2,0.4-0.4,0.4H8.6c-0.2,0-0.4-0.2-0.4-0.4v-1.2c0-0.2,0.2-0.4,0.4-0.4h1.2c0.2,0,0.4,0.2,0.4,0.4L10.2,11.3L10.2,11.3z
	 M10.2,8.2c0,0.2-0.2,0.4-0.4,0.4H8.6c-0.2,0-0.4-0.2-0.4-0.4V7c0-0.2,0.2-0.4,0.4-0.4h1.2c0.2,0,0.4,0.2,0.4,0.4L10.2,8.2L10.2,8.2
	z M10.2,5.1c0,0.2-0.2,0.4-0.4,0.4H8.6c-0.2,0-0.4-0.2-0.4-0.4V3.9c0-0.2,0.2-0.4,0.4-0.4h1.2c0.2,0,0.4,0.2,0.4,0.4L10.2,5.1
	L10.2,5.1z M19.3,20.6c0,0.2-0.2,0.4-0.4,0.4h-1.2c-0.2,0-0.4-0.2-0.4-0.4v-1.2c0-0.2,0.2-0.4,0.4-0.4h1.2c0.2,0,0.4,0.2,0.4,0.4
	V20.6L19.3,20.6z M19.3,17.5c0,0.2-0.2,0.4-0.4,0.4h-1.2c-0.2,0-0.4-0.2-0.4-0.4v-1.2c0-0.2,0.2-0.4,0.4-0.4h1.2
	c0.2,0,0.4,0.2,0.4,0.4V17.5z M19.3,14.4c0,0.2-0.2,0.4-0.4,0.4h-1.2c-0.2,0-0.4-0.2-0.4-0.4v-1.2c0-0.2,0.2-0.4,0.4-0.4h1.2
	c0.2,0,0.4,0.2,0.4,0.4V14.4z M19.3,11.3c0,0.2-0.2,0.4-0.4,0.4h-1.2c-0.2,0-0.4-0.2-0.4-0.4v-1.2c0-0.2,0.2-0.4,0.4-0.4h1.2
	c0.2,0,0.4,0.2,0.4,0.4V11.3L19.3,11.3z M19.3,8.2c0,0.2-0.2,0.4-0.4,0.4h-1.2c-0.2,0-0.4-0.2-0.4-0.4V7c0-0.2,0.2-0.4,0.4-0.4h1.2
	c0.2,0,0.4,0.2,0.4,0.4V8.2z"/>
</svg>
