<?xml version="1.0" encoding="utf-8"?>
<!-- Generator: Adobe Illustrator 21.0.0, SVG Export Plug-In . SVG Version: 6.00 Build 0)  -->
<svg version="1.1" id="图层_1" xmlns="http://www.w3.org/2000/svg" xmlns:xlink="http://www.w3.org/1999/xlink" x="0px" y="0px"
	 viewBox="0 0 24 24" style="enable-background:new 0 0 24 24;" xml:space="preserve">
<style type="text/css">
	.st0{fill:#475865;}
</style>
<path class="st0" d="M7.1,9.9c0.8,2.3,2.3,5,5,4.9c2.6-0.1,4.1-2.7,4.9-5c1.2-0.3,1.2-2.1,0.3-2.8C18.1-1.3,5.6-0.9,6.7,7.1
	C5.7,7.7,6.1,9.5,7.1,9.9z M16,15.6c-1,1.6-1.7,3.5-2.7,5.1c-0.2-1-0.3-2.2-0.4-3.2c0.1-0.1,0.8-0.5,0.3-0.5h-2.5
	c0.7,0.5,0.2,2.8-0.1,3.9C9.7,19,9,17.1,7.9,15.6C3.4,16.3,0,18,0,23.1h24C23.9,18,20.5,16.2,16,15.6L16,15.6z"/>
</svg>
