<?xml version="1.0" encoding="utf-8"?>
<!-- Generator: Adobe Illustrator 19.0.0, SVG Export Plug-In . SVG Version: 6.00 Build 0)  -->
<svg version="1.1" id="图层_1" xmlns="http://www.w3.org/2000/svg" xmlns:xlink="http://www.w3.org/1999/xlink" x="0px" y="0px"
	 viewBox="-3 4 17 17" style="enable-background:new -3 4 17 17;" xml:space="preserve">
<style type="text/css">
	.st0{fill:#484E53;}
</style>
<path class="st0" d="M13.4,8.2h-1.1V5.4c0-0.2-0.1-0.3-0.3-0.3c-0.1,0-0.3,0.1-0.3,0.3v15c0,0.3-0.3,0.6-0.6,0.6H4.9h-7.4
	C-2.7,21-3,20.7-3,20.4v-3.1c0-0.3,0.3-0.6,0.6-0.6h12.8l0,0l0,0c0.2,0,0.3-0.1,0.3-0.3c0-0.2-0.1-0.3-0.3-0.3H-0.7v0V4.6
	C-0.7,4.3-0.5,4-0.2,4h7.4l0,0h6.2C13.7,4,14,4.3,14,4.6v3.1C14,8,13.7,8.2,13.4,8.2z M10.3,7.1H0.7c-0.2,0-0.3,0.1-0.3,0.3
	c0,0.2,0.1,0.3,0.3,0.3h9.6c0.2,0,0.3-0.1,0.3-0.3C10.6,7.2,10.5,7.1,10.3,7.1z M10.3,9.4H0.7c-0.2,0-0.3,0.1-0.3,0.3
	s0.1,0.3,0.3,0.3h9.6c0.2,0,0.3-0.1,0.3-0.3S10.5,9.4,10.3,9.4z M10.3,11.6H0.7c-0.2,0-0.3,0.1-0.3,0.3c0,0.2,0.1,0.3,0.3,0.3h9.6
	c0.2,0,0.3-0.1,0.3-0.3C10.6,11.8,10.5,11.6,10.3,11.6z M10.3,13.9H0.7c-0.2,0-0.3,0.1-0.3,0.3c0,0.2,0.1,0.3,0.3,0.3h9.6
	c0.2,0,0.3-0.1,0.3-0.3C10.6,14,10.5,13.9,10.3,13.9z"/>
</svg>
