<?xml version="1.0" encoding="utf-8"?>
<!-- Generator: Adobe Illustrator 19.0.0, SVG Export Plug-In . SVG Version: 6.00 Build 0)  -->
<svg version="1.1" id="图层_1" xmlns="http://www.w3.org/2000/svg" xmlns:xlink="http://www.w3.org/1999/xlink" x="0px" y="0px"
	 viewBox="0 0 24 24" style="enable-background:new 0 0 24 24;" xml:space="preserve">
<style type="text/css">
	.st0{fill:#FFFFFF;}
</style>
<path class="st0" d="M14.2,12H9.8c-0.3,0-0.5,0.2-0.5,0.5c0,0.3,0.2,0.5,0.5,0.5h4.4c0.3,0,0.5-0.2,0.5-0.5
	C14.7,12.2,14.5,12,14.2,12L14.2,12z M14.2,8.7H9.8C9.5,8.7,9.3,9,9.3,9.3c0,0.3,0.2,0.5,0.5,0.5h4.4c0.3,0,0.5-0.2,0.5-0.5
	C14.7,9,14.5,8.7,14.2,8.7L14.2,8.7z M14.2,5.5H9.8C9.5,5.5,9.3,5.7,9.3,6s0.2,0.5,0.5,0.5h4.4c0.3,0,0.5-0.2,0.5-0.5
	C14.7,5.7,14.5,5.5,14.2,5.5L14.2,5.5z M4.4,15.3H2.7c-0.3,0-0.5,0.2-0.5,0.5c0,0.3,0.2,0.5,0.5,0.5h1.6c0.3,0,0.5-0.2,0.5-0.5
	C4.9,15.5,4.7,15.3,4.4,15.3z M4.4,12H2.7c-0.3,0-0.5,0.2-0.5,0.5c0,0.3,0.2,0.5,0.5,0.5h1.6c0.3,0,0.5-0.2,0.5-0.5
	C4.9,12.2,4.7,12,4.4,12z M4.4,8.7H2.7C2.4,8.7,2.2,9,2.2,9.3c0,0.3,0.2,0.5,0.5,0.5h1.6c0.3,0,0.5-0.2,0.5-0.5
	C4.9,9,4.7,8.7,4.4,8.7z M21.3,15.3h-1.6c-0.3,0-0.5,0.2-0.5,0.5c0,0.3,0.2,0.5,0.5,0.5h1.6c0.3,0,0.5-0.2,0.5-0.5
	C21.8,15.5,21.6,15.3,21.3,15.3z M21.3,12h-1.6c-0.3,0-0.5,0.2-0.5,0.5c0,0.3,0.2,0.5,0.5,0.5h1.6c0.3,0,0.5-0.2,0.5-0.5
	C21.8,12.2,21.6,12,21.3,12z M21.3,8.7h-1.6c-0.3,0-0.5,0.2-0.5,0.5c0,0.3,0.2,0.5,0.5,0.5h1.6c0.3,0,0.5-0.2,0.5-0.5
	C21.8,9,21.6,8.7,21.3,8.7z"/>
<path class="st0" d="M22.9,5.5H18V2.2c0-0.6-0.5-1.1-1.1-1.1H7.1C6.5,1.1,6,1.6,6,2.2v3.3H1.1C0.5,5.5,0,5.9,0,6.5v15.3
	c0,0.6,0.5,1.1,1.1,1.1h21.8c0.6,0,1.1-0.5,1.1-1.1V6.5C24,5.9,23.5,5.5,22.9,5.5z M1.1,21.8V6.5H6v15.3L1.1,21.8L1.1,21.8z
	 M10.4,21.8v-5.5h3.3v5.5H10.4z M14.7,21.8v-5.5c0-0.6-0.5-1.1-1.1-1.1h-3.3c-0.6,0-1.1,0.5-1.1,1.1v5.5H7.1V2.2h9.8v19.6L14.7,21.8
	L14.7,21.8z M22.9,21.8H18V6.5h4.9L22.9,21.8L22.9,21.8z"/>
</svg>
