<?xml version="1.0" encoding="utf-8"?>
<!-- Generator: Adobe Illustrator 19.0.0, SVG Export Plug-In . SVG Version: 6.00 Build 0)  -->
<svg version="1.1" id="图层_1" xmlns="http://www.w3.org/2000/svg" xmlns:xlink="http://www.w3.org/1999/xlink" x="0px" y="0px"
	 viewBox="0 0 24 24" style="enable-background:new 0 0 24 24;" xml:space="preserve">
<style type="text/css">
	.st0{fill:#FFFFFF;}
</style>
<path class="st0" d="M22.8,0.6H1.2C0.5,0.6,0,1.2,0,1.8v12.9c0,0.7,0.5,1.2,1.2,1.2h21.6c0.7,0,1.2-0.5,1.2-1.2V1.8
	C24,1.1,23.5,0.6,22.8,0.6z M12,15.3c-0.3,0-0.6-0.3-0.6-0.6s0.3-0.6,0.6-0.6c0.3,0,0.6,0.3,0.6,0.6C12.6,15.1,12.3,15.3,12,15.3
	L12,15.3L12,15.3z M23,13.4H1V1.6h22L23,13.4 M15.3,19.3H8.7l0.6-2.6h5.4L15.3,19.3z M21.3,21.9L20,20.6H4l-1.4,1.3l-1,0.9v0.6h20.6
	v-0.6L21.3,21.9z M21,22.3h-1.4l-0.4-0.4h1.3L21,22.3L21,22.3z M3.4,21.9h1.3l-0.4,0.4H3L3.4,21.9z M5.4,21.9h1.4l-0.3,0.4H5.1
	L5.4,21.9z M7.4,21.9h1.5l-0.2,0.4H7.1L7.4,21.9z M9.4,21.9h1.5l-0.1,0.4H9.2C9.2,22.3,9.4,21.9,9.4,21.9z M11.4,21.9h1.5l0.1,0.4
	h-1.6L11.4,21.9z M13.4,21.9h1.3l0.2,0.4h-1.4L13.4,21.9z M15.4,21.9h1.3l0.3,0.4h-1.4L15.4,21.9z M17.3,21.9h1.4l0.4,0.4h-1.5
	L17.3,21.9z M19.8,21.1l0.3,0.2h-1.2l-0.2-0.2H19.8L19.8,21.1z M18,21.1l0.2,0.2H17l-0.1-0.2H18z M16.2,21.1l0.1,0.2h-1.1l-0.1-0.2
	H16.2L16.2,21.1z M14.5,21.1l0.1,0.2h-1.2l0-0.2H14.5z M12.8,21.1l0,0.2h-1.4l0-0.2H12.8L12.8,21.1z M11,21.1l0,0.2H9.6l0.1-0.2H11z
	 M9.1,21.1L9,21.4H7.7l0.2-0.2H9.1z M7.3,21.1l-0.1,0.2H5.8l0.2-0.2H7.3z M5.4,21.1l-0.2,0.2H4l0.3-0.2H5.4L5.4,21.1z"/>
</svg>
