<svg version="1.1" id="图层_1" xmlns="http://www.w3.org/2000/svg" x="0" y="0" viewBox="0 0 24 24" xml:space="preserve"><style>.st0{fill:#c2c5c7}</style><path id="XMLID_3_" class="st0" d="M16.4 7.9c.3 0 .7.2.9.5.5.5.5 1.4 0 2L13 14.6c-.5.5-1.4.5-2 0l-4.3-4.3c-.5-.5-.5-1.4 0-2 .5-.5 1.4-.5 2 0l3.3 3.3 3.3-3.2c.3-.3.6-.5 1.1-.5z"/><path id="XMLID_2_" class="st0" d="M12 .3c.7 0 1.2.6 1.2 1.3v10.9c0 .7-.5 1.3-1.2 1.3s-1.2-.6-1.2-1.3V1.7C10.7.9 11.3.3 12 .3z"/><path id="XMLID_1_" class="st0" d="M22.3 23.1H1.7c-.7 0-1.3-.6-1.3-1.3v-8.4c0-.7.6-1.3 1.3-1.3s1.3.6 1.3 1.3v7.1h18v-7.1c0-.7.6-1.3 1.3-1.3.7 0 1.3.6 1.3 1.3v8.4c0 .7-.6 1.3-1.3 1.3z"/></svg>