<svg xmlns="http://www.w3.org/2000/svg" xmlns:xlink="http://www.w3.org/1999/xlink" preserveAspectRatio="xMidYMid" width="90" height="104" viewBox="0 0 90 104">
  <defs>
    <style>
      .cls-1 {
        fill: #fff;
      }

      .cls-1, .cls-2 {
        fill-rule: evenodd;
      }

      .cls-2 {
        fill: #c6c6c6;
      }
    </style>
  </defs>
  <g>
    <path d="M88.345,79.128 C79.127,84.401 69.959,89.762 60.772,95.092 C60.306,95.363 59.819,95.602 59.099,95.986 C59.099,92.683 59.044,89.611 59.158,86.545 C59.177,86.071 59.898,85.495 60.423,85.190 C66.878,81.430 73.356,77.708 79.835,73.989 C80.706,73.489 81.403,73.072 81.394,71.790 C81.325,62.118 81.355,52.445 81.350,42.772 C81.350,42.424 81.298,42.075 81.246,41.434 C73.817,45.742 66.600,49.925 59.098,54.275 C59.098,50.875 59.063,47.857 59.140,44.842 C59.149,44.416 59.617,43.846 60.025,43.609 C69.797,37.938 79.590,32.303 89.382,26.669 C89.474,26.617 89.615,26.652 89.861,26.641 C89.894,27.176 89.954,27.707 89.954,28.238 C89.960,44.233 89.939,60.228 89.990,76.223 C89.995,77.636 89.595,78.414 88.345,79.128 ZM60.034,42.934 C59.101,43.483 58.414,43.493 57.509,42.919 C55.232,41.473 52.893,40.129 50.302,38.579 C57.715,34.277 64.888,30.114 72.399,25.756 C64.917,21.429 57.738,17.275 50.228,12.932 C53.087,11.279 55.626,9.783 58.203,8.356 C58.560,8.158 59.207,8.107 59.542,8.300 C69.542,14.055 79.521,19.849 89.701,25.751 C85.343,28.270 81.180,30.675 77.018,33.081 C71.352,36.357 65.673,39.611 60.034,42.934 ZM53.154,10.511 C52.502,10.971 51.824,11.433 51.090,11.730 C49.689,12.297 49.291,13.250 49.332,14.740 C49.431,18.541 49.360,18.544 45.341,20.149 C45.341,17.069 45.314,14.065 45.374,11.063 C45.382,10.678 45.753,10.158 46.105,9.946 C48.574,8.454 51.084,7.027 53.904,5.393 C53.904,6.964 53.951,8.280 53.869,9.588 C53.850,9.915 53.465,10.292 53.154,10.511 ZM44.151,9.323 C41.609,7.937 39.123,6.448 36.363,4.846 C39.224,3.184 41.905,1.609 44.615,0.087 C44.855,-0.048 45.335,0.059 45.612,0.217 C48.236,1.703 50.838,3.225 53.626,4.841 C50.900,6.426 48.381,7.937 45.803,9.343 C45.371,9.578 44.589,9.562 44.151,9.323 ZM44.613,11.066 C44.674,14.067 44.646,17.071 44.646,20.350 C43.391,19.630 42.237,19.216 41.445,18.433 C40.907,17.902 40.574,16.815 40.674,16.045 C40.995,13.562 40.133,12.061 37.809,11.048 C35.710,10.133 35.792,9.946 36.215,5.468 C38.907,7.027 41.416,8.452 43.886,9.943 C44.236,10.154 44.606,10.678 44.613,11.066 ZM17.597,25.758 C25.052,30.084 32.227,34.249 39.698,38.585 C36.945,40.223 34.533,41.707 32.062,43.086 C31.629,43.328 30.832,43.350 30.409,43.108 C20.448,37.411 10.515,31.663 0.311,25.770 C3.942,23.646 7.359,21.633 10.789,19.642 C16.821,16.141 22.883,12.691 28.880,9.129 C30.396,8.228 31.590,7.912 33.184,9.057 C35.159,10.476 37.372,11.562 39.744,12.944 C32.275,17.266 25.093,21.421 17.597,25.758 ZM29.511,43.295 C30.574,43.901 30.974,44.546 30.931,45.767 C30.835,48.477 30.901,51.193 30.901,54.255 C23.429,49.933 16.204,45.754 8.747,41.440 C8.699,42.295 8.639,42.880 8.638,43.465 C8.632,52.770 8.662,62.075 8.602,71.379 C8.593,72.674 9.023,73.361 10.115,73.980 C16.613,77.664 23.061,81.436 29.559,85.121 C30.539,85.676 30.966,86.265 30.929,87.428 C30.838,90.194 30.898,92.966 30.898,96.028 C28.323,94.544 25.983,93.206 23.653,91.854 C16.229,87.547 8.815,83.224 1.378,78.941 C0.506,78.439 0.006,77.947 0.009,76.819 C0.048,60.443 0.036,44.067 0.041,27.691 C0.041,27.346 0.110,26.999 0.173,26.401 C2.262,27.598 4.176,28.689 6.084,29.790 C13.888,34.299 21.678,38.835 29.511,43.295 ZM17.123,67.760 C14.684,69.295 12.163,70.699 9.293,72.368 C9.293,62.276 9.293,52.576 9.293,42.434 C12.242,44.153 14.930,45.685 17.564,47.308 C17.845,47.481 17.891,48.187 17.893,48.646 C17.914,54.466 17.929,60.287 17.875,66.106 C17.870,66.673 17.558,67.487 17.123,67.760 ZM9.540,72.929 C12.477,71.233 15.194,69.643 17.944,68.113 C18.171,67.986 18.660,68.181 18.954,68.351 C25.775,72.286 32.586,76.238 39.714,80.369 C37.005,81.980 34.649,83.446 32.218,84.771 C31.695,85.056 30.753,85.084 30.246,84.799 C23.435,80.954 16.667,77.033 9.540,72.929 ZM32.402,85.460 C34.802,83.973 37.241,82.545 40.031,80.880 C40.031,82.382 40.133,83.492 39.988,84.568 C39.913,85.132 39.490,85.725 39.066,86.144 C38.642,86.562 38.050,86.849 37.483,87.074 C35.827,87.728 35.304,88.863 35.377,90.661 C35.520,94.225 35.412,94.230 31.590,95.820 C31.590,92.677 31.562,89.618 31.624,86.561 C31.632,86.182 32.042,85.683 32.402,85.460 ZM44.308,93.799 C44.505,93.917 44.625,94.318 44.627,94.588 C44.649,97.602 44.640,100.616 44.640,103.987 C41.784,102.332 39.271,100.915 36.811,99.410 C36.443,99.186 36.127,98.555 36.118,98.107 C36.056,95.204 36.086,92.301 36.086,88.989 C38.988,90.677 41.661,92.218 44.308,93.799 ZM36.378,88.446 C39.148,86.836 41.661,85.315 44.246,83.931 C44.707,83.686 45.570,83.831 46.077,84.108 C48.514,85.437 50.893,86.872 53.619,88.460 C50.787,90.099 48.192,91.621 45.567,93.088 C45.265,93.255 44.710,93.251 44.408,93.082 C41.783,91.608 39.190,90.080 36.378,88.446 ZM45.938,93.664 C48.455,92.134 51.016,90.679 53.902,89.004 C53.902,92.409 53.917,95.471 53.875,98.531 C53.872,98.817 53.570,99.204 53.299,99.365 C50.766,100.868 48.210,102.332 45.326,104.001 C45.326,100.680 45.303,97.767 45.353,94.855 C45.359,94.446 45.615,93.861 45.938,93.664 ZM51.212,86.358 C49.818,85.903 49.908,84.769 49.945,83.639 C49.970,82.851 49.949,82.062 49.949,80.899 C52.795,82.587 55.373,84.080 57.899,85.659 C58.213,85.855 58.390,86.495 58.398,86.933 C58.440,89.837 58.419,92.742 58.419,96.023 C57.163,95.301 56.182,94.806 55.287,94.187 C54.951,93.955 54.778,93.449 54.603,93.038 C54.515,92.828 54.544,92.541 54.591,92.303 C55.167,89.343 54.130,87.311 51.212,86.358 ZM49.857,13.430 C57.099,17.609 64.022,21.603 71.205,25.749 C68.331,27.417 65.703,28.982 63.023,30.447 C62.674,30.637 61.975,30.439 61.558,30.204 C58.017,28.195 54.484,26.167 51.001,24.058 C50.479,23.741 49.930,22.978 49.907,22.402 C49.795,19.556 49.857,16.704 49.857,13.430 ZM58.388,44.931 C58.443,47.888 58.419,50.848 58.419,54.170 C57.108,53.423 56.031,52.887 55.056,52.208 C54.739,51.988 54.567,51.401 54.533,50.966 C54.474,50.170 54.508,49.355 54.612,48.561 C54.807,47.089 54.247,46.224 52.915,45.501 C49.576,43.685 49.615,43.614 50.132,39.211 C52.795,40.793 55.285,42.241 57.733,43.760 C58.073,43.971 58.382,44.528 58.388,44.931 ZM45.949,51.876 C48.480,50.370 51.031,48.895 53.908,47.218 C53.908,50.463 53.949,53.365 53.869,56.263 C53.854,56.764 53.447,57.446 53.018,57.709 C50.609,59.188 48.138,60.564 45.287,62.207 C45.287,58.843 45.270,55.745 45.314,52.647 C45.318,52.383 45.673,52.040 45.949,51.876 ZM45.821,42.145 C48.388,43.573 50.911,45.081 53.625,46.667 C50.804,48.294 48.156,49.850 45.469,51.335 C45.142,51.517 44.517,51.470 44.179,51.274 C41.624,49.796 39.108,48.255 36.411,46.631 C39.134,45.048 41.703,43.516 44.322,42.075 C44.704,41.864 45.419,41.922 45.821,42.145 ZM39.149,23.987 C35.562,26.158 31.920,28.236 28.264,30.287 C27.873,30.507 27.170,30.568 26.797,30.362 C24.211,28.939 21.674,27.426 18.794,25.751 C25.964,21.611 32.891,17.611 40.136,13.425 C40.136,16.667 40.193,19.454 40.094,22.236 C40.071,22.843 39.647,23.685 39.149,23.987 ZM44.707,53.150 C44.749,56.047 44.728,58.944 44.728,62.213 C41.839,60.535 39.327,59.114 36.867,57.609 C36.483,57.375 36.127,56.759 36.115,56.311 C36.049,53.410 36.082,50.506 36.082,47.274 C38.941,48.873 41.609,50.330 44.230,51.875 C44.538,52.057 44.701,52.712 44.707,53.150 ZM31.578,53.896 C31.578,50.922 31.562,47.965 31.597,45.009 C31.602,44.629 31.754,44.070 32.027,43.901 C34.566,42.328 37.147,40.822 40.023,39.116 C40.023,40.695 40.085,41.912 39.988,43.115 C39.955,43.515 39.584,43.983 39.235,44.242 C38.547,44.753 37.812,45.263 37.015,45.552 C35.510,46.098 35.046,47.182 35.354,48.591 C36.006,51.597 34.749,53.266 31.578,53.896 ZM72.099,66.199 C72.069,60.317 72.078,54.436 72.106,48.554 C72.110,48.107 72.205,47.430 72.496,47.252 C75.098,45.659 77.755,44.153 80.656,42.471 C80.656,52.562 80.656,62.281 80.656,72.329 C77.785,70.668 75.171,69.198 72.617,67.625 C72.276,67.415 72.102,66.688 72.099,66.199 ZM60.034,84.633 C59.342,84.953 58.235,85.003 57.582,84.661 C55.187,83.406 52.905,81.935 50.289,80.370 C55.868,77.127 61.347,74.371 66.334,70.902 C70.214,68.204 73.459,67.799 77.076,70.933 C77.978,71.716 79.156,72.179 80.445,72.928 C75.128,75.994 70.078,78.907 65.027,81.819 C63.370,82.774 61.762,83.833 60.034,84.633 Z" class="cls-1"/>
    <path d="M30.898,96.028 C28.323,94.544 25.983,93.206 23.653,91.854 C16.229,87.547 8.815,83.224 1.378,78.941 C0.506,78.439 0.006,77.947 0.009,76.819 C0.048,60.443 0.036,44.067 0.041,27.691 C0.041,27.346 0.110,26.999 0.173,26.401 C2.262,27.598 4.176,28.689 6.084,29.790 C13.888,34.299 21.678,38.835 29.511,43.295 C30.574,43.901 30.974,44.546 30.931,45.767 C30.835,48.477 30.901,51.193 30.901,54.255 C23.429,49.933 16.204,45.754 8.747,41.440 C8.699,42.295 8.639,42.880 8.638,43.465 C8.632,52.770 8.662,62.075 8.602,71.379 C8.593,72.674 9.023,73.361 10.115,73.980 C16.613,77.664 23.061,81.436 29.559,85.121 C30.539,85.676 30.966,86.265 30.929,87.428 C30.838,90.194 30.898,92.966 30.898,96.028 Z" class="cls-2"/>
    <path d="M89.861,26.641 C89.894,27.176 89.954,27.707 89.954,28.238 C89.960,44.233 89.939,60.228 89.990,76.223 C89.995,77.636 89.595,78.414 88.345,79.128 C79.127,84.401 69.959,89.762 60.772,95.092 C60.306,95.363 59.819,95.602 59.099,95.986 C59.099,92.683 59.044,89.611 59.158,86.545 C59.177,86.071 59.898,85.495 60.423,85.190 C66.878,81.430 73.356,77.708 79.835,73.989 C80.706,73.489 81.403,73.072 81.394,71.790 C81.325,62.118 81.355,52.445 81.350,42.772 C81.350,42.424 81.298,42.075 81.246,41.434 C73.817,45.742 66.600,49.925 59.098,54.275 C59.098,50.875 59.063,47.857 59.140,44.842 C59.149,44.416 59.617,43.846 60.025,43.609 C69.797,37.938 79.590,32.303 89.382,26.669 C89.474,26.617 89.615,26.652 89.861,26.641 Z" class="cls-2"/>
  </g>
</svg>
