<?xml version="1.0" encoding="utf-8"?>
<!-- Generator: Adobe Illustrator 19.0.0, SVG Export Plug-In . SVG Version: 6.00 Build 0)  -->
<svg version="1.1" id="图层_1" xmlns="http://www.w3.org/2000/svg" xmlns:xlink="http://www.w3.org/1999/xlink" x="0px" y="0px"
	 viewBox="0 0 24 24" style="enable-background:new 0 0 24 24;" xml:space="preserve">
<style type="text/css">
	.st0{fill:#FF6600;}
</style>
<path id="XMLID_1_" class="st0" d="M23.4,0.7C23.4,0.7,23.4,0.7,23.4,0.7C23.3,0.6,23.3,0.6,23.4,0.7C22.9,0.2,22.2,0,21.7,0
	c-0.4,0-0.9,0.2-1.2,0.5l-1.9,1.9l-3.3,3.3L2.6,4.1L0.9,5.8l9.4,4.8l-4.1,4.1l-5.3-0.4L0,15.2l0.4,0.2l-0.2,0.2l4.5,2.5l0.7,0.4
	l0.4,0.7l2.5,4.5l0.2-0.2L8.8,24l0.8-0.9l-0.4-5.3l4.1-4.1l4.8,9.4l1.7-1.7L18.3,8.7l3.3-3.3l1.9-1.9C23.8,3.2,24,2.8,24,2.3
	C24,1.8,23.8,1.2,23.4,0.7L23.4,0.7z"/>

</svg>
