<?xml version="1.0" encoding="utf-8"?>
<!-- Generator: Adobe Illustrator 19.0.0, SVG Export Plug-In . SVG Version: 6.00 Build 0)  -->
<svg version="1.1" id="图层_1" xmlns="http://www.w3.org/2000/svg" xmlns:xlink="http://www.w3.org/1999/xlink" x="33px" y="33px"
	 viewBox="0 0 50 100" style="enable-background:new 0 0 50 100;" xml:space="preserve">
<style type="text/css">
	.st0{fill:#FF6600;}
</style>
<path id="XMLID_8_" class="st0" d="M32.6,2.2c-1.5,0.1-2.9,0.2-4.4,0.3c-0.7,0-1.1,0.2-1.1,1c-0.1,1-0.3,2-0.5,3
	c-0.2,1-0.9,1.6-1.7,1.4c-0.8-0.2-1.3-0.9-1.2-1.9C23.8,5,24,4,24.1,2.9c-1-0.2-1.6,0.1-2.3,1.1c-1.9,2.9-3.2,6.1-4.1,9.4
	c-1,3.7-1.8,7.6-2.6,11.4c-0.1,0.4-0.3,0.8-0.5,1.2c-3.5,4.3-6.5,8.9-9,13.9c-2.1,4.4-2.8,9.1-3.1,13.8c-0.3,5.1,0,10.2,0.8,15.3
	c0.4,2.4,1.3,4.6,2.5,6.6c1.9,3.1,3.9,6.2,6,9.2C13,86.4,13.5,88,13,90c-0.2,0.9-0.3,1.8-0.4,2.7c-0.2,1.2,0.3,2,1.2,2.2
	c1,0.2,1.7-0.4,2-1.6c0-0.2,0.1-0.5,0.1-0.7l0.2,0c0.3,0.9,0.7,1.9,1,2.8c0.7,2.1,1.1,2.4,3.3,2.4c0.3,0,0.6,0,1,0
	c0-1.4,0-2.6,0-3.9c0-1.1,0.6-1.8,1.4-1.8c0.9,0,1.6,0.7,1.6,1.8c0,1.3,0,2.5,0,3.9l5,0c0.8,0,1.7,0,2.5,0c0.6,0,0.9,0.2,1.4,0.6
	c0.4,0.5,1.1,0.7,1.8,0.9c0.3,0.1,0.6,0,1,0c2.6,0.2,3.1-1,3.3-3c0.1-0.8,0.2-1.5,0.3-2.4c-4.9,0.3-9-1.1-12.2-4.8
	c-2.3-2.7-3.4-5.9-3.3-9.4c0.1-2.7,0.9-5.1,2.4-7.3c1.5-2.2,3.5-3.9,6-4.9c2.4-1,5-1.3,7.6-0.9l-0.1-33.1c-5.4,0.7-9.9-1-13.2-5.2
	c-2.3-2.9-3.2-6.3-2.8-10.1C24.5,11.6,31,4.7,40.3,6.3c-0.2-1.4-0.4-2.8-0.7-4.1c-0.1-0.3-0.3-0.6-0.5-0.8c-1.1-1-4.3-0.8-5.3,0.2
	C33.5,1.9,33,2.2,32.6,2.2L32.6,2.2z M16.4,75.9c-4.6-3.2-7.8-7-8.8-12.5l9.8-0.8L16.4,75.9z M24.2,56.1c0,0.6,0,1.2,0,1.8l0,0
	l0,1.8c0,0.1,0,0.1,0,0.2c-0.1,0.9-0.9,1.5-1.6,1.5c-0.8-0.1-1.3-0.7-1.3-1.6c0-1.2,0-2.4,0-3.6c0-0.9,0.6-1.6,1.5-1.6
	C23.5,54.5,24.1,55.1,24.2,56.1z M17.8,59.4c-3.5,0.3-7,0.5-10.4,0.8c-1.3-11.4,2.4-21,9.8-29.7C19.3,40.2,18.2,49.8,17.8,59.4
	L17.8,59.4z"/>
<path id="XMLID_7_" class="st0" d="M37.4,70.1c-5.5,0-9.9,4.5-9.9,10c0,5.5,4.4,10,9.6,10.1c6,0.2,10.6-4.8,10.5-10.1
	C47.6,74.4,43.2,70.1,37.4,70.1z M37.2,9.8c-5.4,0-9.8,4.5-9.9,9.7c-0.2,5.9,4.6,10.5,10,10.4c5.7-0.1,10.1-4.4,10.1-10
	C47.3,14.2,43,9.8,37.2,9.8z"/>
</svg>
