<?xml version="1.0" encoding="utf-8"?>
<!-- Generator: Adobe Illustrator 19.0.0, SVG Export Plug-In . SVG Version: 6.00 Build 0)  -->
<svg xmlns="http://www.w3.org/2000/svg" xmlns:xlink="http://www.w3.org/1999/xlink" version="1.1" id="图层_1" x="0px" y="0px" viewBox="0 0 24 24" style="enable-background:new 0 0 24 24;" xml:space="preserve">
<style type="text/css">
	.st0{fill:#484E53;}
</style>
<path class="st0" d="M9.5,2.4h9.2c0.5,0,0.8,0.4,0.8,0.8v17.6c0,0.4-0.4,0.8-0.8,0.8H5.3c-0.5,0-0.8-0.4-0.8-0.8V7.2h5V2.4z M2,6.4  v16C2,23.3,2.7,24,3.7,24h16.7c0.9,0,1.7-0.7,1.7-1.6V1.6C22,0.7,21.3,0,20.3,0H8.7L2,6.4z M7,13.6v1.6h5v-1.6H7z M7,16.8v1.6h10  v-1.6H7z M7,10.4V12h8.3v-1.6H7z"/>
</svg>
