<?xml version="1.0" encoding="utf-8"?>
<!-- Generator: Adobe Illustrator 19.0.0, SVG Export Plug-In . SVG Version: 6.00 Build 0)  -->
<svg version="1.1" id="图层_1" xmlns="http://www.w3.org/2000/svg" xmlns:xlink="http://www.w3.org/1999/xlink" x="0px" y="0px"
	 viewBox="0 0 38 50" style="enable-background:new 0 0 38 50;" xml:space="preserve">
<style type="text/css">
	.st0{fill:#FF270A;}
</style>
<path class="st0" d="M19.1,0C7.1,0-0.7,8.6,0.8,20.5C2.1,30,17.2,47,19.8,50c3.4-3.7,16.8-20,17.5-29.5C38.5,8.2,31.2,0,19.1,0z
	 M34.6,20.7c-0.4,5.8-12.3,21.6-14.9,25c-3-3.4-14.9-18.8-16.2-25C1.7,10.6,9.6,3,19.8,3C29.9,3,35.3,10.3,34.6,20.7z M15.8,10.1
	c0.9-0.6,2-0.9,3.1-0.9c0.6,0,1.2,0.1,1.7,0.4c0.2,0.1,0.3,0.3,0.5,0.4c0.5,0.1,1,0.3,1.4,0.6c0.5,0.5,0.8,1.3,0.9,2
	c0.1,1.2-0.1,2.5-0.5,3.7c0.3,0.3,0.4,0.6,0.4,1c0,0.4-0.1,0.9-0.3,1.2c-0.1,0.2-0.3,0.3-0.5,0.3c-0.1,0.6-0.3,1.2-0.6,1.8
	c-0.2,0.3-0.3,0.5-0.5,0.7c0,0.7,0,1.5,0.1,2.2c0.2,0.5,0.6,0.9,1.1,1.1c1.4,0.8,3,1.1,4.3,2c0.7,0.4,1.2,1,1.6,1.7
	c0.2,0.4,0.3,1,0.3,1.5c-6.5,0-13,0-19.5,0c0.1-0.8,0.3-1.6,0.7-2.2c0.3-0.5,0.9-0.9,1.4-1.2c1.1-0.7,2.5-1,3.7-1.7
	c0.5-0.3,1.1-0.7,1.4-1.3c0.1-0.7,0.1-1.5,0.1-2.2c-0.3-0.2-0.4-0.5-0.6-0.8c-0.3-0.5-0.5-1.1-0.5-1.7c-0.3-0.1-0.5-0.3-0.7-0.6
	c-0.2-0.3-0.2-0.7-0.3-1c0-0.3,0.1-0.7,0.4-0.9c-0.5-1-0.7-2.1-0.6-3.1c0-0.7,0.2-1.3,0.4-1.9C15,10.9,15.3,10.4,15.8,10.1
	L15.8,10.1z"/>
</svg>
