<?xml version="1.0" encoding="utf-8"?>
<!-- Generator: Adobe Illustrator 19.0.0, SVG Export Plug-In . SVG Version: 6.00 Build 0)  -->
<svg version="1.1" id="图层_1" xmlns="http://www.w3.org/2000/svg" xmlns:xlink="http://www.w3.org/1999/xlink" x="0px" y="0px"
	 viewBox="0 0 20 20" style="enable-background:new 0 0 20 20;" xml:space="preserve">
<style type="text/css">
	.st0{fill:#33D0FF;}
</style>
<path class="st0" d="M10.1,0C5.2,0,2.1,3.4,2.7,8.2C3.2,12,9.3,18.8,10.3,20c1.4-1.5,6.7-8,7-11.8C17.8,3.3,14.9,0,10.1,0z
	 M16.3,8.3c-0.2,2.3-4.9,8.6-5.9,10c-1.2-1.4-5.9-7.5-6.5-10c-0.8-4.1,2.4-7.1,6.5-7.1C14.4,1.2,16.5,4.1,16.3,8.3z"/>
<path id="XMLID_7_" class="st0" d="M10.1,12.4V8.2l3.3-1.7v4L10.1,12.4z M6.6,6.3L10,4.5l3.5,1.7L10,8L6.6,6.3z M9.9,12.4l-3.3-1.9
	v-4l3.3,1.7V12.4z"/>
</svg>
