<?xml version="1.0" encoding="utf-8"?>
<!-- Generator: Adobe Illustrator 19.0.0, SVG Export Plug-In . SVG Version: 6.00 Build 0)  -->
<svg version="1.1" id="Layer_1" xmlns="http://www.w3.org/2000/svg" xmlns:xlink="http://www.w3.org/1999/xlink" x="0px" y="0px"
	 viewBox="0 0 595 842" style="enable-background:new 0 0 595 842;" xml:space="preserve">
<style type="text/css">
	.st0{fill:none;stroke:#FFF462;stroke-width:7.200000e-02;stroke-miterlimit:3;}
	.st1{fill:none;stroke:#E4007F;stroke-width:7.200000e-02;stroke-miterlimit:3;}
	.st2{fill:none;stroke:#7ECEF4;stroke-width:7.200000e-02;stroke-miterlimit:3;}
	.st3{fill:none;stroke:#000000;stroke-width:7.200000e-02;stroke-miterlimit:3;}
	.st4{fill:none;stroke:#00A0E9;stroke-width:7.200000e-02;stroke-miterlimit:3;}
	.st5{fill:#FADCE9;}
	.st6{fill:#242A2F;}
	.st7{fill:#F7C9DD;}
	.st8{fill:none;stroke:#00A0E9;stroke-width:0.2835;stroke-miterlimit:3;}
	.st9{fill:none;stroke:#26B3D6;stroke-width:0.2835;stroke-miterlimit:3;}
	.st10{fill:#536B7F;}
	.st11{fill:#00A0E9;}
	.st12{fill:#242A2F;stroke:#26B3D6;stroke-width:0.2835;stroke-miterlimit:3;}
	.st13{fill:none;stroke:#00A0E9;stroke-width:0.216;stroke-miterlimit:3;}
	.st14{fill:none;stroke:#FFFFFF;stroke-width:0.2835;stroke-miterlimit:3;}
	.st15{fill:none;stroke:#666666;stroke-width:0.2835;stroke-miterlimit:3;}
	.st16{fill:none;stroke:#000000;stroke-width:0.7065;stroke-miterlimit:3;}
	.st17{fill:none;stroke:#000000;stroke-width:0.342;stroke-miterlimit:3;}
	.st18{fill:none;stroke:#000000;stroke-width:0.2835;stroke-miterlimit:3;}
	.st19{fill:#666666;}
	.st20{fill:#FFFFFF;}
	.st21{font-family:'MicrosoftYaHei';}
	.st22{font-size:12px;}
</style>
<line class="st0" x1="285.5" y1="977.9" x2="305.8" y2="977.9"/>
<line class="st0" x1="296" y1="977.9" x2="296" y2="985.4"/>
<line class="st1" x1="285.5" y1="977.9" x2="305.8" y2="977.9"/>
<line class="st1" x1="296" y1="977.9" x2="296" y2="985.4"/>
<line class="st2" x1="285.5" y1="977.9" x2="305.8" y2="977.9"/>
<line class="st2" x1="296" y1="977.9" x2="296" y2="985.4"/>
<line class="st3" x1="285.5" y1="977.9" x2="305.8" y2="977.9"/>
<line class="st3" x1="296" y1="977.9" x2="296" y2="985.4"/>
<line class="st0" x1="1032.9" y1="-104.8" x2="1046.6" y2="-104.8"/>
<line class="st1" x1="1032.9" y1="-104.8" x2="1046.6" y2="-104.8"/>
<line class="st2" x1="1032.9" y1="-104.8" x2="1046.6" y2="-104.8"/>
<line class="st3" x1="1032.9" y1="-104.8" x2="1046.6" y2="-104.8"/>
<line class="st0" x1="1032.9" y1="-117.3" x2="1032.9" y2="-104.8"/>
<line class="st1" x1="1032.9" y1="-117.3" x2="1032.9" y2="-104.8"/>
<line class="st2" x1="1032.9" y1="-117.3" x2="1032.9" y2="-104.8"/>
<line class="st3" x1="1032.9" y1="-117.3" x2="1032.9" y2="-104.8"/>
<line class="st0" x1="-441.7" y1="932.4" x2="-441.7" y2="949.7"/>
<line class="st0" x1="-453.3" y1="949.6" x2="-441.7" y2="949.6"/>
<line class="st0" x1="-470.1" y1="400.5" x2="-470.1" y2="438.2"/>
<line class="st0" x1="-489.3" y1="419.5" x2="-470.1" y2="419.5"/>
<line class="st0" x1="-452.3" y1="-104.8" x2="-441.6" y2="-104.8"/>
<line class="st0" x1="-441.7" y1="-118" x2="-441.7" y2="-104.8"/>
<line class="st1" x1="-441.7" y1="932.4" x2="-441.7" y2="949.7"/>
<line class="st1" x1="-453.3" y1="949.6" x2="-441.7" y2="949.6"/>
<line class="st1" x1="-470.1" y1="400.5" x2="-470.1" y2="438.2"/>
<line class="st1" x1="-489.3" y1="419.5" x2="-470.1" y2="419.5"/>
<line class="st1" x1="-452.3" y1="-104.8" x2="-441.6" y2="-104.8"/>
<line class="st1" x1="-441.7" y1="-118" x2="-441.7" y2="-104.8"/>
<line class="st4" x1="-441.7" y1="932.4" x2="-441.7" y2="949.7"/>
<line class="st4" x1="-453.3" y1="949.6" x2="-441.7" y2="949.6"/>
<line class="st4" x1="-470.1" y1="400.5" x2="-470.1" y2="438.2"/>
<line class="st4" x1="-489.3" y1="419.5" x2="-470.1" y2="419.5"/>
<line class="st4" x1="-452.3" y1="-104.8" x2="-441.6" y2="-104.8"/>
<line class="st4" x1="-441.7" y1="-118" x2="-441.7" y2="-104.8"/>
<line class="st3" x1="-441.7" y1="932.4" x2="-441.7" y2="949.7"/>
<line class="st3" x1="-453.3" y1="949.6" x2="-441.7" y2="949.6"/>
<line class="st3" x1="-470.1" y1="400.5" x2="-470.1" y2="438.2"/>
<line class="st3" x1="-489.3" y1="419.5" x2="-470.1" y2="419.5"/>
<line class="st3" x1="-452.3" y1="-104.8" x2="-441.6" y2="-104.8"/>
<line class="st3" x1="-441.7" y1="-118" x2="-441.7" y2="-104.8"/>
<g>
	<path class="st5" d="M300.5,322.9c0,0.3,0.1,1.1,0.5,1.3c0.4,0.2,1.6,0.4,2.6,0.7c1,0.3,1.4,0.5,2.5,1.2c1,0.7,1.2,0.8,1.9,0.7
		c0.7,0,2,0.1,2.4,0.6c0.3,0.4,0.8,0.9,2.1,0.9c1.3,0,3.7,0,3.7,0s1.2,0,0.9,0.7c-0.3,0.8-0.2,1.1-0.2,1.1c0.3,1.4,5-0.4,5-0.4
		c0.3-0.4,0.9-0.8,0.3-1c-0.7-0.2-1.2-0.3-0.7-0.5c0.5-0.3,0.7-0.5,0.8-0.8c0.1-0.3,0.6-1.1,0.6-1.1s1.4-0.2,2.4-0.1
		c1,0,1.6-0.5,2-0.7c0.4-0.2,1.3,0,0.9,0.4c-0.4,0.4-0.7,1.1,0,0.7c0.6-0.4,1.1-0.5,1.1-1.2c0-0.7,0.4-1.8,0.7-2.1
		c0.3-0.3,1-1.1,1-1.1s0.4-0.3,1.1-0.8c0.7-0.5,1.7-1.1,1.7-1.1s0.7-0.5,0.6-0.1c0,0.4,0.3,0.6,0.9,0.3c0.6-0.3,0.9-0.3,1-0.7
		c0.1-0.4,0-1.1,0.5-1.1c0.5-0.1,1.2-0.3,1.2-0.3s0.2-0.8,0.2-1.1c0-0.3,0.1-0.5-0.3-0.6c-0.3-0.2-0.3-0.4-0.4,0
		c-0.2,0.4-0.2,0.5-0.5,0.6c-0.2,0-0.5,0.1-0.7-0.2c-0.2-0.3-0.3-0.6,0.1-0.8c0.4-0.2,1.1-0.5,1.4-0.7c0.3-0.2,0.2-0.7,0.3-1.2
		c0.1-0.6,0.5-1.5,0.7-2c0.2-0.5,0.5-1.6,0.6-1.9c0.1-0.3,0.4-0.8,0.6-1c0.2-0.2,0.3-1.2,0.4-1.7c0.1-0.5,0.1-0.7,0.4-0.9
		c0.3-0.2,0.3-0.6,0.5-1c0.1-0.4,0.3-0.7,0.8-1c0.4-0.3,1.1-0.8,1.3-1.1c0.2-0.3,0.7-1.1,0.4-1.7c-0.3-0.6-0.6-1.4-0.6-1.4
		s0.1-0.3,1.1-0.3c1,0,1,0.2,0.6,0.5c-0.4,0.3-0.3,1.1-0.1,1.4c0.3,0.3,0.7,0.3,1-0.2c0.3-0.6,0.6-1,1-1.4c0.4-0.4,0.9-0.8,1.3-0.8
		c0.4,0,0.7-0.2,0.5-0.8c-0.2-0.6-0.3-1.2-0.1-1.6c0.2-0.4,0.3-0.8,0.4-1c0.1-0.2,0.2-0.4,0-0.8c-0.2-0.3-0.3-1-0.1-1.3
		c0.3-0.3,0.5-1-0.4-1.1c-1-0.1-1.7-0.2-3.1-0.4c-1.4-0.2-1.5-0.1-2.1-0.4c-0.6-0.3-1.5-0.6-1.7-1.2c-0.2-0.6-2.1-2.5-2.5-2
		c-0.4,0.5-0.6,2.6-0.6,2.9c0,0.2-0.4,0.7-1.1,0.4c-0.7-0.3-2.5-1.1-2.5-1.1s-0.9,0-0.3,0.5c0.6,0.5,1.4,1-0.2,0.8
		c-1.5-0.2-1.9-0.4-2.6-0.6c-0.6-0.2-1.1-0.7-1.7,0.1c-0.6,0.8-0.7,1.3-1.5,1.4c-0.8,0.1-0.5,0.3-0.8,0.8c-0.2,0.6-0.6,1-0.6,1
		s-0.1-0.7-0.4-1.2c-0.4-0.4-0.8-0.9-1.2-0.7c-0.4,0.2-0.9,0.5-0.9,0.5s0-0.2-0.5-0.3c-0.5-0.1-0.4-0.2-0.6,0.1
		c-0.3,0.3-0.7,0.3-1.3-0.1c-0.6-0.4-0.8-0.9-1.2-1c-0.4-0.1-0.9,0-1.3,0.3c-0.3,0.3-0.7,0.3-1,0.7c-0.3,0.5-0.7,1.5-0.8,1.9
		c-0.1,0.4-0.3,0.9-0.5,0.9c-0.2,0-0.6-0.3-1-0.4c-0.4-0.1-0.8-0.1-1.3-0.1c-0.5,0-0.4-0.2-1.1-0.4c-0.7-0.2-1.4-0.1-1.6,0.2
		c-0.2,0.3-1,1.2-1.3,1.5c-0.3,0.3-0.7,1.5-0.7,1.5s0.9-0.7,1.7-0.8c0.8,0,1.1,0.4,1.2,0.8c0.1,0.4-0.3,0.7-1,0.7
		c-0.8,0-1.1,0.4-1.6,0.7c-0.5,0.2-2.7,0.9-3.3,1.7c-1.7,2-1,1.1-2.7,2.3c-0.6,0.4-1.6,0.7-2,1c-0.4,0.3-1.6,0.6-1.9,0.9
		c-0.2,0.4-0.3,0.1-0.2,0.6c0.1,0.5-0.1,0.8-0.1,0.8s0.2,0-0.3,0.4c-0.5,0.4-0.5,0.5-0.5,1.1c0,0.7-0.2,1.4-0.5,2
		c-0.3,0.5-0.5,1.1-0.2,1.6c0.3,0.5,1,1.1,0.7,2.3c-0.3,1.2-0.1,2.6-0.1,3C300.1,320.5,300.7,320.2,300.5,322.9L300.5,322.9z"/>
	<path class="st6" d="M407.3,239.9l0.8-0.2c0,0,0.8-0.9,1.1-0.9c0.3,0,1.7-0.4,1.9-0.4c0,0,0,0,0.1,0c0.1-0.3,0.4-0.6,1-0.9
		c1.3-0.6,1.5-0.7,1.9-0.7c0.3-0.1,0.7-0.5,1.4,0c0.6,0.5,0.8,0.7,0.8,0.5c0-0.1,0.6,0.1,0.6,0.9c-0.1,0.8,0.2,0.7,0.6,1
		c0.4,0.3,2.1-0.2,1.7-0.7c-0.4-0.4-0.8-1.5-0.8-1.1c-0.1-0.3,0.1-0.4,0.2-0.6c0.1-0.1,0-0.1,0-0.3c0.1-0.3,0.3-0.9-0.5-0.5
		c-0.8,0.4-2,0.3-1.5-0.3c0.2-0.2,0.1-0.6,0.3-0.7c0.2-0.1,1.4-0.1,1.4-0.1l0.3,0c1-0.5,3.9-1,3.1,0.8c-0.8,1.7-0.5,3.4,1.4,2.9
		c1.9-0.4,3.1-1,2.2-2.4c-0.9-1.4,0.4-1.8,0.3-1.5c0-0.1-0.4-0.4,0.3-0.4c4.6-0.3,2-0.7,4.2-0.1c3.1,0.8,1.2,2.5,2.7,2.2
		c0.4-0.1,0.8-0.3,1.4,0c0.6,0.3,1.2,0.8,1.2,0.8s0.3,0.2,0.4-0.2c0.1-0.4,0.1-0.9,0.4-1.1c0.2-0.2,0.4-0.9,0.1-1
		c-0.3,0-0.6-0.1-0.7,0.3c-0.2,0.4-0.4,0.3-0.5-0.1c-0.5-1.5-0.2-1-0.3-2l0-0.9c0,0-0.1,0,0.5,0.1c0.6,0.1,0.7,0.1,1-0.2
		c0.3-0.3,0.3-0.4,0.7-0.4c0.3,0,0.1,0,0.8-0.3c0.7-0.3,0.9-0.4,1.1-0.2c0.2,0.2,0.7,1.4,1.2,1.9c0.2,0.3,0.2,0.8,0.2,1.1
		c0,0.3-0.1,0.4,0.4,0.1c0.5-0.3,0.8-0.5,1.5-0.7c0.7-0.2,1.9-0.9,2.1-1c0.3-0.2,0.9-1,0.7-1.2c-0.2-0.2-0.4-0.8,0.2-0.6
		c0.7,0.2,1,0.3,1.4,0.4c0.4,0.1,0.2,0.2-0.1,0.7c-0.3,0.5-0.8,1-0.3,0.9c0.4-0.1,1.2-0.6,1.5-1.1c0.3-0.4,1.2-1.1,1.4-1.4
		c0.2-0.3,0.7-0.9,1.2-0.6c0.5,0.2,1.1,0.4,1.9,0.4c0.9,0,1.5-0.1,1.6-0.4c0.2-0.3,0.1-0.8,0.4-1c0.3-0.2,0.6-0.9,0.5-1.1
		c-0.1-0.3-0.6-0.9-0.5-1.3c0.7-2.2-0.1-2.6,0-2.6c2-0.3,2.3-1.6,4.2-0.1c0,0,0.5,0.1,0.2-0.5c-0.3-0.6-0.5-1.3-1.1-1.2
		c-0.6,0.1-0.4-0.1-1.4,0.1c-1,0.2-1.4,0-1.8-0.2c-0.4-0.2-1-1.1-0.8-1.3c0.1-0.2,0.2-0.6,0.7-0.2c0.5,0.4,1,0.9,1.6,0.9
		c0.6,0,1.5,0,2.1-0.2c0.5-0.2,0.7-0.2,1-0.4c0.3-0.2,0.9-0.4,1-1.1c0.1-0.6,0.3-2.2,0.3-2.2l0.3-1.3l-38.9,0.1l-17-0.1l-26.1,0
		l-17.7,0.1l-0.6,0.1c0.4,0.1,0.7,0.1,0.7,0.2c-0.2,0.8-1.5,1.8-1.5,1.8s-1.9,1.3-2.2,1.6c-0.3,0.4-1,1.9-1,1.9s-0.6,8.5-0.7,9.6
		c-0.1,1.1-3.1,4.9-3.1,4.9l-2.9,2.3c0,0-1.5,2.1-2.9,2.3c-1.4,0.2-1.9,1.2-2.4,1.9c-0.5,0.7-1.6,1.3-1.6,1.3l-1.8,3.5
		c0,0-1,1.5-3.1,1.9c-2.1,0.4-2.1,4.4-2.2,4.9c0,0.5-0.7,0.5-0.7,0.5s-3.4,1.8-3.6,2c-0.2,0.2-1.7-1-2.7-1.2c-1-0.1-1.7,1.8-1.9,2.9
		c-0.1,1.1-3,1.9-3,1.9s-3.6,0.6-3.7,0.2c0,0,0,0,0,0c0,0,0,0,0,0c0.4,0.8,0.9,1.5,1.2,1.7c1.3,0.7,2.8,0.9,3,0.8
		c0.4-0.4,0.8-0.5,0.8-0.5c1.9,0.6-0.6,1.5,1.2,2.4c0,0,0.4,0.4-0.4,0.4c-0.8-0.1-1.8-0.4-2.3,0.2c-0.4,0.6-0.8,0.6-0.7,1.3
		c0.2,2.7-1.1,1.6-1.2,4.7c0,0.3-0.5,2.2-0.6,2.7c-0.1,0.5-0.1,0.7,0.2,1.1c2.6,3.3,1.4,4.5,1.6,4.6c0.4,0.2,0.5,0.3,0.8,0.7
		c0.3,0.4,0.3,1.2,0.4,1.4c0.1,0.2-0.3,0.3,0.5,0.4c0.7,0.1,1,0.4,1.5,0.8c0.4,0.4,0.3,0.5,1,0.6c0.6,0.1,1.1,0.3,1.1,0.3
		s-0.4,0.7-0.5,1.1c0,0.4,0.2,1.1-0.2,0.5c-0.4-0.6-1.2-1.6-1.4-1.4c-0.1,0.3-0.7,0.6-0.5,1c0.2,0.5,0.2,0.6,0.4,1
		c0.3,0.3,0.3,0.4,0.3,0.8c0,0.4,0.2,0.8,0.7,0.5c0.6-0.3,0.1-0.5,0.9-0.5c0.8,0.1,0.6,0.1,1,0.3c0.4,0.2,0.3,0.2,0.7,0.4
		c0.4,0.2,0.6,0.2,1.1,0.1c0.4-0.1,0.9-0.1,1.3-0.4c0.4-0.3-0.1-0.6,0.7-0.2c0.7,0.3,1.3,0.7,1.9,0.4c0.6-0.3,0.8-0.6,1.4-0.6
		c0.6-0.1,1.2-0.7,1.6-1.3c0.4-0.6,1-0.6,1-1.5c0.1-0.9,0-1.1-0.2-1.6c-0.2-0.5-0.5-0.7-0.5-0.7s-0.2-0.2-0.4,0.1
		c-0.2,0.3-0.8-0.2-1-0.6c-0.2-0.3-1-1.5-1.3-1.6c-0.3-0.1-0.8-0.5-0.8-0.7c0-0.2-0.3-1-0.3-1s0.2-0.9,0.4-0.9
		c0.2,0,0.6,0.2,0.6,0.5c0,0.3,0.9,0.7,1,0.3c0.1-0.4,0.3-1,0-1.3c-0.3-0.3-1-0.7-1.7-0.8c-0.7-0.1-1.3-0.1-1.7-0.1
		c-0.4,0-0.6-0.4-0.5-0.7c0-0.3-0.3-1-0.3-1.3c0-0.3,0.4-1.3,0.5-1.7c0.1-0.4-0.1-2-0.1-2c0.3-0.9,2.7,1,2.4,1.5
		c-0.1,0.3-0.9,1.2-0.9,1.3c0.1,0.2,0.2,0.3,0.6,0c0.4-0.2,0.8-0.3,1.2-0.4c0.4-0.1,1.1-0.1,1.7,0.2c0.5,0.2,0.8,0.1,1,0.6
		c0.2,0.5,0.7,1.5,0.7,0.4c0.1-1.1,0.3-2,0.3-2s0-1-0.6-0.8c-0.5,0.2-1.1,0.4-1.3,0.5c-0.2,0-0.7,0-0.8-0.3
		c-0.1-0.3-0.7-0.2-0.7-0.2s-0.5-0.3-0.1-0.6c2.2-1.6,0.5-1.8,0.7-3.2c0-0.3,0.1-0.4,0.2-0.6c0.1-0.2,0.1-1.1,0.7-1
		c0.6,0.1,1.2,0.2,1.2,0.6c-0.1,0.4-0.1,0.4-0.5,0.9c-0.4,0.6-0.8,1-0.1,0.9c0.7-0.1,1.3,0.1,1.9,0.1c0.6,0,1.1-0.2,1.3-0.6
		c2.5-4.3,0.4-1.4,1.8-2.5c0.3-0.2,1-0.3,1.7-0.2c0.7,0.1,1.4,0.4,2,0.2c0.5-0.2,2-0.9,2-0.9s0.9-0.7,0.6-0.9
		c-0.4-0.1-0.6-0.4-0.6-0.4s-0.1-0.7,0.5-0.7c1.1-0.2,3.3-0.3,3.7-0.2c1,0.3,1.7,0.8,1.7,0.8s0,0.6,0.8,0.4c1.7-0.5,2.1-1.1,4.5-1.1
		c0.9,0,1.7-0.1,1.9-0.4c0.2-0.3,0.4-0.8,0.8-1.2c0.3-0.4,1.3-0.6,1.5-0.8c0.2-0.2,0.4-1.3,0.4-1.3s-0.5-0.5-1.2-1
		c-0.7-0.5-0.9-1.2-0.1-0.9c0.7,0.3,0.8,0.2,1,0.1c0.2-0.2,0.4,0.1,0.8,0.3c0.5,0.2,0.9,0.1,0.6,0.7c-0.2,0.6-0.3,0.7-0.1,0.9
		c0.3,0.2,0.9,0.2,0.9,0.2s0.6,0.7-0.2,0.6c-0.8-0.1-0.6,0.4-0.7,0.9c-0.1,0.5-0.5,1.2-0.5,1.2s0.1,0.3,1-0.4
		c0.9-0.7,1.9-1.3,1.9-1.3s0.4-0.6-0.1-0.6c-0.6,0.1-1-0.3-0.7-0.7c0.3-0.4,0.8-0.9,0.9-1.1c0.1-0.3,0.4-1,0.4-1
		c-0.1-0.6,1.7-0.8,2.6-1.5c0.3-0.2,0.5-0.7,0.8-0.4c0.5,0.8,0.6,2.8,0.9,2.9c0.2,0.1,0.9,0.5,1.5,0.4c0.6-0.1,1.6-0.2,1.8-0.4
		c0.2-0.1,0.4-0.9,0.3-1.4c0-0.5-0.1-2-0.1-2l-0.8-1.2c0,0,0-1.2,0.2-1.5c0.1-0.3,0.6-1,0.6-1s0.5-0.3,0.4,0.6
		c-0.3,1.8,0.5,4.5,2.1,5.2c0,0,0.8,0.3,1.2,0.3c0.3,0,0.9-0.1,1.1-0.4c0.2-0.3,1-1.2,1.1-1.4c0.2-0.2,1.3-1.2,1.3-1.2
		s0.9-0.8,1.3-0.9c0.4-0.1,0.7,0.2,0.8,0.8c0.1,0.6,0.1,1.2,0.4,1.3c0.2,0.1,0.6,0.2,0.9-0.1c0.4-0.2,1.4-1.2,1.5-1.3
		c0.1-0.1,0.2-0.7,0.1-1c-0.1-0.3-0.5-1.9-0.3-2.3c0.2-0.4,1.1-2,1.1-2l0.3-0.5c0,0,0.8-0.9,0.8,0.3c0,1.2-0.2,2,0.2,2.2
		c0.4,0.2,0.3,0.6,0.9,0.7c0.6,0.1,1.3,0.3,1.6,0.1c0.3-0.2,0.7-0.5,0.7-0.5s1.2-1.4,1.3-1.8c0.1-0.4,0.5-0.8,0.5-0.8
		s0.1-0.4,0.5-0.2c0.4,0.2,0.8,0.7,1.4,0.6c0.6-0.1,1.1-0.3,1.1-0.3s0.8-0.9,0.9-1.4c0,0-0.2-6.1-1-6.4c-0.9-0.4-0.8-5.9-0.9-6.4
		c-0.3-1.1-0.2-2.2-0.2-3.4c0-0.3,0-1.1,0.3-0.6c0.3,0.5,0.4,0.1,0.5,1.1c0.1,0.9,0.3,1.5,0.4,1.8c0.2,0.3,0.9,1.3,0.9,1.3l0.5,1
		c0.3,0.6,0.8,1.3,1.5,0.8c1.5-1,1.4,1.2,1.7,1.7c0.1,0.2,0.4,0.6,0.7,0.9c0.3,0.3,0.3,0.9,0.5,1c0.2,0.1,0.7,0.3,0.7,0.7
		c0,0.4-0.9,0.3-0.4,0.8c0.4,0.4,0.4,0.4,0.4,0.4l0.9-0.8c0,0,0.4-1.2,1.5-0.7C407,239.6,407.2,239.8,407.3,239.9L407.3,239.9z"/>
	<path class="st6" d="M288,261.5c0.2-0.2,0.8-0.5,1-0.6c0.2-0.1,1.1-0.5,1.4-0.8c0.3-0.2,1.2-0.7,1.2-0.7s0.8-0.1,0.7,0.6
		c-0.1,0.7-0.4,1.5-0.4,1.5s0.5-0.1,0.8-0.4c0.3-0.3,0.6-0.6,0.5-1.5c-0.1-0.9,0.1-1.6,0.1-1.6l0.7-1c0,0,0,0.2,0.1,0.7
		c0.1,0.5-0.2,0.8,0.5,0.6c0.7-0.2,1.4-0.5,1.3-0.2c-0.1,0.4-0.8,1.4-0.8,1.7c0,0.3,0.1,0.7,0.7,0.7c0.6-0.1,1.2-0.5,1.5-0.9
		c0.3-0.4,0.7-0.9,0.8-1.1c0.1-0.2,0.4-0.5-0.1-0.6c-0.5-0.1-1-0.2-0.7-0.6c0.3-0.4,0.3-0.4,0.3-0.4s-0.2-0.6-0.5-0.9
		c-0.2-0.3-0.7-0.5-0.7-0.5s-0.5-0.6-0.4-1.2c0.1-0.7,0.2-0.9,0.2-0.9s0.3,0.3,0.5,0.4c0.2,0.1,0.4,0.1,0.6-0.1
		c0.3-0.2,0.5-0.2,1,0.1c0.4,0.3,0.7,0.6,0.6,0.8c-0.1,0.2-0.6,0.9-0.5,1.2c0.1,0.3,0.2,0.8,0.6,0.8c0.3,0,0.4,0,0.8-0.5
		c0.4-0.4,0.9-0.9,0.7-0.5c-0.2,0.5-0.6,0.8-0.4,1.3c0.3,0.8,0.8,1.6,1.1,2c0.2,0.4,0,0.5,1,0.5c1,0,1.3-0.2,1.6-0.2
		c0.3-0.1,0.4-0.2,0.2-0.4c-0.2-0.2-1.1-0.9-1.1-1.1c0-0.2-0.2-0.6,0-0.9c0.2-0.3,0.2-0.6,0.3-1.1c0.1-0.4,0-1,0.3-0.7
		c0.4,0.4,0.8,1.1,1.2,1.2c0.4,0.1,0.9,0.3,0.9,0.3s-0.3-0.1-0.6,0.4c-0.9,1.4,0,0.7,0.3,1.3c0.2,0.3,0.4,0.6,0.5,0.8
		c0.1,0.2,0.3,0.4,0.8,0.3c0.4-0.1,1-0.4,1-0.4l0.4,0c0,0,0.3-0.1,0.2,0.3c-0.1,0.4,0,0.6,0.5,0.6c0.5,0,0.9-0.1,1.2,0.3
		c0.3,0.3,0.7,1,0.4,1.1c-0.3,0.1-2,1-2,1s-1.3,1-0.2,1.2c1.2,0.2,1.6,0.3,2.3,0.2c0.7-0.1,0.9-0.2,1.1-0.5c0.3-0.4,0.5-0.5,0.9-0.3
		c0.5,0.2,3,0.2,3.4,0c0.4-0.1,1.9-1,2.1-1.5c0.3-0.5,0.4-1.7-0.4-2.3c-0.8-0.7-1-0.7-1-0.7l1.3-1.2c0,0,0.8-0.4,0.6,0.2
		c-0.2,0.6-0.1,0.9,0.1,1.3c0.2,0.3,0.4,0.3,0.5,0.8c0.1,0.4,0.2,0.8,0.4,1.2c0.2,0.4,3.7-0.2,3.7-0.2s2.9-0.8,3.1-1.9
		c0.1-1.1,0.9-3,1.9-2.9c1,0.1,2.4,1.4,2.7,1.2c0.2-0.2,3.6-2,3.6-2s0.7,0,0.7-0.5c0.1-0.5,0.1-4.4,2.2-4.9c2.1-0.4,3.1-1.9,3.1-1.9
		l1.8-3.5c0,0,1.1-0.6,1.6-1.3c0.5-0.7,1-1.7,2.4-1.9c1.4-0.2,2.9-2.3,2.9-2.3l2.9-2.3c0,0,3.1-3.8,3.1-4.9c0.1-1.1,0.7-9.6,0.7-9.6
		s0.7-1.5,1-1.9c0.3-0.4,2.2-1.6,2.2-1.6s1.3-1,1.5-1.8c0.2-0.8-20.1-0.3-20.1-0.3L316,216l-15.6,0l-23.1,17.6l-15.6,11.7
		c0,0-1.9,6.2-0.1,8.2c1.7,2,10.5,6.6,10.5,6.6l12.3,2.3L288,261.5L288,261.5z"/>
	<path class="st6" d="M407.3,239.9l0.8-0.2c0,0,0.8-0.9,1.1-0.9c0.3,0,1.7-0.4,1.9-0.4c0,0,0,0,0.1,0c-0.1,0.3,0,0.6,0,0.6l0.7-0.1
		c0,0,0.7,0.5,0.9,0.5c0.2,0,0.5,0.2,0.5,0.2l0.6,0.4c2.8,0.2,0.5,2.7,0.5,2.7s0.2,0.3-0.6-0.7c-0.7-1-1.4,0.3-1.5,0.4
		c-0.1,0.1,1.2,1.1,1.2,1.1l0,0.9c0,0-0.2,0.2-0.7-0.4c-0.6-0.7-1.3-0.5-1.8-0.1c-0.4,0.4-1-0.1-1.4-0.8c-0.4-0.7-0.9-0.3-1.2-0.3
		c-0.3,0-3,0.2-3,0.2s-0.1-0.7,0.1-0.9c0.2-0.2,1.3-1.8,1.7-1.6C407.3,240.7,407.6,240.3,407.3,239.9L407.3,239.9z"/>
	<path class="st6" d="M404.6,246.8c0,0-0.4-0.8,0.2-1.2c0.6-0.3,0.7-0.8,1.1-0.7c0.4,0.1,0.8-0.3,1.2-0.8c0.4-0.4,1.1-0.9,1.3-0.6
		c0.1,0.3-1.2,0.9-0.8,1.8c0.4,0.9-0.2,1.1-0.4,0.9c-0.2-0.2-0.1-1-0.9-0.3c-0.8,0.7-0.8,0.2-1.1,0.5
		C404.9,246.7,404.6,246.8,404.6,246.8L404.6,246.8z"/>
	<path class="st6" d="M409.6,245.5c0,0-0.8-0.8,0.1-0.8c0.9,0.1,1.6-0.5,2,0c0.4,0.5,0.3,0.3,0.4,0.9c0.1,0.6-0.4,0.9-0.6,0.7
		c-0.2-0.2-0.1-0.8-0.9-0.8C409.8,245.5,409.6,245.5,409.6,245.5L409.6,245.5z"/>
	<path class="st6" d="M553.3,216.5c0,0-0.7,1.1-1.3,2.2c-0.6,1.1-0.7,1.8-1.4,3.4c-0.8,1.6-1,3.2-1.3,4.4c-0.3,1.2-1.1,3.4-2,4.1
		c-0.9,0.7-1.7,2.9-2.3,3.6c-0.6,0.7-0.7,3.5-1,4.6c-0.3,1.1-0.6,3.3-0.9,4.2c-0.3,0.9-0.4,2.8-0.4,4.3c0,1.6-0.7,3.3-1.1,3.6
		c-0.4,0.3-1.4,0.3-2-0.1c-0.6-0.4-0.7-0.6-0.9-0.6c-0.2,0-0.3,0-0.6,0.1c-0.5,0.1-1.2,0.1-1.6-0.3c-0.5-0.4-0.6-2.7-0.5-3.7
		c0-1-0.1-0.9-0.7-2.6c-0.6-1.7-1.3-2.4-1.8-3.3c-0.5-0.9-2.7-1.5-3.7-2.4c-1-1-1.4-1.9-1.4-3.4c0-1.5-0.6-1.2-0.8-2.7
		c-0.2-1.5-1.1-3-1.5-4.3c-0.4-1.4-0.3-6,0.2-6.9c0.5-0.8,0.3-1.6,0.5-2.6c0.2-1-0.3-1.4-0.3-1.4s6-0.3,7.4-0.2
		C535.2,216.4,553.3,216.5,553.3,216.5L553.3,216.5z"/>
	<path class="st7" d="M72.2,403.3l1.3,1.2c0,0,0.6,1.2-0.5,1.2c-1.1,0-1.7-0.4-1.7-1c0.1-0.6,0-0.9,0.3-1.2
		C71.8,403.2,72.2,403.3,72.2,403.3L72.2,403.3z"/>
	<path class="st7" d="M76.2,427.1c0,0,1.5-0.4,1.9-0.1c0.5,0.3,1,1.4,1.3,1.7c0.3,0.3,0.7,1.8-0.7,1.6c-1.4-0.2-2.2-0.8-2.4-1.4
		c-0.1-0.5-0.4-0.9-0.4-1.3C76,427.2,76.2,427.1,76.2,427.1L76.2,427.1z"/>
	<path class="st6" d="M391.4,252c0,0,1-0.2,1,0.1c0,0.3,0,0.9-0.3,1.1c-0.3,0.2-1,0.5-1,0.1c0-0.3,0-0.7,0.1-0.9
		C391.3,252.1,391.4,252,391.4,252L391.4,252z"/>
	<path class="st6" d="M392.3,254.3c0,0,0.2-1.1,0.5-0.9c0.3,0.2,0.4,0.3,0.4,0.8c0,0.5,0.2,0.8-0.2,0.8c-0.4-0.1-0.8-0.3-0.8-0.3
		L392.3,254.3L392.3,254.3z"/>
	<path class="st6" d="M396.7,249.8c0,0,1.1,0.2,1.5,0.2c0.4,0,0.7,0.3,0.4,0.7c-0.3,0.4-0.6,0.7-0.8,0.6c-0.2,0-0.4-0.1-0.7-0.3
		c-0.3-0.2-0.7-0.1-0.6-0.6C396.5,250,396.7,249.8,396.7,249.8L396.7,249.8z"/>
	<path class="st6" d="M382.5,258c0,0,0.6,0,0.8-0.4c0.3-0.4,0.5-0.7,1-0.5c0.5,0.2,0.9,0.4,0.5,0.7c-0.4,0.3-0.7,0.4-0.8,1.1
		c-0.1,0.7-0.2,1.2-0.2,1.6c0,0.4,0,0.9-0.3,0.8c-0.4-0.1-0.9-0.2-0.8-0.7c0.1-0.5,0.2-1.1,0.2-1.1s0.1-0.4-0.2-0.3
		c-0.4,0.1-1-0.1-0.8-0.5C382.1,258.3,382.5,258,382.5,258L382.5,258z"/>
	<path class="st6" d="M378.9,259.4c0,0-0.1-0.7,0.7-0.8c0.7-0.1,0.8-0.6,1-0.2c0.2,0.3,0.4,0.3,0.2,0.8c-0.2,0.5-0.2,0.9-0.2,0.9
		s0.2,0-0.3,0.4c-0.5,0.4-1.2,0.2-1.5,0.3c-0.3,0.1-0.8,0.2-0.4-0.4C378.8,259.8,378.9,259.4,378.9,259.4L378.9,259.4z"/>
	<path class="st6" d="M338.1,268.9c0,0-1.2,0.1-0.3,0.7c0.9,0.7,1.4,1.2,1.7,0.7c0.3-0.5,1.1-1.1,0.6-1.3
		C339.4,268.9,338.1,268.9,338.1,268.9L338.1,268.9z"/>
	<path class="st6" d="M339.4,274.2c0,0-0.5,0.5-0.3,0.8c0.1,0.4,0.8,0.7,1.3,0.1c0.5-0.6,0.2-1,0-1.1
		C340.1,274,339.4,274.2,339.4,274.2L339.4,274.2z"/>
	<path class="st8" d="M394.4,247.3c0,0-3-4-3.4-5.6c-0.4-1.7-0.8-3.7-1.7-4.6c-1-1-3-2.4-3.3-3.2c-0.4-0.8-2.3-4.2-2.3-4.7
		c-0.1-0.5-0.2-1.9-1.6-1.7c-1.5,0.2-2.8,0.5-3.5,1.2c-0.7,0.7-1.1,1.2-2,0.7c-0.9-0.5-2.8-1.2-3.6-0.7c-0.8,0.5-2.2,1.4-2.2,1.4
		s-3.6-0.4-5.2-0.7c-1.6-0.3-3.7-0.5-4.3-1c-0.6-0.5-0.8-2.3-1.1-3.2c-0.3-0.9-1.3-3.8-2.5-4.1c-1.2-0.2-1,0.5-2.9,0.5
		c-1.9,0.1-3.3-0.3-4.2,0.2c-0.9,0.5-2.1,1-2.9,1.3c-0.8,0.3-1.3,0.5-2.3-0.3c-1.1-0.8-3-1.3-4.1-1.4c-1.1-0.1-3-0.6-3.8-0.9
		c-0.8-0.3-3.2-0.5-3.7,0.2c-0.6,0.7-1.5,1.4-2.2,1.5c-0.7,0.1-1.7-0.2-3.4-0.3c-1.7-0.2-2.4-0.5-3.1-0.9c-0.6-0.5-1.6-0.7-2-1.9
		c-0.4-1.2-1.6-2.6-1.6-2.6"/>
	<path class="st8" d="M331.9,221.9c0,0,0.1,1.5-0.4,2.1c-0.5,0.6-0.6,1.9-1.5,2.4c-0.8,0.5-2.7,1.6-3.6,2s-2.4,0.6-2.9,0.8
		c-0.5,0.2-2.1,0.9-2,1.6c0,0.7,0.4,1.1,0.5,1.6c0.2,0.5,0.2,1.6-0.7,2c-0.9,0.4-2.1,0.7-2.9,1.5c-0.8,0.8-2.9,2.2-3.6,2.4
		c-0.7,0.2-2.1,0.3-3.1,0.3c-1-0.1-2.1,0.2-2.9-0.6c-0.7-0.8-0.8-2.6-0.5-3.2c0.3-0.6-0.6-1-1.6-1.1c-1,0-1.2,0.3-2.5,0.6
		c-1.3,0.3-2.9,0.7-3.9,0.8c-1,0.1-1.6-0.1-3-0.2c-1.4-0.2-1.5-0.3-2.6,0.1c-1,0.4-1.6,1.2-2.5-0.8c-0.9-2-1.8-3.6-1.8-3.6
		s-0.2-0.9-1.3-1c-1.1-0.1-2.6-0.3-2.9-0.7c-0.3-0.4-0.5-0.4-0.5-0.4"/>
	<path class="st9" d="M397.6,230.1c0,0,0.1-1.6,1.3-1.8c1.2-0.3,1.9-0.5,3.5-0.2c1.6,0.3,4,0.4,4.9,0.5c0.9,0.1,2.3,0.4,3.3,0.2
		c0.9-0.2,2.2-0.7,2.2-0.7s1.8-0.1,2.8,0c1,0.1,2,0,2.6-0.7c0.3-0.4-0.5-1.2-1-2.2c-0.4-0.8-0.6-1.8-0.6-2c0-0.4,0.4-0.9,1.1-1.1
		c0.8-0.2,1.9-0.8,1.9-1.6c0-0.8,0-3.2,0.3-3.6c0.3-0.5,0.3-0.1,0.3-0.1"/>
	<path class="st9" d="M394.4,247.3c0,0-3-4-3.4-5.6c-0.4-1.7-0.8-3.7-1.7-4.6c-1-1-3-2.4-3.3-3.2c-0.4-0.8-2.3-4.2-2.3-4.7
		c-0.1-0.5-0.2-1.9-1.6-1.7c-1.5,0.2-2.8,0.5-3.5,1.2c-0.7,0.7-1.1,1.2-2,0.7c-0.9-0.5-2.8-1.2-3.6-0.7c-0.8,0.5-2.2,1.4-2.2,1.4
		s-3.6-0.4-5.2-0.7c-1.6-0.3-3.7-0.5-4.3-1c-0.6-0.5-0.8-2.3-1.1-3.2c-0.3-0.9-1.3-3.8-2.5-4.1c-1.2-0.2-1,0.5-2.9,0.5
		c-1.9,0.1-3.3-0.3-4.2,0.2c-0.9,0.5-2.1,1-2.9,1.3c-0.8,0.3-1.3,0.5-2.3-0.3c-1.1-0.8-3-1.3-4.1-1.4c-1.1-0.1-3-0.6-3.8-0.9
		c-0.8-0.3-3.2-0.5-3.7,0.2c-0.3,0.3-0.7,0.7-1.4,1.2c-0.4,0.2-0.3,1.7-0.8,2.3c-0.5,0.6-0.6,1.9-1.5,2.4c-0.8,0.5-2.7,1.6-3.6,2
		s-2.4,0.6-2.9,0.8c-0.5,0.2-2.1,0.9-2,1.6c0,0.7,0.4,1.1,0.5,1.6c0.2,0.5,0.2,1.6-0.7,2c-0.9,0.4-2.1,0.7-2.9,1.5
		c-0.8,0.8-2.9,2.2-3.6,2.4c-0.7,0.2-2.1,0.3-3.1,0.3c-1-0.1-2.1,0.2-2.9-0.6c-0.7-0.8-0.8-2.6-0.5-3.2c0.3-0.6-0.6-1-1.6-1.1
		c-1,0-1.2,0.3-2.5,0.6c-1.3,0.3-2.9,0.7-3.9,0.8c-1,0.1-1.6-0.1-3-0.2c-1.4-0.2-1.5-0.3-2.6,0.1c-1,0.4-1.6,1.2-2.5-0.8
		c-0.9-2-1.8-3.6-1.8-3.6s-0.2-0.9-1.3-1c-1.1-0.1-2.6-0.3-2.9-0.7c-0.3-0.4-0.5-0.4-0.5-0.4"/>
	<path class="st9" d="M390.1,216.3c-0.6,0.6-1.2,1-1.9,1.1c-1.8,0.4-3.4,2.3-3.4,4.1c-0.1,1.8-0.2,3.9-0.7,4.7
		c-0.5,0.8-1.1,1.9-1.1,1.9"/>
	<path class="st9" d="M397,233.6c0,0-1-0.1-1.4,0.1c-0.4,0.2-1.4,0.1-1.6,0.3c-0.2,0.2-1,0.1-1.6-0.1c-0.6-0.1-2.6-0.7-2.9-0.8
		c-0.3-0.1-1.6-0.9-1.5-1.2c0-0.3-1.3-2.1-1.5-2.2c-0.2-0.2-1.7-0.8-2.2-1c-0.3-0.1-0.7-0.2-1.1-0.3"/>
	<path class="st8" d="M389.2,236.7c0,0,0.5-0.2,1.5,0.3c1,0.5,1.6,1.1,2.2,1.4c0.5,0.3,1.7,1.1,1.7,1.1l0.3,0.2l3.3,1"/>
	<path class="st9" d="M402,216.4c0,0-1,0.6-1.6,1.7c-0.7,1.1-3.8,4.3-5,4.8c-1.2,0.5-3.5,3.2-3.5,3.2s-0.8,3,1.8,4.2
		c0,0,2.9-0.4,3.2-0.1"/>
	<polygon class="st10" points="110,354.9 109,334.8 108.7,313.8 122.4,313.4 122.7,334.4 123.6,354.1 	"/>
	<polygon class="st10" points="116.7,354.5 110,354.9 109,334.8 108.7,313.8 115.8,313.6 	"/>
	<polygon class="st10" points="76.5,477.6 83.6,465.3 86.5,459.2 96,440.4 102.1,443.1 108.4,446 98.8,465.3 95.7,471.7 89.1,483.2 
			"/>
	<polygon class="st10" points="83,480.4 76.5,477.6 83.6,465.3 86.5,459.2 96,440.4 102.5,443.3 	"/>
	<polygon class="st10" points="21.3,605.2 21.4,603.3 23,595.2 24.7,588.4 29.4,577.4 34.1,566 47.1,570.4 37.8,592.8 36.4,598.2 
		35,605.9 	"/>
	<polygon class="st10" points="28.1,605.5 21.3,605.2 21.4,603.3 23,595.2 24.7,588.4 29.4,577.4 34.1,566 40.6,568.2 30.8,591.1 
		29.5,596.6 	"/>
	<polygon class="st10" points="552.4,273.6 558.3,278.6 566.6,268.1 566.5,252.7 556.8,266.3 	"/>
	<polygon class="st10" points="552.2,273.7 566.3,252.5 566.5,260 554.5,275.9 	"/>
	<path class="st10" d="M387.6,638.1l3.6,8.3c0,0-3.8,2.3-5.9,3.1c-2.1,0.8-4.5,2.1-8.5,2.7c-4,0.5-8.7,2.5-10,2.1
		c-1.3-0.4-1.3-4.2-1.3-5.5c0-1.3-0.5-3-0.5-3s9.9-2.4,11.5-3.2c1.6-0.8,7.5-1.5,8.5-2.7C385.9,638.5,387.6,638.1,387.6,638.1
		L387.6,638.1z"/>
	<path class="st10" d="M511.5,460.8c0,0,2.1,0.9,3.7,1.3c1.6,0.4,2.1,0.2,3.3,0.4c1.2,0.3,2.3-0.4,1.3,2.7
		c-0.9,3.1-4.3,14.1-4.7,15.3c-0.4,1.2-2.3,7.8-3,7.6l-8.2-2.9c0,0,4.6-10.8,5.3-13.4c0.7-2.5,1.3-3.4,1.6-5.6
		C511.1,463.8,511.5,461,511.5,460.8L511.5,460.8z"/>
	<path class="st10" d="M527.5,314.3l7.2,2.9c0,0-3.1,6.2-3.7,8.1c-0.7,1.9-1.7,5.2-2.3,7.2c-0.5,2-1.5,3.9-1.5,3.9l-1,3.4l-6.3-1.1
		l-2.8-0.7c0,0,2.4-9.6,3.5-12.2c1.1-2.5,3.2-6.7,4.1-7.8C525.8,317,527.5,314.3,527.5,314.3L527.5,314.3z"/>
	<path class="st10" d="M331.7,457.6c0,0-0.4,11.2-1.3,14.1c-1,2.9-3.6,8.6-4.1,9.3c-0.6,0.7-7.4-1.9-7.4-1.9s3.4-10,3.7-13.9
		c0.3-3.8,0.8-8.3,0.8-8.3L331.7,457.6z"/>
	<path class="st10" d="M313.1,374.1l-7.7,4.9l10.3,20.7c0,0,3.9-2.5,4.8-2.8c0.9-0.3,3-1.8,3-1.8L313.1,374.1L313.1,374.1z"/>
	<path class="st6" d="M285.2,261.7c0,0-0.5,3.3-1.7,4.5c-1.2,1.2-3.5,2.6-4.9,1.9c-1.4-0.7-2.7-1.3-3.7-0.1c-1,1.2-3.1,0.6-4.8-0.2
		c-1.7-0.7-1.5,0-3.8-2.1c-2.2-2.1-0.5-2.1-3.7-3.5c-3.2-1.3-5-2.3-6-2.9c-1-0.5-1.9-2.9-2.3-4.2c-0.4-1.3-1.1-2.3-1.1-3.3
		c0-0.9,8.6-6.9,8.6-6.9s-0.3,2.9,0.1,4.5c0.4,1.6,0.3,1.8,0.7,2.4c0.4,0.6,1.1,0.9,3.5,1.2c2.3,0.3,3.3-0.5,3.4,1
		c0.1,1.5-0.2,1.4,0.5,2c0.7,0.6,1.1,0.5,2.1,0.6c1,0.1,1.1,0.4,2.1,1.5c1,1.1,0.5,0.4,1.1,1c0.6,0.6,1.5,0.6,1.5,0.6s1-0.1,1.5,0.2
		c0.5,0.3,0.1,0.2,0.9,0.4c0.8,0.2,0.4,0.5,1.7,0.5C282.4,261.2,285.2,261.7,285.2,261.7L285.2,261.7z"/>
	<path class="st6" d="M262.1,245l-6.7,4.8c0,0,0.5,1.3,1.2,2.7c0.7,1.3,1.8,2.4,3.3,3.4c1.4,0.9,1.5,1.7,3.3,1.5
		c1.7-0.2,3.5,0.5,4.4,1.6c0.9,1.1,2,2.2,3.6,3.3c1.5,1,5.3,2,6.9,2c1.6,0,4.5,2,6.1,0.2c1.6-1.7,2.1-2.7,2.2-2.9
		c0.1-0.1-4.5,0.5-6.5-0.6c-1.9-1.1-1.4-1.5-2.1-1.2c-0.7,0.3-0.2,1-1.9-0.1c-1.7-1.1-2.2-1.6-3-1.9c-0.8-0.3-0.3-0.9-1.3-0.9
		c-1,0-1.8,0.5-1.7-1c0.1-1.5,0.1-2.2-0.5-2.2c-0.6,0-1.5,0.1-1.5,0.1s-3.9-0.5-4.4-1.2c-0.5-0.7-0.9-1.1-1-2.1
		c-0.1-1-0.1-1.7-0.1-2.8C262,246.4,262.1,245,262.1,245L262.1,245z"/>
	<polygon class="st10" points="313,374.1 309.1,376.8 319.5,397.4 323.8,394.7 319,385.5 	"/>
	<path class="st10" d="M332.4,457.9c0,0-0.3,8.6-1,10.5c-0.7,1.9-0.8,6.2-1.8,7.4c-1,1.2-2.6,5-3.3,5.5c-0.7,0.4-4.2-1.3-4.2-1.3
		s4.6-8.5,4.9-11.6c0.3-3,0.3-4.9,0.5-7.5c0.3-2.6,0.2-3.4,0.2-3.4L332.4,457.9z"/>
	<path class="st10" d="M286.4,564.5l-8-0.4c0,0-0.9,16.8,0,19.5c0.9,2.7,2.1,10.4,2.1,10.4l8.9-2.3c0,0-4.9-9.6-3.2-18.2
		c1.7-8.6,0.1-5.1,0.1-5.1L286.4,564.5L286.4,564.5z"/>
	<path class="st10" d="M364.8,645.5l0.5,3.4c0,0,10.8-1.6,13.8-3.2c2.9-1.6,6.9-2.3,8.6-3.8c1.7-1.5,0.7,0.2,0.6-0.2l-0.8-3.7
		c0,0-5.6,3.1-7.1,3.4c-1.5,0.3-4.7,1.3-5.3,1.6c-0.7,0.3-3.1,0.8-4.3,1.1C369.6,644.4,364.8,645.5,364.8,645.5L364.8,645.5z"/>
	<path class="st10" d="M458.4,549.3l6,5c0,0-5.3,6.8-6.3,8.2c-0.9,1.3-8.7,9.6-8.7,9.6l-5.8-6.7c0,0,7.9-6.4,8.8-7.6
		c0.9-1.2,1.1-2.1,1.1-2.1s0.7-1.6,2.3-3.2C457.5,550.8,458.4,549.3,458.4,549.3L458.4,549.3z"/>
	<path class="st10" d="M511.6,460.9l5.1,1c0,0-1.6,7.1-2.1,8.4c-0.5,1.3-2.9,7.9-3.7,9.5c-0.8,1.6-2.6,6.7-2.6,6.7l-4.2-1.6
		c0,0,3.9-9.8,5.1-12.9c1.2-3.1,2.1-9.4,2.1-9.4L511.6,460.9L511.6,460.9z"/>
	<path class="st10" d="M511.5,375.1c0,0,8.1-0.6,9.2-0.7c1.1-0.1,1,24.6,1,24.6h-8.8L511.5,375.1L511.5,375.1z"/>
	<path class="st10" d="M526.9,314.2l3.7,1.4c0,0-3.3,5.9-4.4,8.1c-1.1,2.3-3.3,7.6-3.6,9.4c-0.3,1.7-1.2,5.8-1.2,5.8s-3-0.9-3.8-0.8
		c-0.8,0.1,1.4-10.1,2.8-11.9c1.3-1.7,3.2-5.8,4-7C525.1,318.1,526.9,314.2,526.9,314.2L526.9,314.2z"/>
	<path class="st10" d="M287.1,564.6l-3.7-0.1c0,0-1.3,11.4-0.9,13c0.4,1.6,1.1,6.7,1.3,7.6s1.5,7.3,1.5,7.3l4.4-1.1
		c0,0-1.7-4.2-2.5-9.6c-0.8-5.5-1.1-6.3-0.7-8.3C286.8,571.5,287.1,564.6,287.1,564.6L287.1,564.6z"/>
	<path class="st10" d="M457.7,548.6l-0.9,1.1l-3.9,4.9l-3.2,3.5c0,0-2.9,3.5-3.8,4.3c-0.8,0.8-2.9,3-2.1,3.7l2.9,2.6
		c0,0,5.9-6,7.7-8.5c1.7-2.5,3.7-4.1,4.8-5.6c1.1-1.5,2.1-2.8,2.1-2.8L457.7,548.6L457.7,548.6z"/>
	<path class="st10" d="M511.5,374.9c0,0,2-0.1,3.2-0.1c1.2,0,1.3,0.1,1.1,2.8c-0.1,2.7,0,7.4,0,9.5c0,2.1-0.1,4.3,0.1,5.9
		c0.3,1.6-0.3,5.8-0.3,5.8l-3.2,0.2L511.5,374.9L511.5,374.9z"/>
	<path class="st8" d="M397.2,541.6c0,0,0.9-0.1,0.5,0.7c-0.5,0.8-0.9,1-0.5,1.4c0.5,0.4,1.5,0.9,0.4,0.9c-1.1,0-1.3,0-1.1,0.6
		c0.2,0.6,0.7,1.3,0.1,1.3c-0.7,0-1.2-0.4-1.1,0.3c0.1,0.7,0.5,1-0.6,1.1"/>
	<path class="st8" d="M394.7,541.6c0,0-0.9,0-0.9,0.8c0,0.8,0.3,1.7-0.3,1.7c-0.6,0-0.6,0.1-0.6,0.7c0,0.7,0.2,0.7-0.3,0.7
		c-0.5,0-1-0.4-0.8,0.6"/>
	<path class="st8" d="M358,537.7c0,0,0.7,0.6,1.1,0c0.5-0.6,0.2-0.9,0.9-0.4c0.7,0.6,1.4,0.9,1.5,0"/>
	<path class="st8" d="M357.1,534.2c0,0,0.2,0.1,0.7-0.3c0.5-0.4,0-1.4,0.8-1.3c0.7,0.1,0.2,1.1,1.2,0.5c1-0.7,1.2-1,1.3-0.2
		c0.1,0.8,0.4,1.4,0.4,1.4"/>
	<path class="st8" d="M364.3,532.2c0,0,0.6-0.9,1.2-0.2c0.7,0.8,0.5,1,1.1,0.9c0.7-0.1,1.5-0.1,0.8,0.7c-0.7,0.7-0.7,0.8-0.3,1.4"/>
	<path class="st8" d="M366.2,536l-0.5,0.8c0,0,0,0.7-0.6,0.4c-0.6-0.4-0.9-0.8-1-0.4c-0.1,0.5-0.5,1.1-0.9,0.2"/>
	<path class="st8" d="M363.2,532.9c-0.9,0.4-1.6,0.5-1,1.1c0.6,0.7,1.3,0.5,0.7,1.1c-0.7,0.7-0.5,1.1-0.5,1.1l0.6,0.5"/>
	<path class="st8" d="M433.5,538.9c0,0,0.3-0.8,0.8-0.1c0.6,0.7,0.7,0.8,1.2,0.5c0.5-0.4,0.2-0.9,0.7,0c0.5,0.9,0.7,0.3,0.6,0.8"/>
	<path class="st8" d="M433.3,540.7c0,0,0.4,1.5,0.8,0.9c0.5-0.6,0.5-0.8,0.7-0.3c0.3,0.6,0.2,1.1,0.7,0.7c0.6-0.5,0.7-0.6,0.7-0.6"
		/>
	<path class="st8" d="M404.7,559.6c0,0,0.5-1.2,0.7-0.3c0.2,0.9,0,1.3,0.7,1.1c0.8-0.2,0.7-0.1,0.7,0.6"/>
	<path class="st8" d="M403.1,560.4c0,0-0.5,1.4,0.4,1.4c0.8,0,0.8-0.2,0.8,0.5c0,0.7-0.1,1.1,0.7,0.5c0.8-0.7,0.9-0.8,0.9-0.8"/>
	<path class="st8" d="M354.2,355c0,0-0.1-1.6,0.8-1c0.9,0.6,1.1,0.5,1.6,0.2c0.4-0.2,0.7-0.7,1,0.1c0.4,0.7,0.3,1.1,0.3,1.1"/>
	<path class="st8" d="M354,356.3c0,0-0.2,1.1,0.8,1c1-0.1,0.9-0.7,1.3-0.1c0.4,0.6,0.6,1,1.2,0.3c0.6-0.7,0.6-0.7,0.6-0.7"/>
	<path class="st8" d="M351.8,383.1c0,0,1,0.3,0.2,1c-0.7,0.7-0.8,0.4-0.7,0.9c0.1,0.5,1.2,0.5-0.2,0.7c-1.3,0.2-1.3,0.2-1.3,0.2"/>
	<path class="st8" d="M350.6,381.8c0,0-1-0.3-1.1,0.3c-0.1,0.6,0.2,0.7-0.4,0.9c-0.6,0.1-1.1-0.1-0.9,0.7c0.2,0.7,0.1,1,0.1,1"/>
	<path class="st8" d="M371.1,357.9c0,0,1.1-0.4,1.1,0.3c0,0.7-0.3,0.6,0.2,0.7c0.5,0.1,0.9-0.5,0.7,0.4c-0.2,0.9-0.3,0.9-0.3,0.9"/>
	<path class="st8" d="M369.3,358.7c0,0,0.2,0-0.2,0.5c-0.4,0.5-0.5,0.4-0.1,0.7c0.4,0.4,0.8,0.3,0.4,0.7c-0.4,0.4-0.8,0.4-0.3,0.7
		c0.5,0.3,0.7,0.3,0.7,0.3"/>
	<path class="st8" d="M372.9,361.5c0,0,0.9,0.3,0.2,0.6c-0.7,0.3-1,0.2-1,0.7c0.1,0.4,0.6,0.7-0.1,0.6c-0.7-0.1-0.9-0.2-0.9-0.2"/>
	<path class="st8" d="M358.2,367.7c0,0,0.1-0.3,0.6-0.1c0.5,0.2,0.4,0.2,0.8-0.1c0.4-0.4,0.5-0.8,0.8-0.3c0.3,0.5,0.7,1,0.7,1"/>
	<path class="st8" d="M357.6,368.8l0.7,0.4c0,0,0.4,0.5,0.7,0.2c0.4-0.3,0.2-0.6,0.6-0.3c0.5,0.3,0.4,0.4,0.7,0.1
		c0.3-0.4,0.4-0.5,0.4-0.5"/>
	<path class="st8" d="M358.3,372.9c0,0,0.4-0.1,1,0.1c0.6,0.1,0.3,0.4,0.8,0.2c0.5-0.3,0.5-0.7,0.8-0.2c0.4,0.5,0.2,0.7,0.6,0.6
		c0.4-0.1,0.4-0.1,0.4-0.1"/>
	<path class="st8" d="M356.7,374.9c0,0-0.2,0.2,0.2,0.6c0.4,0.4,0.4,0.8,0.8,0.4c0.5-0.4,0.2-0.7,0.7-0.3c0.5,0.4,0.5,0.6,0.8,0.4
		c0.4-0.2,0.1-0.5,0.5-0.2c0.5,0.3,0.7,0.2,0.7,0.2"/>
	<path class="st8" d="M365.5,370.1c0,0,0.6,0.2-0.1,0.4c-0.7,0.2-1,0.5-0.7,0.7c0.4,0.2,0.7-0.2,0.4,0.2c-0.4,0.4-0.9,0.1-0.3,0.7
		c0.6,0.5,0.6,0.5,0.6,0.5"/>
	<path class="st8" d="M367.6,369.8c0,0,0.7,0.2,0.6,0.7c-0.1,0.5-0.3,0.9-0.3,0.9l0.1,0.7l-0.5,0.6"/>
	<path class="st8" d="M375.1,377c0,0,0.3,0.8-0.1,1.2c-0.4,0.4-0.4,0.8,0.1,0.8c0.5,0,0.4-0.7,0.6,0c0.1,0.7-0.5,0.7,0.2,0.7
		c0.7,0,0.7,0,0.7,0"/>
	<path class="st8" d="M376.9,376.3c0,0,1.6-0.5,1.5,0.2c-0.1,0.7-0.7,0.5-0.1,0.7c0.6,0.2,0.8-0.4,0.6,0.4c-0.2,0.8-0.2,1.3-0.2,1.3
		"/>
	<path class="st8" d="M418,375.1c0,0-0.5-1.2-0.8-0.6c-0.3,0.6,0.2,1.3-0.5,1c-0.7-0.3-0.6-0.6-1-0.1c-0.4,0.5-0.5,1.6-0.5,1.6"/>
	<path class="st8" d="M406.9,381.8c0,0-1.1-0.3-1.1,0.5c-0.1,0.7,0.3,0.8-0.1,0.9c-0.4,0.1-0.6,0-0.6,0.5c0,0.5,0.3,0.2,0,0.7
		c-0.3,0.5-0.6,0.2-0.3,0.7c0.3,0.5-0.6,0.6,0.3,1c0.9,0.4,1.3,0.1,1.3,0.1"/>
	<path class="st8" d="M404.1,388.1c0,0-0.2,0.5,0.3,0.6c0.5,0.1,0.5-0.2,0.6,0.2c0.1,0.4-0.1,0.7,0.4,0.4c0.4-0.3,0.6-0.4,0.6-0.4"
		/>
	<path class="st8" d="M417.8,383.9c0,0,0.7,0.5-0.1,0.8c-0.9,0.3-0.9,0-0.9,0.4c0,0.4,0.4,0.4-0.1,0.5c-0.5,0.2-0.6,0-0.7,0.3
		c-0.1,0.3-0.2,0.3-0.5,0.3c-0.3-0.1-0.5-0.3-0.5-0.3"/>
	<path class="st8" d="M424.4,377.8c0,0,0.9,0.3,0.1,0.5c-0.9,0.2-1.1-0.2-1.2,0.4c-0.1,0.6,0.5,0.7-0.4,1.1c-0.9,0.4-0.8-0.2-1,0.6
		c-0.2,0.8,2,0.4-0.2,0.8c-2.2,0.4-1.3,0.3-1.3,0.3"/>
	<path class="st8" d="M483.1,393.4c0,0,1.4-0.5,1.4,0.1c0,0.6-0.4,0.8,0.3,0.8c0.8,0,1.3-0.4,1.3,0.2c0,0.6-0.4,1,0.1,1
		c0.4,0,0.6-0.6,0.6,0.1c0,0.7-0.1,1.2-0.1,1.2"/>
	<path class="st8" d="M481.5,394c0,0,0.1,0,0.1,0.6c0,0.6-0.4,0.8,0.1,0.8c0.5,0,0.4-0.5,0.5,0.1c0.1,0.6-1.4,0.6,0.1,0.8
		c1.6,0.2,1-0.2,0.8,0.4c-0.1,0.6-0.9,0.8,0.3,0.8c1.2,0.1,1.6,0.2,1.6,0.2"/>
	<path class="st8" d="M444,273.8c0,0-0.2,1.9,0.4,1.4c0.6-0.5,0.4-1,0.7-0.3c0.3,0.7,0.4,1.3,0.8,0.7c0.4-0.6,0.7-0.8,0.7-0.8"/>
	<path class="st8" d="M445,270.9c0,0,0.8-0.7,0.9-0.1c0.1,0.7,0,1,0.5,0.7c0.5-0.3,0.8-1,0.9-0.2c0.1,0.7,0.4,1.2,0.4,1.2"/>
	<path class="st8" d="M464.1,276.7c0,0,1.1,0.2,0.4,0.8c-0.7,0.6-0.6,0.5-0.2,0.8c0.4,0.3,0.8,0.5,0.4,0.7c-0.4,0.2-0.7,0.6-0.7,0.6
		"/>
	<path class="st8" d="M460.9,276.6c0,0-0.6-0.6-0.7,0c-0.2,0.6,0.1,0.8-0.6,0.8c-0.7,0-0.7-0.3-0.7,0.2c0.1,0.6,0.3,0.8,0.3,0.8"/>
	<path class="st8" d="M459.5,280.5c0,0,0.7,0.1,0.7,0.5c0,0.4,0.3,0.8,0.8,0.3c0.5-0.5,0.3-0.7,0.7-0.4c0.4,0.3,1.1-0.2,1.1-0.2"/>
	<path class="st8" d="M371.7,527.9c0,0,2.1-0.4,1.8,0.4c-0.3,0.8-0.2,1.3-0.2,1.3l0.5,0.7l-0.2,0.8"/>
	<path class="st8" d="M369.9,528.8l-0.6,1c0,0-0.4,1,0.2,0.9c0.6-0.1,0.8-0.7,0.6,0c-0.2,0.7-0.6,0.9-0.1,1.1
		c0.5,0.2,1.1,0.1,1.1,0.1"/>
	<path class="st8" d="M377.1,529.9l1.1-0.5c0,0,0.3,0.5,0.9,0.4c0.6-0.1,0.7-0.2,0.8,0.3c0.1,0.5,0.1,0.8,0.1,0.8"/>
	<path class="st8" d="M376.6,531.5l0.8,0.3c0,0,0.3,0.6,0.8,0.3c0.5-0.3,0.8-0.4,0.8-0.4l0.6,0.2l0.5-0.3"/>
	<path class="st8" d="M389.5,514c0,0,0.7,0.8-0.3,1c-1,0.2-1.3-0.3-1.3,0.2c-0.1,0.5,0.3,0.8-0.3,0.8c-0.6,0.1-1.6,0.1-1.6,0.1"/>
	<path class="st8" d="M388.5,511.9c0,0-1-0.1-1,0.4c-0.1,0.5,0.2,0.7-0.4,0.7c-0.6,0-1.1,0.1-1.1,0.5c-0.1,0.5-0.5,1-0.5,1"/>
	<path class="st8" d="M439,516.6c0,0,0.9-0.4,0.9,0.4c0,0.8-0.3,0.8,0.1,0.9c0.4,0.1,1-0.1,0.8,0.8c-0.2,0.9-0.2,1.2-0.2,1.2"/>
	<path class="st8" d="M437.3,517.9c0,0-0.5,1.1,0.1,1.1c0.6,0,0.9-0.4,0.9,0.3c0,0.7-0.5,0.8,0.1,0.8s0.9,0.1,0.9,0.1"/>
	<path class="st8" d="M435.3,500.2c0,0,0.9-0.7,1-0.1c0.1,0.7-0.4,0.7,0.4,0.7c0.8-0.1,0.8-0.6,0.9,0.2c0.1,0.8,0.1,1.2,0.1,1.2"/>
	<path class="st8" d="M433.3,500.9c0,0-0.2,1.2,0.3,1.2c0.5,0,0.5-0.8,0.7,0.1c0.3,0.8-0.3,0.8,0.5,0.8c0.7,0,1,0,1,0"/>
	<path class="st8" d="M448.2,509.6c0,0,1.4-0.6,1.2,0.2c-0.2,0.8-0.7,1.1-0.2,1.2c0.5,0.2,0.8-0.2,0.8,0.6c-0.1,0.8-0.4,1.4-0.4,1.4
		"/>
	<path class="st8" d="M446.7,510.5c0,0-1.5,0.4-0.5,0.9c0.9,0.6,1.2,0.5,0.9,0.8c-0.4,0.3-0.7,0.2-0.3,0.6c0.5,0.5,1.5,0.7,1.5,0.7"
		/>
	<path class="st8" d="M439.6,505.9c0,0,0.1-0.1,0.5,0.2c0.4,0.3,0.7,0.4,1,0.3c0.3-0.2,0.6-0.7,0.6,0.1c0,0.8-0.4,1,0.2,1
		c0.5-0.1,0.7-0.2,0.5,0.3c-0.2,0.4-0.1,0.6-0.1,0.6"/>
	<path class="st8" d="M438.8,506.7c0,0,0.3,0.6,0.1,1c-0.2,0.5-0.7,1.1,0,0.9c0.7-0.2,0.8-0.6,0.7,0.1c-0.1,0.6-0.9,0.8-0.1,1
		c0.9,0.2,1.2,0.1,1.2,0.1"/>
	<path class="st8" d="M447.4,487.4c0,0,0.4-1.5,0.5,0.1c0.1,1.5-0.4,1,0,1.6c0.5,0.6,0.7,0.7,0.4,1.2c-0.4,0.4-0.8,0.7-0.8,0.7"/>
	<path class="st8" d="M443.8,488c0,0-0.2,0.7-0.5,1c-0.3,0.3-0.6,0.4-0.3,0.7c0.3,0.3,0.6,0.3,0.2,0.7c-0.4,0.4-0.8,0.3-0.2,0.7
		c0.6,0.4,0.8,0.5,0.8,0.5"/>
	<path class="st8" d="M442,496.5c0,0,0.5,0.4,0.6,0.8c0.1,0.4-0.1,0.7,0.5,0.4c0.5-0.3,0.3-0.8,0.7-0.3c0.4,0.6,0.4,1,0.9,0.7
		c0.5-0.3,0.8-0.6,0.8-0.6"/>
	<path class="st8" d="M459.8,520.5c0,0,0.5-0.5,0.7,0.1c0.2,0.6-0.4,0.7,0.6,0.6c0.9-0.1,1-0.5,1,0.1c0,0.6-0.3,1.4-0.3,1.4"/>
	<path class="st8" d="M458.2,523.9c0,0,0,1.4,0.8,0.9c0.8-0.5,0.7-0.9,1-0.4c0.4,0.5,0.3,1.2,0.8,0.7c0.5-0.5,0.8-0.9,0.8-0.9"/>
	<path class="st8" d="M471.6,516.4c0,0,1.2,0.5,0.6,0.9c-0.6,0.4-0.8,0.2-0.7,0.6c0.1,0.4,0.6,0.5-0.2,0.8c-0.7,0.3-1,0.4-1,0.4"/>
	<path class="st8" d="M469.4,514.6c0,0,0.1-0.1-0.5,0.3c-0.5,0.4-0.7,0-0.6,0.8c0.1,0.8,0.2,0.6-0.2,0.9s-0.7,0.1-0.3,0.5
		c0.5,0.4,0.7,0.8,0.7,0.8"/>
	<path class="st8" d="M456.1,527.3c0,0,1.1-1.2,1.1-0.4c0.1,0.8-0.2,1,0.3,1.1c0.4,0.1,0.7-0.3,0.6,0.4c-0.1,0.7-0.3,0.9-0.3,0.9"/>
	<path class="st8" d="M454.9,528.3c0,0-0.3,1.3,0.3,1.3c0.6-0.1,0.6-0.5,0.7,0.1c0.1,0.5-0.3,0.8,0.4,0.7c0.7-0.1,0.9-0.1,0.9-0.1"
		/>
	<path class="st8" d="M451.4,501.9c0,0,0.1-1.3,0.6-1c0.5,0.3,0.4,0.5,1,0.2c0.6-0.3,0.8-1,1-0.5c0.2,0.5-0.2,0.8,0.1,1.1"/>
	<path class="st8" d="M454.4,502.8c0,0,0.6,0.6,0.1,0.9c-0.5,0.3-0.8,0.2-0.8,0.6c0,0.4,0.2,0.6-0.5,0.4c-0.6-0.2-1.3-0.6-1.3-0.6"
		/>
	<path class="st8" d="M415.1,473.8c0,0-1.3,0.1-1.3,0.5c0,0.4,0.2,0.7-0.2,0.8c-0.4,0.1-0.6-0.5-0.6,0.6c0,1.1,0.2,1.1,0.2,1.1"/>
	<path class="st8" d="M416.3,474c0,0,0.6,0.6,0.1,1.1c-0.5,0.5-0.5,0.3-0.5,0.7c0,0.4,0.1,0.6-0.5,0.8c-0.6,0.2-0.7,0.2-0.7,0.2"/>
	<path class="st8" d="M413.9,485.9c0,0,1.1,1.4,0,1.4c-1.1-0.1-1.4-0.5-1.5,0c-0.2,0.5-0.2,1.3-1,0.8c-0.8-0.5-1-0.9-1-0.9"/>
	<path class="st8" d="M414.4,482c0,0-1,1.2-1.7,1c-0.6-0.2-0.8-0.9-1.1-0.1c-0.3,0.8-0.1,1.2-0.9,1.1c-0.8-0.1-0.7-0.6-0.9,0
		c-0.2,0.6-0.2,0.8-0.2,0.8"/>
	<path class="st8" d="M415.3,489.9c0,0,0.1,1.9,0.4,1.4c0.3-0.6,0.3-1,0.7-0.4c0.4,0.6,1,1.1,1.4,0.6c0.5-0.6,1-1,1-1"/>
	<path class="st8" d="M424.4,480.1c0,0,1-0.8,1.1-0.2c0.1,0.6-0.5,0.9,0.5,0.6c1-0.2,1-0.5,0.9,0c-0.2,0.5-0.2,1-0.2,1"/>
	<path class="st8" d="M429.8,481.7c0,0,0.1,0.3,0.8-0.1c0.7-0.4,0.9-1,1-0.2c0.1,0.8,0.4,0.8,0.4,0.8s0.6,0.2,0.2,0.7
		c-0.4,0.6-0.5,1-0.5,1"/>
	<path class="st8" d="M425.4,485.9c0,0-0.2-0.1,0.3,0.8c0.5,0.9,0.3,1.2,0.8,0.9c0.5-0.3,0.3-1.1,0.7-0.2c0.4,0.9,0.3,1.4,0.9,0.9
		c0.6-0.6,1-1,1-1"/>
	<path class="st8" d="M371.3,361.6l0.2,0.3L371.3,361.6z"/>
	<line class="st8" x1="371.1" y1="362.2" x2="371.1" y2="361.7"/>
	<polygon class="st11" points="460.6,278.4 460.9,278.9 460.1,279.3 460,278.9 	"/>
	<polygon class="st8" points="460.6,278.4 460.9,278.9 460.1,279.3 460,278.9 	"/>
	<polygon class="st11" points="376.4,377.5 377.1,377.5 377,377.9 376.5,378.1 	"/>
	<polygon class="st8" points="376.4,377.5 377.1,377.5 377,377.9 376.5,378.1 	"/>
	<polyline class="st8" points="355.7,355.8 355.6,356.2 355.4,355.9 	"/>
	<polygon class="st8" points="359.2,534.5 359.5,534.6 359.2,534.8 	"/>
	<line class="st8" x1="377.6" y1="530.8" x2="378" y2="530.9"/>
	<path class="st8" d="M371.2,529.4l0.2,0.5L371.2,529.4z"/>
	<polyline class="st8" points="403.5,560.3 403.7,560.3 404,560.5 403.7,560.6 	"/>
	<path class="st11" d="M443.8,495l0.3-0.1c0,0,0.5,1,0.1,1C443.7,496,443.8,495,443.8,495L443.8,495z"/>
	<path class="st8" d="M443.8,495l0.3-0.1c0,0,0.5,1,0.1,1C443.7,496,443.8,495,443.8,495L443.8,495z"/>
	<line class="st8" x1="452.8" y1="503.4" x2="452.8" y2="503.7"/>
	<line class="st8" x1="453.6" y1="502.2" x2="453.6" y2="502.6"/>
	<path class="st8" d="M413.6,511c0,0,0.6,0.1,0.6,0.4c0,0.4-0.2,0.6,0.3,0.5c0.5-0.1,0.4-0.4,0.5-0.1c0.1,0.3-0.1,0.7,0.5,0.3
		c0.6-0.4,0.6-0.6,0.6-0.6"/>
	<path class="st11" d="M415.5,510c0,0,0.5-1.4,0.9-0.9c0.4,0.4,0.5,0.6,0,1C415.9,510.4,415.5,510,415.5,510L415.5,510z"/>
	<path class="st8" d="M415.5,510c0,0,0.5-1.4,0.9-0.9c0.4,0.4,0.5,0.6,0,1C415.9,510.4,415.5,510,415.5,510L415.5,510z"/>
	<path class="st11" d="M408.4,503.9c0,0,0.5-1.4,0.9-0.9c0.4,0.4,0.5,0.6,0,1C408.9,504.2,408.4,503.9,408.4,503.9L408.4,503.9z"/>
	<path class="st8" d="M408.4,503.9c0,0,0.5-1.4,0.9-0.9c0.4,0.4,0.5,0.6,0,1C408.9,504.2,408.4,503.9,408.4,503.9L408.4,503.9z"/>
	<path class="st8" d="M405.2,506c0,0-0.4-0.2-0.6-0.8c-0.2-0.7,0.6-0.4,1.1-0.8c0.5-0.3,0-0.2-0.4-0.8c-0.4-0.6,0.2-0.6,0.2-0.6
		s0.2-0.7,0.5-0.5"/>
	<path class="st8" d="M420,505.9c0,0,1.1-0.2,1.1,0.2c0,0.4-0.7,0.7,0,0.7c0.7,0,0.9-0.9,0.7,0c-0.2,0.9-0.4,1.6-0.4,1.6"/>
	<path class="st8" d="M422.4,496.3c0,0,1.1-0.2,1,0.4c-0.1,0.6-0.7,0.7-0.4,0.7c0.3,0.1,0.7,0.3,0.3,0.7c-0.4,0.4-0.6,0.5-0.6,0.5"
		/>
	<path class="st8" d="M411.7,500.8c0,0-0.5,0.7-0.1,1c0.4,0.2,0.4,0.1,0.4,0.5c0,0.5-0.3,0.9,0.3,0.7c0.6-0.2,0.7-0.3,0.7-0.3"/>
	<path class="st8" d="M526.4,216.5c0,0,0.5,0.4,0.3,1.4c-0.2,1,0,1.8-0.5,2.6c-0.4,0.8-0.6,5.5-0.2,6.9c0.5,1.4,1.3,2.8,1.5,4.3
		c0.2,1.5,0.8,1.2,0.8,2.7c0,1.5,0.4,2.4,1.4,3.4c1,1,3.1,1.5,3.7,2.4c0.5,0.9,1.2,1.6,1.8,3.3c0.6,1.7,0.7,1.6,0.7,2.6
		c0,1,0.1,3.4,0.5,3.7c0.5,0.4,1.2,0.4,1.6,0.3c0.2,0,0.4-0.1,0.6-0.1c0.2,0,0.2,0.2,0.9,0.6c0.6,0.4,1.6,0.4,2,0.1
		c0.4-0.3,1.1-2,1.1-3.6c0-1.6,0.2-3.4,0.4-4.3c0.3-0.9,0.6-3.1,0.9-4.2c0.3-1.1,0.4-3.9,1-4.6c0.6-0.7,1.4-3,2.3-3.6
		c0.9-0.7,1.7-2.9,2-4.1c0.3-1.2,0.5-2.8,1.3-4.4c0.8-1.6,0.9-2.3,1.4-3.4c0.6-1.1,1.3-2.2,1.3-2.2"/>
	<path class="st10" d="M72.2,403.3l1.3,1.2c0,0,0.6,1.2-0.5,1.2c-1.1,0-1.7-0.4-1.7-1c0.1-0.6,0-0.9,0.3-1.2
		C71.8,403.2,72.2,403.3,72.2,403.3L72.2,403.3z"/>
	<path class="st10" d="M76.2,427.1c0,0,1.5-0.4,1.9-0.1c0.5,0.3,1,1.4,1.3,1.7c0.3,0.3,0.7,1.8-0.7,1.6c-1.4-0.2-2.2-0.8-2.4-1.4
		c-0.1-0.5-0.4-0.9-0.4-1.3C76,427.2,76.2,427.1,76.2,427.1L76.2,427.1z"/>
	<path class="st12" d="M300.5,322.9c0,0.3,0.1,1.1,0.5,1.3c0.4,0.2,1.6,0.4,2.6,0.7c1,0.3,1.4,0.5,2.5,1.2c1,0.7,1.2,0.8,1.9,0.7
		c0.7,0,2,0.1,2.4,0.6c0.3,0.4,0.8,0.9,2.1,0.9c1.3,0,3.7,0,3.7,0s1.2,0,0.9,0.7c-0.3,0.8-0.2,1.1-0.2,1.1c0.3,1.4,5-0.4,5-0.4
		c0.3-0.4,0.9-0.8,0.3-1c-0.7-0.2-1.2-0.3-0.7-0.5c0.5-0.3,0.7-0.5,0.8-0.8c0.1-0.3,0.6-1.1,0.6-1.1s1.4-0.2,2.4-0.1
		c1,0,1.6-0.5,2-0.7c0.4-0.2,1.3,0,0.9,0.4c-0.4,0.4-0.7,1.1,0,0.7c0.6-0.4,1.1-0.5,1.1-1.2c0-0.7,0.4-1.8,0.7-2.1
		c0.3-0.3,1-1.1,1-1.1s0.4-0.3,1.1-0.8c0.7-0.5,1.7-1.1,1.7-1.1s0.7-0.5,0.6-0.1c0,0.4,0.3,0.6,0.9,0.3c0.6-0.3,0.9-0.3,1-0.7
		c0.1-0.4,0-1.1,0.5-1.1c0.5-0.1,1.2-0.3,1.2-0.3s0.2-0.8,0.2-1.1c0-0.3,0.1-0.5-0.3-0.6c-0.3-0.2-0.3-0.4-0.4,0
		c-0.2,0.4-0.2,0.5-0.5,0.6c-0.2,0-0.5,0.1-0.7-0.2c-0.2-0.3-0.3-0.6,0.1-0.8c0.4-0.2,1.1-0.5,1.4-0.7c0.3-0.2,0.2-0.7,0.3-1.2
		c0.1-0.6,0.5-1.5,0.7-2c0.2-0.5,0.5-1.6,0.6-1.9c0.1-0.3,0.4-0.8,0.6-1c0.2-0.2,0.3-1.2,0.4-1.7c0.1-0.5,0.1-0.7,0.4-0.9
		c0.3-0.2,0.3-0.6,0.5-1c0.1-0.4,0.3-0.7,0.8-1c0.4-0.3,1.1-0.8,1.3-1.1c0.2-0.3,0.7-1.1,0.4-1.7c-0.3-0.6-0.6-1.4-0.6-1.4
		s0.1-0.3,1.1-0.3c1,0,1,0.2,0.6,0.5c-0.4,0.3-0.3,1.1-0.1,1.4c0.3,0.3,0.7,0.3,1-0.2c0.3-0.6,0.6-1,1-1.4c0.4-0.4,0.9-0.8,1.3-0.8
		c0.4,0,0.7-0.2,0.5-0.8c-0.2-0.6-0.3-1.2-0.1-1.6c0.2-0.4,0.3-0.8,0.4-1c0.1-0.2,0.2-0.4,0-0.8c-0.2-0.3-0.3-1-0.1-1.3
		c0.3-0.3,0.5-1-0.4-1.1c-1-0.1-1.7-0.2-3.1-0.4c-1.4-0.2-1.5-0.1-2.1-0.4c-0.6-0.3-1.5-0.6-1.7-1.2c-0.2-0.6-2.1-2.5-2.5-2
		c-0.4,0.5-0.6,2.6-0.6,2.9c0,0.2-0.4,0.7-1.1,0.4c-0.7-0.3-2.5-1.1-2.5-1.1s-0.9,0-0.3,0.5c0.6,0.5,1.4,1-0.2,0.8
		c-1.5-0.2-1.9-0.4-2.6-0.6c-0.6-0.2-1.1-0.7-1.7,0.1c-0.6,0.8-0.7,1.3-1.5,1.4c-0.8,0.1-0.5,0.3-0.8,0.8c-0.2,0.6-0.6,1-0.6,1
		s-0.1-0.7-0.4-1.2c-0.4-0.4-0.8-0.9-1.2-0.7c-0.4,0.2-0.9,0.5-0.9,0.5s0-0.2-0.5-0.3c-0.5-0.1-0.4-0.2-0.6,0.1
		c-0.3,0.3-0.7,0.3-1.3-0.1c-0.6-0.4-0.8-0.9-1.2-1c-0.4-0.1-0.9,0-1.3,0.3c-0.3,0.3-0.7,0.3-1,0.7c-0.3,0.5-0.7,1.5-0.8,1.9
		c-0.1,0.4-0.3,0.9-0.5,0.9c-0.2,0-0.6-0.3-1-0.4c-0.4-0.1-0.8-0.1-1.3-0.1c-0.5,0-0.4-0.2-1.1-0.4c-0.7-0.2-1.4-0.1-1.6,0.2
		c-0.2,0.3-1,1.2-1.3,1.5c-0.3,0.3-0.7,1.5-0.7,1.5s0.9-0.7,1.7-0.8c0.8,0,1.1,0.4,1.2,0.8c0.1,0.4-0.3,0.7-1,0.7
		c-0.8,0-1.1,0.4-1.6,0.7c-0.5,0.2-2.7,0.9-3.3,1.7c-1.7,2-1,1.1-2.7,2.3c-0.6,0.4-1.6,0.7-2,1c-0.4,0.3-1.6,0.6-1.9,0.9
		c-0.2,0.4-0.3,0.1-0.2,0.6c0.1,0.5-0.1,0.8-0.1,0.8s0.2,0-0.3,0.4c-0.5,0.4-0.5,0.5-0.5,1.1c0,0.7-0.2,1.4-0.5,2
		c-0.3,0.5-0.5,1.1-0.2,1.6c0.3,0.5,1,1.1,0.7,2.3c-0.3,1.2-0.1,2.6-0.1,3C300.1,320.5,300.7,320.2,300.5,322.9L300.5,322.9z"/>
	<path class="st9" d="M288,261.5c0.2-0.2,0.8-0.5,1-0.6c0.2-0.1,1.1-0.5,1.4-0.8c0.3-0.2,1.2-0.7,1.2-0.7s0.8-0.1,0.7,0.6
		c-0.1,0.7-0.4,1.5-0.4,1.5s0.5-0.1,0.8-0.4c0.3-0.3,0.6-0.6,0.5-1.5c-0.1-0.9,0.1-1.6,0.1-1.6l0.7-1c0,0,0,0.2,0.1,0.7
		c0.1,0.5-0.2,0.8,0.5,0.6c0.7-0.2,1.4-0.5,1.3-0.2c-0.1,0.4-0.8,1.4-0.8,1.7c0,0.3,0.1,0.7,0.7,0.7c0.6-0.1,1.2-0.5,1.5-0.9
		c0.3-0.4,0.7-0.9,0.8-1.1c0.1-0.2,0.4-0.5-0.1-0.6c-0.5-0.1-1-0.2-0.7-0.6c0.3-0.4,0.3-0.4,0.3-0.4s-0.2-0.6-0.5-0.9
		c-0.2-0.3-0.7-0.5-0.7-0.5s-0.5-0.6-0.4-1.2c0.1-0.7,0.2-0.9,0.2-0.9s0.3,0.3,0.5,0.4c0.2,0.1,0.4,0.1,0.6-0.1
		c0.3-0.2,0.5-0.2,1,0.1c0.4,0.3,0.7,0.6,0.6,0.8c-0.1,0.2-0.6,0.9-0.5,1.2c0.1,0.3,0.2,0.8,0.6,0.8c0.3,0,0.4,0,0.8-0.5
		c0.4-0.4,0.9-0.9,0.7-0.5c-0.2,0.5-0.6,0.8-0.4,1.3c0.3,0.8,0.8,1.6,1.1,2c0.2,0.4,0,0.5,1,0.5c1,0,1.3-0.2,1.6-0.2
		c0.3-0.1,0.4-0.2,0.2-0.4c-0.2-0.2-1.1-0.9-1.1-1.1c0-0.2-0.2-0.6,0-0.9c0.2-0.3,0.2-0.6,0.3-1.1c0.1-0.4,0-1,0.3-0.7
		c0.4,0.4,0.8,1.1,1.2,1.2c0.4,0.1,0.9,0.3,0.9,0.3s-0.3-0.1-0.6,0.4c-0.9,1.4,0,0.7,0.3,1.3c0.2,0.3,0.4,0.6,0.5,0.8
		c0.1,0.2,0.3,0.4,0.8,0.3c0.4-0.1,1-0.4,1-0.4l0.4,0c0,0,0.3-0.1,0.2,0.3c-0.1,0.4,0,0.6,0.5,0.6c0.5,0,0.9-0.1,1.2,0.3
		c0.3,0.3,0.7,1,0.4,1.1c-0.3,0.1-2,1-2,1s-1.3,1-0.2,1.2c1.2,0.2,1.6,0.3,2.3,0.2c0.7-0.1,0.9-0.2,1.1-0.5c0.3-0.4,0.5-0.5,0.9-0.3
		c0.5,0.2,3,0.2,3.4,0c0.4-0.1,1.9-1,2.1-1.5c0.3-0.5,0.4-1.7-0.4-2.3c-0.8-0.7-1-0.7-1-0.7l1.3-1.2c0,0,0.8-0.4,0.6,0.2
		c-0.2,0.6-0.1,0.9,0.1,1.3c0.2,0.3,0.4,0.3,0.5,0.8c0.3,1.3,1.1,2.5,1.6,2.8c1.3,0.7,2.8,0.9,3,0.8c0.4-0.4,0.8-0.5,0.8-0.5
		c1.9,0.6-0.6,1.5,1.2,2.4c0,0,0.4,0.4-0.4,0.4c-0.8-0.1-1.8-0.4-2.3,0.2c-0.4,0.6-0.8,0.6-0.7,1.3c0.2,2.7-1.1,1.6-1.2,4.7
		c0,0.3-0.5,2.2-0.6,2.7c-0.1,0.5-0.1,0.7,0.2,1.1c2.6,3.3,1.4,4.5,1.6,4.6c0.4,0.2,0.5,0.3,0.8,0.7c0.3,0.4,0.3,1.2,0.4,1.4
		c0.1,0.2-0.3,0.3,0.5,0.4c0.7,0.1,1,0.4,1.5,0.8c0.4,0.4,0.3,0.5,1,0.6c0.6,0.1,1.1,0.3,1.1,0.3s-0.4,0.7-0.5,1.1
		c0,0.4,0.2,1.1-0.2,0.5c-0.4-0.6-1.2-1.6-1.4-1.4c-0.1,0.3-0.7,0.6-0.5,1c0.2,0.5,0.2,0.6,0.4,1c0.3,0.3,0.3,0.4,0.3,0.8
		c0,0.4,0.2,0.8,0.7,0.5c0.6-0.3,0.1-0.5,0.9-0.5c0.8,0.1,0.6,0.1,0.9,0.3"/>
	<path class="st9" d="M418.4,235c1-0.5,3.9-1,3.1,0.7c-0.8,1.7-0.5,3.4,1.4,2.9c1.9-0.4,3.1-1,2.2-2.4c-0.9-1.4,0.4-1.8,0.3-1.5
		c0-0.1-0.4-0.4,0.3-0.4c4.6-0.3,2-0.7,4.2-0.1c3.1,0.8,1.2,2.5,2.7,2.2c0.4-0.1,0.8-0.3,1.4,0c0.6,0.3,1.2,0.8,1.2,0.8
		s0.3,0.2,0.4-0.2c0.1-0.4,0.1-0.9,0.4-1.1c0.2-0.2,0.4-0.9,0.1-1c-0.3,0-0.6-0.1-0.7,0.3c-0.2,0.4-0.4,0.3-0.5-0.1
		c-0.5-1.5-0.2-1-0.3-2l0-0.9c0,0-0.1,0,0.5,0.1c0.6,0.1,0.7,0.1,1-0.2c0.3-0.3,0.3-0.4,0.7-0.4c0.3,0,0.1,0,0.8-0.3
		c0.7-0.3,0.9-0.4,1.1-0.2c0.2,0.2,0.7,1.4,1.2,1.9c0.2,0.3,0.2,0.8,0.2,1.1c0,0.3-0.1,0.4,0.4,0.1c0.5-0.3,0.8-0.5,1.5-0.7
		c0.7-0.2,1.9-0.9,2.1-1c0.3-0.2,0.9-1,0.7-1.2c-0.2-0.2-0.4-0.8,0.2-0.6c0.7,0.2,1,0.3,1.4,0.4c0.4,0.1,0.2,0.2-0.1,0.7
		c-0.3,0.5-0.8,1-0.3,0.9c0.4-0.1,1.2-0.6,1.5-1.1c0.3-0.4,1.2-1.1,1.4-1.4c0.2-0.3,0.7-0.9,1.2-0.6c0.5,0.2,1.1,0.4,1.9,0.4
		c0.9,0,1.5-0.1,1.6-0.4c0.2-0.3,0.1-0.8,0.4-1c0.3-0.2,0.6-0.9,0.5-1.1c-0.1-0.3-0.6-0.9-0.5-1.3c0.7-2.2-0.1-2.6,0-2.6
		c2-0.3,2.3-1.6,4.2-0.1c0,0,0.5,0.1,0.2-0.5c-0.3-0.6-0.5-1.3-1.1-1.2c-0.6,0.1-0.4-0.1-1.4,0.1c-1,0.2-1.4,0-1.8-0.2
		c-0.4-0.2-1-1.1-0.8-1.3c0.1-0.2,0.2-0.6,0.7-0.2c0.5,0.4,1,0.9,1.6,0.9c0.6,0,1.5,0,2.1-0.2c0.5-0.2,0.7-0.2,1-0.4
		c0.3-0.2,0.9-0.4,1-1.1c0.1-0.6,0.3-2.2,0.3-2.2l0.3-1.3"/>
	<path class="st9" d="M328.5,287.5c0.3,0.1,0.2,0.2,0.6,0.4c0.4,0.2,0.6,0.2,1.1,0.1c0.4-0.1,0.9-0.1,1.3-0.4
		c0.4-0.3-0.1-0.6,0.7-0.2c0.7,0.3,1.3,0.7,1.9,0.4c0.6-0.3,0.8-0.6,1.4-0.6c0.6-0.1,1.2-0.7,1.6-1.3c0.4-0.6,1-0.6,1-1.5
		c0.1-0.9,0-1.1-0.2-1.6c-0.2-0.5-0.5-0.7-0.5-0.7s-0.2-0.2-0.4,0.1c-0.2,0.3-0.8-0.2-1-0.6c-0.2-0.3-1-1.5-1.3-1.6
		c-0.3-0.1-0.8-0.5-0.8-0.7c0-0.2-0.3-1-0.3-1s0.2-0.9,0.4-0.9c0.2,0,0.6,0.2,0.6,0.5c0,0.3,0.9,0.7,1,0.3c0.1-0.4,0.3-1,0-1.3
		c-0.3-0.3-1-0.7-1.7-0.8c-0.7-0.1-1.3-0.1-1.7-0.1c-0.4,0-0.6-0.4-0.5-0.7c0-0.3-0.3-1-0.3-1.3c0-0.3,0.4-1.3,0.5-1.7
		c0.1-0.4-0.1-2-0.1-2c0.3-0.9,2.7,1,2.4,1.5c-0.1,0.3-0.9,1.2-0.9,1.3c0.1,0.2,0.2,0.3,0.6,0c0.4-0.2,0.8-0.3,1.2-0.4
		c0.4-0.1,1.1-0.1,1.7,0.2c0.5,0.2,0.8,0.1,1,0.6c0.2,0.5,0.7,1.5,0.7,0.4c0.1-1.1,0.3-2,0.3-2s0-1-0.6-0.8
		c-0.5,0.2-1.1,0.4-1.3,0.5c-0.2,0-0.7,0-0.8-0.3c-0.1-0.3-0.7-0.2-0.7-0.2s-0.5-0.3-0.1-0.6c2.2-1.6,0.5-1.8,0.7-3.2
		c0-0.3,0.1-0.4,0.2-0.6c0.1-0.2,0.1-1.1,0.7-1c0.6,0.1,1.2,0.2,1.2,0.6c-0.1,0.4-0.1,0.4-0.5,0.9c-0.4,0.6-0.8,1-0.1,0.9
		c0.7-0.1,1.3,0.1,1.9,0.1c0.6,0,1.1-0.2,1.3-0.6c2.5-4.3,0.4-1.4,1.8-2.5c0.3-0.2,1-0.3,1.7-0.2c0.7,0.1,1.4,0.4,2,0.2
		c0.5-0.2,2-0.9,2-0.9s0.9-0.7,0.6-0.9c-0.4-0.1-0.6-0.4-0.6-0.4s-0.1-0.7,0.5-0.7c1.1-0.2,3.3-0.3,3.7-0.2c1,0.3,1.7,0.8,1.7,0.8
		s0,0.6,0.8,0.4c1.7-0.5,2.1-1.1,4.5-1.1c0.9,0,1.7-0.1,1.9-0.4c0.2-0.3,0.4-0.8,0.8-1.2c0.3-0.4,1.3-0.6,1.5-0.8
		c0.2-0.2,0.4-1.3,0.4-1.3s-0.5-0.5-1.2-1c-0.7-0.5-0.9-1.2-0.1-0.9c0.7,0.3,0.8,0.2,1,0.1c0.2-0.2,0.4,0.1,0.8,0.3
		c0.5,0.2,0.9,0.1,0.6,0.7c-0.2,0.6-0.3,0.7-0.1,0.9c0.3,0.2,0.9,0.2,0.9,0.2s0.6,0.7-0.2,0.6c-0.8-0.1-0.6,0.4-0.7,0.9
		c-0.1,0.5-0.5,1.2-0.5,1.2s0.1,0.3,1-0.4c0.9-0.7,1.9-1.3,1.9-1.3s0.4-0.6-0.1-0.6c-0.6,0.1-1-0.3-0.7-0.7c0.3-0.4,0.8-0.9,0.9-1.1
		c0.1-0.3,0.4-1,0.4-1c-0.1-0.6,1.7-0.8,2.6-1.5c0.3-0.2,0.5-0.7,0.8-0.4c0.5,0.8,0.6,2.8,0.9,2.9c0.2,0.1,0.9,0.5,1.5,0.4
		c0.6-0.1,1.6-0.2,1.8-0.4c0.2-0.1,0.4-0.9,0.3-1.4c0-0.5-0.1-2-0.1-2l-0.8-1.2c0,0,0-1.2,0.2-1.5c0.1-0.3,0.6-1,0.6-1
		s0.5-0.3,0.4,0.6c-0.3,1.8,0.5,4.5,2.1,5.2c0,0,0.8,0.3,1.2,0.3c0.3,0,0.9-0.1,1.1-0.4c0.2-0.3,1-1.2,1.1-1.4
		c0.2-0.2,1.3-1.2,1.3-1.2s0.9-0.8,1.3-0.9c0.4-0.1,0.7,0.2,0.8,0.8c0.1,0.6,0.1,1.2,0.4,1.3c0.2,0.1,0.6,0.2,0.9-0.1
		c0.4-0.2,1.4-1.2,1.5-1.3c0.1-0.1,0.2-0.7,0.1-1c-0.1-0.3-0.5-1.9-0.3-2.3c0.2-0.4,1.1-2,1.1-2l0.3-0.5c0,0,0.8-0.9,0.8,0.3
		c0,1.2-0.2,2,0.2,2.2c0.4,0.2,0.3,0.6,0.9,0.7c0.6,0.1,1.3,0.3,1.6,0.1c0.3-0.2,0.7-0.5,0.7-0.5s1.2-1.4,1.3-1.8
		c0.1-0.4,0.5-0.8,0.5-0.8s0.1-0.4,0.5-0.2c0.4,0.2,0.8,0.7,1.4,0.6c0.6-0.1,1.1-0.3,1.1-0.3s0.8-0.9,0.9-1.4c0,0-0.2-6.1-1-6.4
		c-0.9-0.4-0.8-5.9-0.9-6.4c-0.3-1.1-0.2-2.2-0.2-3.4c0-0.3,0-1.1,0.3-0.6c0.3,0.5,0.4,0.1,0.5,1.1c0.1,0.9,0.3,1.5,0.4,1.8
		c0.2,0.3,0.9,1.3,0.9,1.3l0.5,1c0.3,0.6,0.8,1.3,1.5,0.8c1.5-1,1.4,1.2,1.7,1.8"/>
	<path class="st8" d="M391.4,252c0,0,1-0.2,1,0.1c0,0.3,0,0.9-0.3,1.1c-0.3,0.2-1,0.5-1,0.1c0-0.3,0-0.7,0.1-0.9
		C391.3,252.1,391.4,252,391.4,252L391.4,252z"/>
	<path class="st8" d="M338.1,268.9l1.6,0.1c0,0,0.8,0,0.3,0.5c-0.4,0.5-0.7,1-0.7,1s-0.1,0.3-0.7-0.1c-0.7-0.5-1.2-0.9-1.2-0.9
		s-0.3-0.3,0-0.5C337.8,268.9,338.1,268.9,338.1,268.9L338.1,268.9z"/>
	<path class="st8" d="M392.3,254.3c0,0,0.2-1.1,0.5-0.9c0.3,0.2,0.4,0.3,0.4,0.8c0,0.5,0.2,0.8-0.2,0.8c-0.4-0.1-0.8-0.3-0.8-0.3
		L392.3,254.3L392.3,254.3z"/>
	<path class="st8" d="M396.7,249.8c0,0,1.1,0.2,1.5,0.2c0.4,0,0.7,0.3,0.4,0.7c-0.3,0.4-0.6,0.7-0.8,0.6c-0.2,0-0.4-0.1-0.7-0.3
		c-0.3-0.2-0.7-0.1-0.6-0.6C396.5,250,396.7,249.8,396.7,249.8L396.7,249.8z"/>
	<path class="st9" d="M382.5,258c0,0,0.6,0,0.8-0.4c0.3-0.4,0.5-0.7,1-0.5c0.5,0.2,0.9,0.4,0.5,0.7c-0.4,0.3-0.7,0.4-0.8,1.1
		c-0.1,0.7-0.2,1.2-0.2,1.6c0,0.4,0,0.9-0.3,0.8c-0.4-0.1-0.9-0.2-0.8-0.7c0.1-0.5,0.2-1.1,0.2-1.1s0.1-0.4-0.2-0.3
		c-0.4,0.1-1-0.1-0.8-0.5C382.1,258.3,382.5,258,382.5,258L382.5,258z"/>
	<path class="st9" d="M378.9,259.4c0,0-0.1-0.7,0.7-0.8c0.7-0.1,0.8-0.6,1-0.2c0.2,0.3,0.4,0.3,0.2,0.8c-0.2,0.5-0.2,0.9-0.2,0.9
		s0.2,0-0.3,0.4c-0.5,0.4-1.2,0.2-1.5,0.3c-0.3,0.1-0.8,0.2-0.4-0.4C378.8,259.8,378.9,259.4,378.9,259.4L378.9,259.4z"/>
	<path class="st8" d="M339.6,274.1c0,0,1-0.2,1.1,0.2c0.1,0.4-0.2,0.7-0.5,1c-0.3,0.2-0.8,0.5-1,0.1c-0.2-0.4-0.3-0.5,0-0.9
		C339.4,274.2,339.6,274.1,339.6,274.1L339.6,274.1z"/>
	<path class="st8" d="M370.4,633.9c0,0-2.1,0.5-0.8,1.3c1.3,0.8,1.9,0.9,0.9,1.7c-0.9,0.8-2.8,1.7-0.7,2.1c2.1,0.4,2.5,0,2.5,0"/>
	<path class="st8" d="M373.5,633.4c0,0,1.6,0,0.9,1.2c-0.7,1.2-1.3,2-0.1,2c1.2,0,1.6,0.1,0.9,0.9c-0.7,0.8-1.2,1.3-1.2,1.3"/>
	<path class="st8" d="M382.5,633.8c0,0-1.5,0.7-0.3,1.1c1.2,0.4,1.6,0.5,0.9,1.2c-0.7,0.7-0.4,1.5,0.4,0.9c0.8-0.5,1.3-0.5,1.3-0.5"
		/>
	<path class="st8" d="M384.7,632.3c0,0,1.7-0.4,1.2,0.7c-0.5,1.1-0.5,1.9,0.3,1.6c0.8-0.3,1.5-0.1,0.7,0.7c-0.8,0.8-0.9,0.9-0.9,0.9
		"/>
	<path class="st11" d="M355.5,355.7c0.1,0,0.2,0.1,0.3,0.1c0.1,0.1,0.1,0.2,0.1,0.3c0,0.1,0,0.2-0.1,0.3c-0.1,0.1-0.2,0.1-0.3,0.1
		c-0.1,0-0.2,0-0.3-0.1c-0.1-0.1-0.1-0.2-0.1-0.3c0-0.1,0-0.2,0.1-0.3C355.2,355.7,355.3,355.7,355.5,355.7L355.5,355.7L355.5,355.7
		z"/>
	<path class="st13" d="M355.5,355.7c0.1,0,0.2,0.1,0.3,0.1c0.1,0.1,0.1,0.2,0.1,0.3c0,0.1,0,0.2-0.1,0.3c-0.1,0.1-0.2,0.1-0.3,0.1
		c-0.1,0-0.2,0-0.3-0.1c-0.1-0.1-0.1-0.2-0.1-0.3c0-0.1,0-0.2,0.1-0.3C355.2,355.7,355.3,355.7,355.5,355.7L355.5,355.7L355.5,355.7
		z"/>
	<path class="st11" d="M371.1,361.5c0.1,0,0.2,0,0.3,0.1c0.1,0.1,0.1,0.2,0.1,0.3c0,0.1,0,0.2-0.1,0.3c-0.1,0.1-0.2,0.1-0.3,0.1
		c-0.1,0-0.2,0-0.3-0.1c-0.1-0.1-0.1-0.2-0.1-0.3c0-0.1,0-0.2,0.1-0.3C370.9,361.5,371,361.5,371.1,361.5L371.1,361.5z"/>
	<path class="st13" d="M371.1,361.5c0.1,0,0.2,0,0.3,0.1c0.1,0.1,0.1,0.2,0.1,0.3c0,0.1,0,0.2-0.1,0.3c-0.1,0.1-0.2,0.1-0.3,0.1
		c-0.1,0-0.2,0-0.3-0.1c-0.1-0.1-0.1-0.2-0.1-0.3c0-0.1,0-0.2,0.1-0.3C370.9,361.5,371,361.5,371.1,361.5L371.1,361.5z"/>
	<path class="st11" d="M376.7,377.5c0.1,0,0.2,0,0.3,0.1c0.1,0.1,0.1,0.2,0.1,0.3c0,0.1-0.1,0.2-0.1,0.3c-0.1,0.1-0.2,0.1-0.3,0.1
		c-0.1,0-0.2,0-0.3-0.1c-0.1-0.1-0.1-0.2-0.1-0.3c0-0.1,0-0.2,0.1-0.3C376.5,377.5,376.6,377.5,376.7,377.5L376.7,377.5z"/>
	<path class="st13" d="M376.7,377.5c0.1,0,0.2,0,0.3,0.1c0.1,0.1,0.1,0.2,0.1,0.3c0,0.1-0.1,0.2-0.1,0.3c-0.1,0.1-0.2,0.1-0.3,0.1
		c-0.1,0-0.2,0-0.3-0.1c-0.1-0.1-0.1-0.2-0.1-0.3c0-0.1,0-0.2,0.1-0.3C376.5,377.5,376.6,377.5,376.7,377.5L376.7,377.5z"/>
	<path class="st11" d="M482.8,394.5c0.1,0,0.2,0,0.3,0.1c0.1,0.1,0.1,0.2,0.1,0.3c0,0.1-0.1,0.2-0.1,0.3c-0.1,0.1-0.2,0.1-0.3,0.1
		c-0.1,0-0.2,0-0.3-0.1c-0.1-0.1-0.1-0.2-0.1-0.3c0-0.1,0-0.2,0.1-0.3C482.5,394.6,482.6,394.5,482.8,394.5L482.8,394.5z"/>
	<path class="st13" d="M482.8,394.5c0.1,0,0.2,0,0.3,0.1c0.1,0.1,0.1,0.2,0.1,0.3c0,0.1-0.1,0.2-0.1,0.3c-0.1,0.1-0.2,0.1-0.3,0.1
		c-0.1,0-0.2,0-0.3-0.1c-0.1-0.1-0.1-0.2-0.1-0.3c0-0.1,0-0.2,0.1-0.3C482.5,394.6,482.6,394.5,482.8,394.5L482.8,394.5z"/>
	<path class="st11" d="M359.7,534.7c0.1,0,0.2,0.1,0.3,0.1c0.1,0.1,0.1,0.2,0.1,0.3c0,0.1,0,0.2-0.1,0.3c-0.1,0.1-0.2,0.1-0.3,0.1
		c-0.1,0-0.2,0-0.3-0.1c-0.1-0.1-0.1-0.2-0.1-0.3c0-0.1,0-0.2,0.1-0.3C359.5,534.7,359.6,534.7,359.7,534.7L359.7,534.7L359.7,534.7
		z"/>
	<path class="st11" d="M371.1,529.4c0.1,0,0.2,0,0.3,0.1c0.1,0.1,0.1,0.2,0.1,0.3c0,0.1-0.1,0.2-0.1,0.3c-0.1,0.1-0.2,0.1-0.3,0.1
		c-0.1,0-0.2,0-0.3-0.1c-0.1-0.1-0.1-0.2-0.1-0.3c0-0.1,0-0.2,0.1-0.3C370.9,529.4,371,529.4,371.1,529.4L371.1,529.4z"/>
	<path class="st11" d="M394.9,544.2c0.1,0,0.2,0.1,0.3,0.1c0.1,0.1,0.1,0.2,0.1,0.3c0,0.1-0.1,0.2-0.1,0.3c-0.1,0.1-0.2,0.1-0.3,0.1
		c-0.1,0-0.2,0-0.3-0.1c-0.1-0.1-0.1-0.2-0.1-0.3c0-0.1,0-0.2,0.1-0.3C394.6,544.2,394.7,544.2,394.9,544.2L394.9,544.2L394.9,544.2
		z"/>
	<path class="st11" d="M453,502.8c0.1,0,0.2,0,0.3,0.1c0.1,0.1,0.1,0.2,0.1,0.3c0,0.1,0,0.2-0.1,0.3c-0.1,0.1-0.2,0.1-0.3,0.1
		c-0.1,0-0.2,0-0.3-0.1c-0.1-0.1-0.1-0.2-0.1-0.3c0-0.1,0-0.2,0.1-0.3C452.8,502.9,452.9,502.8,453,502.8L453,502.8z"/>
	<path class="st13" d="M453,502.8c0.1,0,0.2,0,0.3,0.1c0.1,0.1,0.1,0.2,0.1,0.3c0,0.1,0,0.2-0.1,0.3c-0.1,0.1-0.2,0.1-0.3,0.1
		c-0.1,0-0.2,0-0.3-0.1c-0.1-0.1-0.1-0.2-0.1-0.3c0-0.1,0-0.2,0.1-0.3C452.8,502.9,452.9,502.8,453,502.8L453,502.8z"/>
	<path class="st11" d="M377.9,530.6c0.1,0,0.2,0,0.3,0.1c0.1,0.1,0.1,0.2,0.1,0.3c0,0.1,0,0.2-0.1,0.3c-0.1,0.1-0.2,0.1-0.3,0.1
		c-0.1,0-0.2,0-0.3-0.1c-0.1-0.1-0.1-0.2-0.1-0.3c0-0.1,0-0.2,0.1-0.3C377.7,530.6,377.8,530.6,377.9,530.6L377.9,530.6z"/>
	<path class="st9" d="M404.6,246.8c0,0-0.4-0.8,0.2-1.2c0.6-0.3,0.7-0.8,1.1-0.7c0.4,0.1,0.8-0.3,1.2-0.8c0.4-0.4,1.1-0.9,1.3-0.6
		c0.1,0.3-1.2,0.9-0.8,1.8c0.4,0.9-0.2,1.1-0.4,0.9c-0.2-0.2-0.1-1-0.9-0.3c-0.8,0.7-0.8,0.2-1.1,0.5
		C404.9,246.7,404.6,246.8,404.6,246.8L404.6,246.8z"/>
	<path class="st9" d="M409.6,245.5c0,0-0.8-0.8,0.1-0.8c0.9,0.1,1.6-0.5,2,0c0.4,0.5,0.3,0.3,0.4,0.9c0.1,0.6-0.4,0.9-0.6,0.7
		c-0.2-0.2-0.1-0.8-0.9-0.8C409.8,245.5,409.6,245.5,409.6,245.5L409.6,245.5z"/>
	<path class="st8" d="M417.9,237.5c0.1-0.3,0.6,0.7,1,1.1c0.4,0.5-1.3,1-1.7,0.7c-0.4-0.3-0.6-0.2-0.6-1c0.1-0.8-0.6-1.1-0.6-0.9
		c0,0.2-0.2,0-0.8-0.5c-0.6-0.5-1-0.1-1.4,0c-0.3,0.1-0.6,0.1-1.9,0.7c-1.3,0.6-1,1.5-1,1.5l0.7-0.1c0,0,0.7,0.5,0.9,0.5
		c0.2,0,0.5,0.2,0.5,0.2l0.6,0.4"/>
	<path class="st9" d="M402.5,237.1c0.1,0.2,0.4,0.7,0.7,1c0.3,0.3,0.3,0.9,0.5,1c0.2,0.1,0.7,0.3,0.7,0.7c0,0.4-0.9,0.3-0.4,0.8
		c0.4,0.4,0.4,0.4,0.4,0.4l0.9-0.8c0,0,0.4-1.2,1.5-0.7c1.1,0.5,0.7,1.2,0.3,1c-0.4-0.2-1.5,1.4-1.7,1.6c-0.2,0.2-0.1,0.9-0.1,0.9
		s2.7-0.2,3-0.2c0.3,0,0.8-0.4,1.2,0.3c0.4,0.7,1,1.1,1.4,0.8c0.4-0.4,1.2-0.6,1.8,0.1c0.5,0.7,0.7,0.4,0.7,0.4l0-0.9
		c0,0-1.3-1-1.2-1.1c0.1-0.1,0.8-1.4,1.5-0.4c0.7,1,0.6,0.7,0.6,0.7s2.2-2.5-0.5-2.8"/>
	<path class="st8" d="M418.3,237.4c-0.3-0.2-0.1-0.4,0-0.5c0.1-0.1,0-0.1,0-0.3c0.1-0.3,0.3-0.9-0.5-0.5c-0.8,0.4-2,0.3-1.5-0.3
		c0.2-0.2,0.1-0.6,0.3-0.7c0.2-0.1,1.4-0.1,1.4-0.1l0.3-0.1"/>
	<polyline class="st14" points="460.4,216 300.3,215.7 213.7,281.7 214.5,673.3 566.8,673.1 566.7,216.2 460.4,216 	"/>
	<path class="st15" d="M564.1,218.8"/>
	<path class="st10" d="M457.2,548.8c0,0-2,2.5-2.3,2.9c-0.2,0.4-2.3,2.7-2.3,2.7"/>
	<line class="st10" x1="511.6" y1="374.7" x2="511.5" y2="382.4"/>
	<line class="st10" x1="511.7" y1="388.1" x2="511.8" y2="395.2"/>
	<path class="st10" d="M511.6,460.5c0,0-1,5-1.1,5.6c-0.2,0.6-0.9,3.1-0.9,3.1"/>
	<line class="st10" x1="508.1" y1="474.6" x2="505.2" y2="481.3"/>
	<path class="st10" d="M522.9,321.7c0,0,2.6-4.6,2.9-5.1c0.3-0.6,1.2-2.2,1.2-2.2"/>
	<path class="st10" d="M520.1,327.1c0,0-1.3,3.3-1.4,4c-0.1,0.7-0.8,3.4-0.8,3.4"/>
	<path class="st10" d="M287.2,566.9c0,0-0.5,5.4-0.4,6c0.1,0.6-0.1,3.2-0.1,3.2"/>
	<path class="st10" d="M287.5,582.4c0,0,0.4,2.4,0.6,3c0.2,0.6,0.8,1.8,0.8,2.4c0,0.6,1.2,3.7,1.2,3.7"/>
	<path class="st10" d="M332.9,459c0,0-0.2,3.6-0.2,4.1c-0.1,0.5-0.4,2.9-0.4,3.3c-0.1,0.3-0.2,2-0.2,2"/>
	<path class="st10" d="M331,473.7c0,0-1.1,2.5-1.3,3c-0.2,0.5-1.6,2.5-1.6,2.5l-1.3,2.2"/>
	<path class="st10" d="M314.5,376c0,0,3,5.6,3.4,6.1c0.4,0.5,1,2,1,2"/>
	<line class="st10" x1="320.9" y1="387.8" x2="324.3" y2="394.7"/>
	<path class="st16" d="M262.6,244.6l-0.1,5.1c0,0-0.1,1,0.4,1.5c0.5,0.5,0.7,0.8,0.7,0.8"/>
	<path class="st16" d="M272.7,256.2c0,0-0.5,0.1-1,0.1c-0.5,0-1.2-0.3-1.2-0.3s-0.4-0.8-0.1-1.9c0.2-1.1-0.4-1-0.4-1l-2-0.1
		l-0.4-0.1"/>
	<path class="st16" d="M276,258.8c0,0,0.3,1.2,0.8,0.7c0.5-0.4,1.2-0.6,1.8-0.1c0.5,0.4,1.8,1,1.8,1l2.4,0.1l2.3-0.1"/>
	<line class="st10" x1="34" y1="566.2" x2="30.7" y2="574.5"/>
	<line class="st10" x1="28.6" y1="579.1" x2="24.7" y2="588.3"/>
	<path class="st10" d="M23.5,592.5c0,0-1.3,6.2-1.5,7.1c-0.2,1-0.7,3.5-0.7,3.5"/>
	<line class="st10" x1="451.7" y1="553.5" x2="453.3" y2="555.2"/>
	<line class="st10" x1="449.1" y1="556.5" x2="450.6" y2="558.2"/>
	<line class="st10" x1="507.1" y1="473.9" x2="509.2" y2="475"/>
	<line class="st10" x1="504.4" y1="480.5" x2="506.4" y2="481.7"/>
	<line class="st10" x1="512.8" y1="460.8" x2="510.5" y2="460.4"/>
	<line class="st10" x1="512.7" y1="374.7" x2="510.4" y2="374.8"/>
	<line class="st10" x1="512.9" y1="388" x2="510.6" y2="388.1"/>
	<line class="st10" x1="513" y1="395.2" x2="510.7" y2="395.3"/>
	<line class="st10" x1="512.7" y1="382.3" x2="510.4" y2="382.3"/>
	<line class="st10" x1="510.6" y1="469.5" x2="508.5" y2="468.7"/>
	<line class="st10" x1="528.1" y1="314.7" x2="526.1" y2="313.6"/>
	<line class="st10" x1="523.9" y1="322.2" x2="521.8" y2="321.1"/>
	<line class="st10" x1="521.3" y1="327.5" x2="519.3" y2="326.4"/>
	<line class="st10" x1="518.8" y1="334.6" x2="516.6" y2="334.1"/>
	<line class="st10" x1="286" y1="566.6" x2="288.3" y2="567"/>
	<line class="st10" x1="285.5" y1="575.8" x2="287.8" y2="576"/>
	<line class="st10" x1="288.8" y1="591.9" x2="291" y2="591.2"/>
	<line class="st10" x1="286.2" y1="582.2" x2="288.5" y2="582.4"/>
	<line class="st10" x1="325.8" y1="480.9" x2="327.9" y2="481.8"/>
	<line class="st10" x1="331.7" y1="458.8" x2="334" y2="458.9"/>
	<line class="st10" x1="330.8" y1="468.3" x2="333.2" y2="468.4"/>
	<line class="st10" x1="330.2" y1="473.2" x2="332.3" y2="474.2"/>
	<line class="st10" x1="325.8" y1="480.9" x2="327.9" y2="481.8"/>
	<line class="st10" x1="313.5" y1="376.8" x2="315.2" y2="375.2"/>
	<line class="st10" x1="318.1" y1="384.6" x2="320" y2="383.2"/>
	<line class="st10" x1="319.9" y1="388.4" x2="321.8" y2="387.3"/>
	<line class="st10" x1="323.4" y1="395.4" x2="325.4" y2="394.3"/>
	<line class="st17" x1="264.4" y1="244.7" x2="262.1" y2="244.6"/>
	<line class="st17" x1="264.6" y1="251.2" x2="262.9" y2="252.8"/>
	<line class="st17" x1="273" y1="255.3" x2="272.5" y2="257.5"/>
	<line class="st17" x1="277" y1="258.2" x2="275" y2="259.3"/>
	<line class="st17" x1="285.6" y1="259.7" x2="284.2" y2="261.5"/>
	<line class="st10" x1="32.4" y1="565.4" x2="35.7" y2="566.9"/>
	<line class="st10" x1="27" y1="578.4" x2="30.3" y2="579.9"/>
	<line class="st10" x1="21.6" y1="592.3" x2="25.2" y2="593"/>
	<line class="st10" x1="19.6" y1="602.5" x2="23.2" y2="603.2"/>
	<line class="st10" x1="23" y1="587.8" x2="26.4" y2="589.3"/>
	<line class="st10" x1="28.9" y1="573.8" x2="32.3" y2="575.3"/>
	<path class="st10" d="M511.9,399.1c0.3,0,0.6-0.3,0.6-0.6c0-0.3-0.3-0.6-0.6-0.6c-0.3,0-0.6,0.3-0.6,0.6
		C511.3,398.8,511.6,399.1,511.9,399.1L511.9,399.1z"/>
	<path class="st10" d="M511.9,399.1c0.3,0,0.6-0.3,0.6-0.6c0-0.3-0.3-0.6-0.6-0.6c-0.3,0-0.6,0.3-0.6,0.6
		C511.3,398.8,511.6,399.1,511.9,399.1L511.9,399.1z"/>
	<path class="st10" d="M508.8,473c0.3,0,0.6-0.3,0.6-0.6c0-0.3-0.3-0.6-0.6-0.6c-0.3,0-0.6,0.3-0.6,0.6
		C508.2,472.7,508.4,473,508.8,473L508.8,473z"/>
	<path class="st10" d="M508.8,473c0.3,0,0.6-0.3,0.6-0.6c0-0.3-0.3-0.6-0.6-0.6c-0.3,0-0.6,0.3-0.6,0.6
		C508.2,472.7,508.4,473,508.8,473L508.8,473z"/>
	<path class="st10" d="M504.2,485.4c0.3,0,0.6-0.3,0.6-0.6c0-0.3-0.3-0.6-0.6-0.6c-0.3,0-0.6,0.3-0.6,0.6
		C503.6,485.1,503.9,485.4,504.2,485.4L504.2,485.4z"/>
	<path class="st10" d="M504.2,485.4c0.3,0,0.6-0.3,0.6-0.6c0-0.3-0.3-0.6-0.6-0.6c-0.3,0-0.6,0.3-0.6,0.6
		C503.6,485.1,503.9,485.4,504.2,485.4L504.2,485.4z"/>
	<path class="st10" d="M511.6,386c0.3,0,0.6-0.3,0.6-0.6c0-0.3-0.3-0.6-0.6-0.6c-0.3,0-0.6,0.3-0.6,0.6
		C511,385.7,511.2,386,511.6,386L511.6,386z"/>
	<path class="st10" d="M511.6,386c0.3,0,0.6-0.3,0.6-0.6c0-0.3-0.3-0.6-0.6-0.6c-0.3,0-0.6,0.3-0.6,0.6
		C511,385.7,511.2,386,511.6,386L511.6,386z"/>
	<path class="st10" d="M521.6,325.3c0.3,0,0.6-0.3,0.6-0.6c0-0.3-0.3-0.6-0.6-0.6c-0.3,0-0.6,0.3-0.6,0.6
		C521,325,521.2,325.3,521.6,325.3L521.6,325.3z"/>
	<path class="st10" d="M521.6,325.3c0.3,0,0.6-0.3,0.6-0.6c0-0.3-0.3-0.6-0.6-0.6c-0.3,0-0.6,0.3-0.6,0.6
		C521,325,521.2,325.3,521.6,325.3L521.6,325.3z"/>
	<path class="st10" d="M517.2,338.6c0.3,0,0.6-0.3,0.6-0.6c0-0.3-0.3-0.6-0.6-0.6c-0.3,0-0.6,0.3-0.6,0.6
		C516.5,338.3,516.8,338.6,517.2,338.6L517.2,338.6z"/>
	<path class="st10" d="M517.2,338.6c0.3,0,0.6-0.3,0.6-0.6c0-0.3-0.3-0.6-0.6-0.6c-0.3,0-0.6,0.3-0.6,0.6
		C516.5,338.3,516.8,338.6,517.2,338.6L517.2,338.6z"/>
	<path class="st10" d="M286.5,579.7c0.3,0,0.6-0.3,0.6-0.6c0-0.3-0.3-0.6-0.6-0.6c-0.3,0-0.6,0.3-0.6,0.6
		C285.9,579.4,286.2,579.7,286.5,579.7L286.5,579.7z"/>
	<path class="st10" d="M286.5,579.7c0.3,0,0.6-0.3,0.6-0.6c0-0.3-0.3-0.6-0.6-0.6c-0.3,0-0.6,0.3-0.6,0.6
		C285.9,579.4,286.2,579.7,286.5,579.7L286.5,579.7z"/>
	<path class="st10" d="M287.9,564.9c0.3,0,0.6-0.3,0.6-0.6c0-0.3-0.3-0.6-0.6-0.6c-0.3,0-0.6,0.3-0.6,0.6
		C287.3,564.6,287.6,564.9,287.9,564.9L287.9,564.9z"/>
	<path class="st10" d="M287.9,564.9c0.3,0,0.6-0.3,0.6-0.6c0-0.3-0.3-0.6-0.6-0.6c-0.3,0-0.6,0.3-0.6,0.6
		C287.3,564.6,287.6,564.9,287.9,564.9L287.9,564.9z"/>
	<path class="st10" d="M331.9,471.8c0.3,0,0.6-0.3,0.6-0.6c0-0.3-0.3-0.6-0.6-0.6c-0.3,0-0.6,0.3-0.6,0.6
		C331.2,471.5,331.5,471.8,331.9,471.8L331.9,471.8z"/>
	<path class="st10" d="M331.9,471.8c0.3,0,0.6-0.3,0.6-0.6c0-0.3-0.3-0.6-0.6-0.6c-0.3,0-0.6,0.3-0.6,0.6
		C331.2,471.5,331.5,471.8,331.9,471.8L331.9,471.8z"/>
	<path class="st10" d="M332.1,457.7c0.3,0,0.6-0.3,0.6-0.6c0-0.3-0.3-0.6-0.6-0.6c-0.3,0-0.6,0.3-0.6,0.6
		C331.4,457.4,331.7,457.7,332.1,457.7L332.1,457.7z"/>
	<path class="st10" d="M332.1,457.7c0.3,0,0.6-0.3,0.6-0.6c0-0.3-0.3-0.6-0.6-0.6c-0.3,0-0.6,0.3-0.6,0.6
		C331.4,457.4,331.7,457.7,332.1,457.7L332.1,457.7z"/>
	<path class="st10" d="M319.8,386.9c0.3,0,0.6-0.3,0.6-0.6c0-0.3-0.3-0.6-0.6-0.6c-0.3,0-0.6,0.3-0.6,0.6
		C319.2,386.7,319.5,386.9,319.8,386.9L319.8,386.9z"/>
	<path class="st10" d="M319.8,386.9c0.3,0,0.6-0.3,0.6-0.6c0-0.3-0.3-0.6-0.6-0.6c-0.3,0-0.6,0.3-0.6,0.6
		C319.2,386.7,319.5,386.9,319.8,386.9L319.8,386.9z"/>
	<path class="st10" d="M313.4,374.9c0.3,0,0.6-0.3,0.6-0.6c0-0.3-0.3-0.6-0.6-0.6c-0.3,0-0.6,0.3-0.6,0.6
		C312.7,374.6,313,374.9,313.4,374.9L313.4,374.9z"/>
	<path class="st10" d="M313.4,374.9c0.3,0,0.6-0.3,0.6-0.6c0-0.3-0.3-0.6-0.6-0.6c-0.3,0-0.6,0.3-0.6,0.6
		C312.7,374.6,313,374.9,313.4,374.9L313.4,374.9z"/>
	<path d="M286.4,263c0.3,0,0.6-0.3,0.6-0.6s-0.3-0.6-0.6-0.6c-0.3,0-0.6,0.3-0.6,0.6C285.8,262.7,286,263,286.4,263L286.4,263z"/>
	<path class="st18" d="M286.4,263c0.3,0,0.6-0.3,0.6-0.6s-0.3-0.6-0.6-0.6c-0.3,0-0.6,0.3-0.6,0.6C285.8,262.7,286,263,286.4,263
		L286.4,263z"/>
	<path d="M274.5,258.5c0.3,0,0.6-0.3,0.6-0.6c0-0.3-0.3-0.6-0.6-0.6c-0.3,0-0.6,0.3-0.6,0.6C273.9,258.2,274.2,258.5,274.5,258.5
		L274.5,258.5z"/>
	<path class="st18" d="M274.5,258.5c0.3,0,0.6-0.3,0.6-0.6c0-0.3-0.3-0.6-0.6-0.6c-0.3,0-0.6,0.3-0.6,0.6
		C273.9,258.2,274.2,258.5,274.5,258.5L274.5,258.5z"/>
	<path d="M265.7,253.4c0.3,0,0.6-0.3,0.6-0.6c0-0.3-0.3-0.6-0.6-0.6c-0.3,0-0.6,0.3-0.6,0.6C265,253.2,265.3,253.4,265.7,253.4
		L265.7,253.4z"/>
	<path class="st18" d="M265.7,253.4c0.3,0,0.6-0.3,0.6-0.6c0-0.3-0.3-0.6-0.6-0.6c-0.3,0-0.6,0.3-0.6,0.6
		C265,253.2,265.3,253.4,265.7,253.4L265.7,253.4z"/>
	<path class="st10" d="M21.5,605.1c0.3,0,0.6-0.3,0.6-0.6c0-0.3-0.3-0.6-0.6-0.6c-0.3,0-0.6,0.3-0.6,0.6
		C20.8,604.9,21.1,605.1,21.5,605.1L21.5,605.1z"/>
	<path class="st10" d="M21.5,605.1c0.3,0,0.6-0.3,0.6-0.6c0-0.3-0.3-0.6-0.6-0.6c-0.3,0-0.6,0.3-0.6,0.6
		C20.8,604.9,21.1,605.1,21.5,605.1L21.5,605.1z"/>
	<path class="st10" d="M29.5,577.9c0.3,0,0.6-0.3,0.6-0.6c0-0.3-0.3-0.6-0.6-0.6c-0.3,0-0.6,0.3-0.6,0.6
		C28.8,577.6,29.1,577.9,29.5,577.9L29.5,577.9z"/>
	<path class="st10" d="M29.5,577.9c0.3,0,0.6-0.3,0.6-0.6c0-0.3-0.3-0.6-0.6-0.6c-0.3,0-0.6,0.3-0.6,0.6
		C28.8,577.6,29.1,577.9,29.5,577.9L29.5,577.9z"/>
	<path class="st10" d="M29.5,577.9c0.3,0,0.6-0.3,0.6-0.6c0-0.3-0.3-0.6-0.6-0.6c-0.3,0-0.6,0.3-0.6,0.6
		C28.8,577.6,29.1,577.9,29.5,577.9L29.5,577.9z"/>
	<path class="st10" d="M29.5,577.9c0.3,0,0.6-0.3,0.6-0.6c0-0.3-0.3-0.6-0.6-0.6c-0.3,0-0.6,0.3-0.6,0.6
		C28.8,577.6,29.1,577.9,29.5,577.9L29.5,577.9z"/>
	<path class="st10" d="M24.3,591c0.3,0,0.6-0.3,0.6-0.6c0-0.3-0.3-0.6-0.6-0.6c-0.3,0-0.6,0.3-0.6,0.6C23.7,590.7,24,591,24.3,591
		L24.3,591z"/>
	<path class="st10" d="M24.3,591c0.3,0,0.6-0.3,0.6-0.6c0-0.3-0.3-0.6-0.6-0.6c-0.3,0-0.6,0.3-0.6,0.6C23.7,590.7,24,591,24.3,591
		L24.3,591z"/>
	<path d="M346.8,370.1c-0.2,0-0.3-0.1-0.5-0.2c-0.1-0.1-0.2-0.3-0.2-0.5c0-0.2,0.1-0.4,0.2-0.5c0.1-0.1,0.3-0.2,0.5-0.2
		c0.2,0,0.3,0.1,0.5,0.2c0.1,0.1,0.2,0.3,0.2,0.5c0,0.2-0.1,0.4-0.2,0.5C347.2,370.1,347,370.1,346.8,370.1L346.8,370.1z"/>
	<path class="st10" d="M509,389c-0.2,0-0.3-0.1-0.5-0.2c-0.1-0.1-0.2-0.3-0.2-0.5s0.1-0.4,0.2-0.5c0.1-0.1,0.3-0.2,0.5-0.2
		c0.2,0,0.3,0.1,0.5,0.2c0.1,0.1,0.2,0.3,0.2,0.5c0,0.2-0.1,0.4-0.2,0.5C509.3,388.9,509.2,389,509,389L509,389z"/>
	<path class="st9" d="M343.8,243.1c0,0,0.2-1.4,1.4-1.8c1.2-0.3,2.4-1,2.8-1.4c0.4-0.4,1.4-1.5,1.4-1.5l1.7-1.7"/>
	<polyline class="st9" points="354.5,232.2 354.7,225.5 355.3,222.6 356,221.3 	"/>
	<path class="st9" d="M328.6,255.7c0,0-0.7,0-1,0.1c-0.4,0-0.6,0.5-1,1.9c-0.4,1.3-0.4,1.2-1.3,2.1c-0.9,0.9-2.2,0.7-2.2,0.7
		l-2.9,0.7"/>
	<path class="st9" d="M335.2,255.1c0,0,0.3-1.1,0.3-1.7c0-0.6,0.1-2.1,0.8-3.1c0.6-1,2.5-1.1,2.5-1.1l1.7-1.8"/>
	<path class="st19" d="M359.2,217.7c0.3,0,0.5-0.2,0.5-0.5c0-0.3-0.2-0.5-0.5-0.5c-0.3,0-0.5,0.2-0.5,0.5
		C358.7,217.5,359,217.7,359.2,217.7L359.2,217.7z"/>
	<path class="st9" d="M359.2,217.7c0.3,0,0.5-0.2,0.5-0.5c0-0.3-0.2-0.5-0.5-0.5c-0.3,0-0.5,0.2-0.5,0.5
		C358.7,217.5,359,217.7,359.2,217.7L359.2,217.7z"/>
	<path class="st8" d="M357.5,219.5c0.3,0,0.5-0.2,0.5-0.5c0-0.3-0.2-0.5-0.5-0.5c-0.3,0-0.5,0.2-0.5,0.5
		C357,219.2,357.3,219.5,357.5,219.5L357.5,219.5z"/>
	<path class="st9" d="M357.5,219.5c0.3,0,0.5-0.2,0.5-0.5c0-0.3-0.2-0.5-0.5-0.5c-0.3,0-0.5,0.2-0.5,0.5
		C357,219.2,357.3,219.5,357.5,219.5L357.5,219.5z"/>
	<path class="st8" d="M352.7,236c0.3,0,0.5-0.2,0.5-0.5c0-0.3-0.2-0.5-0.5-0.5c-0.3,0-0.5,0.2-0.5,0.5
		C352.2,235.7,352.4,236,352.7,236L352.7,236z"/>
	<path class="st9" d="M352.1,236.5c0.3,0,0.5-0.2,0.5-0.5c0-0.3-0.2-0.5-0.5-0.5c-0.3,0-0.5,0.2-0.5,0.5
		C351.6,236.3,351.9,236.5,352.1,236.5L352.1,236.5z"/>
	<path class="st8" d="M343.3,244.5c0.3,0,0.5-0.2,0.5-0.5c0-0.3-0.2-0.5-0.5-0.5c-0.3,0-0.5,0.2-0.5,0.5
		C342.7,244.3,343,244.5,343.3,244.5L343.3,244.5z"/>
	<path class="st9" d="M343.1,244.6c0.3,0,0.5-0.2,0.5-0.5c0-0.3-0.2-0.5-0.5-0.5c-0.3,0-0.5,0.2-0.5,0.5
		C342.7,244.4,342.9,244.6,343.1,244.6L343.1,244.6z"/>
	<path class="st8" d="M341.5,246.6c0.3,0,0.5-0.2,0.5-0.5c0-0.3-0.2-0.5-0.5-0.5c-0.3,0-0.5,0.2-0.5,0.5
		C341,246.3,341.3,246.6,341.5,246.6L341.5,246.6z"/>
	<path class="st9" d="M341.5,246.6c0.3,0,0.5-0.2,0.5-0.5c0-0.3-0.2-0.5-0.5-0.5c-0.3,0-0.5,0.2-0.5,0.5
		C341,246.3,341.3,246.6,341.5,246.6L341.5,246.6z"/>
	<path class="st8" d="M330.5,257c0.3,0,0.5-0.2,0.5-0.5c0-0.3-0.2-0.5-0.5-0.5c-0.3,0-0.5,0.2-0.5,0.5
		C330,256.8,330.2,257,330.5,257L330.5,257z"/>
	<path class="st8" d="M330.5,257c0.3,0,0.5-0.2,0.5-0.5c0-0.3-0.2-0.5-0.5-0.5c-0.3,0-0.5,0.2-0.5,0.5
		C330,256.8,330.2,257,330.5,257L330.5,257z"/>
	<path class="st8" d="M333.2,255.9c0.3,0,0.5-0.2,0.5-0.5c0-0.3-0.2-0.5-0.5-0.5c-0.3,0-0.5,0.2-0.5,0.5
		C332.7,255.6,332.9,255.8,333.2,255.9L333.2,255.9z"/>
	<path class="st8" d="M333.2,255.9c0.3,0,0.5-0.2,0.5-0.5c0-0.3-0.2-0.5-0.5-0.5c-0.3,0-0.5,0.2-0.5,0.5
		C332.7,255.6,332.9,255.8,333.2,255.9L333.2,255.9z"/>
	<path class="st19" d="M354.3,233.9c0.3,0,0.5-0.2,0.5-0.5c0-0.3-0.2-0.5-0.5-0.5c-0.3,0-0.5,0.2-0.5,0.5
		C353.8,233.7,354,233.9,354.3,233.9L354.3,233.9z"/>
	<path class="st9" d="M353.7,234.5c0.3,0,0.5-0.2,0.5-0.5c0-0.3-0.2-0.5-0.5-0.5c-0.3,0-0.5,0.2-0.5,0.5
		C353.2,234.3,353.4,234.5,353.7,234.5L353.7,234.5z"/>
	<text transform="matrix(1 0 0 1 496.5 651)" class="st20 st21 st22"></text>
</g>
</svg>
