<?xml version="1.0" encoding="utf-8"?>
<!-- Generator: Adobe Illustrator 19.0.0, SVG Export Plug-In . SVG Version: 6.00 Build 0)  -->
<svg xmlns="http://www.w3.org/2000/svg" xmlns:xlink="http://www.w3.org/1999/xlink" version="1.1" id="图层_1" x="0px" y="0px" viewBox="0 0 60 60" style="enable-background:new 0 0 60 60;" xml:space="preserve">
<style type="text/css">
	.st0{fill:#182127;}
	.st1{clip-path:url(#XMLID_7_);}
	.st2{clip-path:url(#XMLID_8_);fill:#475865;}
</style>
<g id="XMLID_2_">
	<circle id="XMLID_5_" class="st0" cx="30" cy="30" r="29"/>
	<g id="XMLID_3_">
		<g id="XMLID_6_">
			<defs>
				<circle id="XMLID_16_" cx="30" cy="30" r="29"/>
			</defs>
			<clipPath id="XMLID_7_">
				<use xlink:href="#XMLID_16_" style="overflow:visible;"/>
			</clipPath>
			<g id="XMLID_9_" class="st1">
				<g id="XMLID_11_">
					<defs>
						<path id="XMLID_13_" d="M55.6,47.4c0.2,0.6,0.3,1.3,0.4,2.2c0.1,0.9,0.1,0.2,0.1,1.1c0,0.9-0.1,1.8-0.2,2.6        c-0.1,0.8-0.3,1.4-0.6,1.8c-0.2,0.3-0.7,0.6-1.6,0.9c-0.9,0.3-10.3,3-23.5,3C18.1,59,7.7,57,6,56.7s-2.6-0.7-3-1        s-0.7-1.3-0.9-2.8c-0.2-1.6-0.1-2,0.3-4.4c0.2-1.4,0.8-2.5,1.7-3.2s2-1.3,3.3-1.7s7-2.4,8.4-2.8s2.5-0.8,3.5-1.5        c0.8-0.5,1.4-1,1.9-1.4c0.4-0.5,0.8-0.9,0.9-1.4c0.2-0.5,0.3-0.9,0.3-1.4s0-1-0.1-1.6c-0.1-0.9-0.4-1.6-0.9-2.1        s-1.1-1-1.8-1.6c-0.3-0.3-0.6-0.6-0.8-1.1c-0.2-0.5-0.4-1-0.6-1.5c-0.2-0.6-0.4-1.2-0.6-1.8c-0.3-0.1-0.5-0.2-0.8-0.4        c-0.2-0.2-0.5-0.5-0.8-0.8s-0.5-0.8-0.7-1.5c-0.2-0.6-0.3-1.2-0.2-1.8c0.1-0.5,0.2-1,0.3-1.4s0.4-0.8,0.7-1.2        c0-1.5,0-2.9,0.2-4.4c0.1-1.2,0.4-2.5,0.8-3.9s1-2.6,1.8-3.7c0.7-1,1.5-1.9,2.4-2.6c1-0.7,1.9-1.3,2.8-1.7s1.8-0.6,2.8-0.8        C27.8,1.1,28.7,1,29.6,1c1.1,0,2.2,0.1,3.2,0.4c1,0.3,2,0.6,2.9,1s1.7,0.9,2.4,1.4s1.3,1,1.7,1.6c1,1.2,1.7,2.6,2.2,4.1        s0.8,2.9,1,4.2c0.2,1.5,0.3,3.1,0.3,4.6c0.3,0.1,0.5,0.4,0.6,0.7c0.1,0.3,0.3,0.6,0.4,1s0.1,0.9,0,1.6        c-0.1,0.8-0.3,1.4-0.5,1.9c-0.3,0.5-0.5,0.9-0.8,1.1c-0.3,0.3-0.7,0.5-1.1,0.6c-0.1,0.6-0.3,1.2-0.5,1.8        c-0.2,0.5-0.4,1-0.7,1.5s-0.5,0.9-0.8,1.1c-0.3,0.3-0.7,0.6-1,0.8c-0.3,0.2-0.6,0.4-0.8,0.7c-0.2,0.2-0.4,0.5-0.6,0.8        c-0.2,0.3-0.3,0.7-0.3,1.2c-0.1,0.6-0.1,1.2-0.1,1.8s0.2,1.2,0.5,1.8s0.7,1.2,1.3,1.7s1.4,1,2.5,1.4c1,0.4,2,0.7,3.1,1        s5.7,2.3,6.8,2.7c1,0.4,2,0.9,2.8,1.5C54.7,45.6,55.3,46.4,55.6,47.4L55.6,47.4z M30,55.3c0.2,0,0.5-0.1,0.9-0.4        c0.4-0.3,0.8-0.5,1.2-0.9c0.4-0.3,0.7-0.7,1-1s0.4-0.6,0.4-0.8s-0.1-0.6-0.2-1.2c-0.1-0.6-0.3-1.2-0.4-1.9        c-0.1-0.7-0.3-1.4-0.5-2.1c-0.1-0.7-0.3-1.2-0.4-1.6c0.4-0.3,0.7-0.6,1-1c0.3-0.4,0.4-0.7,0.4-1.1c0-0.3-0.1-0.6-0.3-0.9        c-0.2-0.3-0.5-0.6-0.7-0.8c-0.3-0.3-0.6-0.5-1-0.8h-2.9c-0.4,0.3-0.7,0.5-1,0.8c-0.2,0.2-0.4,0.5-0.6,0.8s-0.3,0.6-0.3,0.9        c0,0.2,0.1,0.5,0.4,0.9s0.6,0.8,1.1,1.1c-0.1,0.3-0.3,0.8-0.5,1.5c-0.2,0.6-0.4,1.3-0.5,2.1c-0.2,0.7-0.3,1.4-0.5,2        c-0.1,0.6-0.2,1.1-0.2,1.4c0,0.2,0.1,0.5,0.4,0.8s0.6,0.7,1,1s0.8,0.6,1.2,0.9C29.5,55.1,29.8,55.3,30,55.3L30,55.3z"/>
					</defs>
					<clipPath id="XMLID_8_">
						<use xlink:href="#XMLID_13_" style="overflow:visible;"/>
					</clipPath>
					<circle id="XMLID_4_" class="st2" cx="29.9" cy="28.3" r="32.2"/>
				</g>
			</g>
		</g>
	</g>
</g>
</svg>
