<?xml version="1.0" encoding="utf-8"?>
<!-- Generator: Adobe Illustrator 19.0.0, SVG Export Plug-In . SVG Version: 6.00 Build 0)  -->
<svg version="1.1" id="图层_1" xmlns="http://www.w3.org/2000/svg" xmlns:xlink="http://www.w3.org/1999/xlink" x="0px" y="0px"
	 viewBox="82 -94 181 207" style="enable-background:new 82 -94 181 207;" xml:space="preserve">
<style type="text/css">
	.st0{opacity:0.3;fill:#D9D9D9;fill-opacity:0;stroke:#33D0FF;stroke-linejoin:round;enable-background:new    ;}
	.st1{opacity:0.3;fill:#33D0FF;fill-opacity:0;stroke:#33D0FF;stroke-linejoin:round;enable-background:new    ;}
	.st2{opacity:0.81;fill:#33D0FF;enable-background:new    ;}
	.st3{opacity:0.81;fill:#23A6CD;enable-background:new    ;}
	.st4{fill:#33D0FF;}
	.st5{fill:#34EB7F;fill-opacity:0;stroke:#33D0FF;stroke-linejoin:round;}
	.st6{fill:#00C3FF;}
</style>
<g>
	<g>
		<path class="st0" d="M172.6-90.4l-86,148.9l172.1-0.8L172.6-90.4z"/>
		<path class="st1" d="M259-39.7L87.1-39.8l86.7,148.7L259-39.7z"/>
		<path class="st2" d="M173.2,56.7V8.8l40.1-23.4v46.7L173.2,56.7z"/>
		<path class="st3" d="M173.3,56.5l-41-24.6l0.6-46.3l40,24.1L173.3,56.5z"/>
		<path class="st4" d="M132.1-14.7l41.4-23.9l40.3,24.1L173.4,9.4L132.1-14.7z"/>
	</g>
	<path class="st5" d="M173.1,108l-86-48.9v-100l86-49.6L258.4-40v98.5L173.1,108z"/>
	<path class="st4" d="M172.6-90.2h0.8v198.6h-0.8V-90.2z"/>
	<path class="st4" d="M86.4-40.5l0.4-0.7L259,58.1l-0.4,0.7L86.4-40.5z"/>
	<path class="st6" d="M258.2-40.4l0.4,0.7L86.4,59.6l-0.4-0.7L258.2-40.4z"/>
	<path class="st0" d="M172.6-90.4l-86,148.9l172.1-0.8L172.6-90.4z"/>
	<path class="st1" d="M259-39.2L87.1-39.3l86.7,148.7L259-39.2z"/>
</g>
</svg>
