<?xml version="1.0" encoding="utf-8"?>
<!-- Generator: Adobe Illustrator 19.0.0, SVG Export Plug-In . SVG Version: 6.00 Build 0)  -->
<svg version="1.1" id="图层_1" xmlns="http://www.w3.org/2000/svg" xmlns:xlink="http://www.w3.org/1999/xlink" x="0px" y="0px"
	 viewBox="79 -91 181 207" style="enable-background:new 79 -91 181 207;" xml:space="preserve">
<style type="text/css">
	.st0{opacity:0.3;fill:#D9D9D9;fill-opacity:0;stroke:#33D0FF;stroke-linejoin:round;enable-background:new    ;}
	.st1{opacity:0.3;fill:#33D0FF;fill-opacity:0;stroke:#33D0FF;stroke-linejoin:round;enable-background:new    ;}
	.st2{opacity:0.81;fill:#33D0FF;enable-background:new    ;}
	.st3{opacity:0.81;fill:#23A6CD;enable-background:new    ;}
	.st4{fill:#33D0FF;}
	.st5{fill:#34EB7F;fill-opacity:0;stroke:#33D0FF;stroke-linejoin:round;}
	.st6{fill:#00C3FF;}
</style>
<g>
	<g>
		<path class="st0" d="M169.6-90.9L83.6,58l172.1-0.8L169.6-90.9z"/>
		<path class="st1" d="M256-40.2L84.1-40.3l86.7,148.7L256-40.2z"/>
		<path class="st2" d="M170.1,27.7V8.4L186.3-1v18.8L170.1,27.7z"/>
		<path class="st3" d="M170.1,27.7l-16.5-9.9l0.2-18.7l16.1,9.7L170.1,27.7z"/>
		<path class="st4" d="M153.5-1.1l16.7-9.6L186.4-1l-16.3,9.6L153.5-1.1z"/>
	</g>
	<path class="st5" d="M170.1,107.5l-86-48.9v-100l86-49.6l85.3,50.5V58L170.1,107.5z"/>
	<path class="st4" d="M169.6-90.7h0.8v198.6h-0.8V-90.7z"/>
	<path class="st4" d="M83.4-41l0.4-0.7L256,57.6l-0.4,0.7L83.4-41z"/>
	<path class="st6" d="M255.2-40.9l0.4,0.7L83.4,59.1L83,58.4L255.2-40.9z"/>
	<path class="st0" d="M169.6-90.9L83.6,58l172.1-0.8L169.6-90.9z"/>
	<path class="st1" d="M256-39.7L84.1-39.8l86.7,148.7L256-39.7z"/>
</g>
</svg>
