<svg xmlns="http://www.w3.org/2000/svg" xmlns:xlink="http://www.w3.org/1999/xlink" preserveAspectRatio="xMidYMid" width="199.781" height="223.594" viewBox="0 0 199.781 223.594">
  <defs>
    <style>
      .cls-1 {
        fill: #8fe0f3;
      }

      .cls-1, .cls-2, .cls-3, .cls-4 {
        fill-rule: evenodd;
      }

      .cls-2 {
        fill: #404a51;
      }

      .cls-3 {
        fill: #a1edff;
      }

      .cls-4 {
        fill: #99e8fb;
      }
    </style>
  </defs>
  <g>
    <path d="M96.795,109.836 L95.971,146.517 L128.309,131.886 L129.132,94.587 L96.795,109.836 Z" class="cls-1"/>
    <path d="M131.192,93.969 L130.368,130.649 L163.942,115.812 L164.354,78.719 L131.192,93.969 Z" class="cls-2"/>
    <path d="M199.575,62.852 L166.002,77.689 L165.796,115.400 L198.751,100.975 L199.575,62.852 Z" class="cls-3"/>
    <path d="M95.353,148.784 L94.735,185.877 L128.103,170.833 L128.926,133.534 L95.353,148.784 Z" class="cls-1"/>
    <path d="M130.574,132.916 L129.544,171.040 L163.324,156.202 L163.942,118.079 L130.574,132.916 Z" class="cls-3"/>
    <path d="M198.545,103.242 L165.796,117.873 L165.178,155.584 L197.722,141.365 L198.545,103.242 Z" class="cls-3"/>
    <path d="M94.323,188.350 L93.293,223.588 L127.073,210.399 L127.691,173.718 L94.323,188.350 Z" class="cls-1"/>
    <path d="M128.926,174.131 L128.926,206.896 L162.500,191.647 L162.912,159.087 L128.926,174.131 Z" class="cls-3"/>
    <path d="M197.310,144.044 L164.972,158.263 L164.354,191.029 L196.280,176.191 L197.310,144.044 Z" class="cls-2"/>
    <path d="M94.529,188.350 L64.457,166.712 L62.809,202.981 L93.293,223.588 L94.529,188.350 Z" class="cls-1"/>
    <path d="M62.191,166.300 L60.543,201.538 L29.853,180.313 L31.501,145.281 L62.191,166.300 Z" class="cls-2"/>
    <path d="M29.647,143.838 L1.017,124.467 L-0.013,159.912 L28.412,179.489 L29.647,143.838 Z" class="cls-3"/>
    <path d="M63.839,127.352 L33.149,106.539 L31.707,143.632 L62.397,163.827 L63.839,127.352 Z" class="cls-3"/>
    <path d="M96.795,109.630 L95.971,146.517 L66.311,126.528 L66.929,89.847 L96.795,109.630 Z" class="cls-3"/>
    <path d="M65.281,87.993 L64.251,125.086 L33.561,105.097 L35.003,68.004 L65.281,87.993 Z" class="cls-3"/>
    <path d="M32.531,66.355 L2.459,46.460 L1.635,83.665 L31.295,103.036 L32.531,66.355 Z" class="cls-3"/>
    <path d="M95.559,148.784 L66.105,128.795 L64.869,165.476 L94.941,185.877 L95.559,148.784 Z" class="cls-3"/>
    <path d="M30.883,105.303 L1.841,85.726 L1.017,122.613 L29.441,141.571 L30.883,105.303 Z" class="cls-2"/>
    <path d="M2.665,46.460 L35.415,31.323 L65.487,51.724 L32.737,66.355 L2.665,46.460 Z" class="cls-3"/>
    <path d="M70.842,15.455 L37.062,30.499 L67.134,50.488 L100.296,35.650 L70.842,15.455 Z" class="cls-3"/>
    <path d="M105.034,0.000 L72.284,14.631 L102.562,34.826 L135.518,19.989 L105.034,0.000 Z" class="cls-3"/>
    <path d="M35.003,68.097 L67.752,52.960 L97.825,73.362 L65.075,87.993 L35.003,68.097 Z" class="cls-3"/>
    <path d="M103.180,37.093 L69.400,52.136 L99.472,72.125 L132.634,57.288 L103.180,37.093 Z" class="cls-2"/>
    <path d="M137.371,21.638 L104.622,36.269 L134.900,56.464 L167.855,41.626 L137.371,21.638 Z" class="cls-2"/>
    <path d="M66.723,89.941 L99.472,74.804 L129.544,95.205 L96.795,109.836 L66.723,89.941 Z" class="cls-4"/>
    <path d="M134.900,58.937 L101.120,73.980 L131.192,93.969 L164.354,79.132 L134.900,58.937 Z" class="cls-2"/>
    <path d="M136.547,58.112 L170.121,42.863 L199.987,62.646 L166.208,77.895 L136.547,58.112 Z" class="cls-3"/>
  </g>
</svg>
