<svg xmlns="http://www.w3.org/2000/svg" xmlns:xlink="http://www.w3.org/1999/xlink" preserveAspectRatio="xMidYMid" width="24" height="13" viewBox="0 0 24 13">
  <defs>
    <style>
      .cls-1 {
        fill: #4a5b6a;
      }

      .cls-1, .cls-2 {
        fill-rule: evenodd;
      }

      .cls-2 {
        fill: #fff;
      }
    </style>
  </defs>
  <g>
    <path d="M6.500,-0.000 L17.500,-0.000 C21.090,-0.000 24.000,2.910 24.000,6.500 C24.000,10.090 21.090,13.000 17.500,13.000 L6.500,13.000 C2.910,13.000 -0.000,10.090 -0.000,6.500 C-0.000,2.910 2.910,-0.000 6.500,-0.000 Z" class="cls-1"/>
    <path d="M17.013,8.125 C16.246,8.125 15.625,7.579 15.625,6.906 C15.625,6.233 16.246,5.688 17.013,5.688 C17.779,5.688 18.400,6.233 18.400,6.906 C18.400,7.579 17.779,8.125 17.013,8.125 ZM12.400,8.125 C11.641,8.125 11.025,7.579 11.025,6.906 C11.025,6.233 11.641,5.688 12.400,5.688 C13.159,5.688 13.775,6.233 13.775,6.906 C13.775,7.579 13.159,8.125 12.400,8.125 ZM7.787,8.125 C7.021,8.125 6.400,7.579 6.400,6.906 C6.400,6.233 7.021,5.688 7.787,5.688 C8.554,5.688 9.175,6.233 9.175,6.906 C9.175,7.579 8.554,8.125 7.787,8.125 Z" class="cls-2"/>
  </g>
</svg>
