<?xml version="1.0" encoding="utf-8"?>
<!-- Generator: Adobe Illustrator 19.0.0, SVG Export Plug-In . SVG Version: 6.00 Build 0)  -->
<svg version="1.1" id="图层_1" xmlns="http://www.w3.org/2000/svg" xmlns:xlink="http://www.w3.org/1999/xlink" x="0px" y="0px"
	 viewBox="13 -13 50 50" style="enable-background:new 13 -13 50 50;" xml:space="preserve">
<style type="text/css">
	.st0{fill:#FFFFFF;}
</style>
<path class="st0" d="M15.4-13c-1.3,0-2.4,1.1-2.4,2.4v6h2.4v-4.8c0-0.7,0.5-1.2,1.2-1.2h4.8V-13H15.4z M60.6-13h-6v2.4h4.8
	c0.7,0,1.2,0.5,1.2,1.2v4.8H63v-6C63-11.9,61.9-13,60.6-13z M16.6,34.6c-0.7,0-1.2-0.5-1.2-1.2v-4.8H13v6c0,1.3,1.1,2.4,2.4,2.4h6
	v-2.4H16.6z M60.6,28.6v4.8c0,0.7-0.5,1.2-1.2,1.2h-4.8V37h6c1.3,0,2.4-1.1,2.4-2.4v-6H60.6z"/>
<path class="st0" d="M38,6c3.3,0,6,2.7,6,6s-2.7,6-6,6s-6-2.7-6-6S34.7,6,38,6 M38,3.6c-4.7,0-8.4,3.8-8.4,8.4
	c0,4.7,3.8,8.4,8.4,8.4s8.4-3.8,8.4-8.4C46.4,7.3,42.7,3.6,38,3.6z"/>
<path class="st0" d="M38-3.2c2.1,0,4.1,0.4,5.9,1.2c1.8,0.8,3.4,1.9,4.8,3.3s2.5,3,3.3,4.8C52.8,8,53.2,10,53.2,12
	c0,2.1-0.4,4.1-1.2,5.9c-0.8,1.8-1.9,3.4-3.3,4.8c-1.4,1.4-3,2.5-4.8,3.3C42,26.8,40,27.2,38,27.2c-2.1,0-4.1-0.4-5.9-1.2
	s-3.4-1.9-4.8-3.3c-1.4-1.4-2.5-3-3.3-4.8C23.2,16,22.8,14,22.8,12s0.4-4.1,1.2-5.9s1.9-3.4,3.3-4.8c1.4-1.4,3-2.5,4.8-3.3
	C33.9-2.8,35.9-3.2,38-3.2 M38-5.7c-9.7,0-17.7,8-17.7,17.7S28.2,29.7,38,29.7c9.7,0,17.7-7.9,17.7-17.7C55.7,2.3,47.7-5.7,38-5.7z"
	/>
<path id="XMLID_16_" class="st0" d="M36.8,28.5h2.4v7.3h-2.4V28.5z"/>
<path id="XMLID_15_" class="st0" d="M36.8,35.8c0,0.7,0.5,1.2,1.2,1.2s1.2-0.5,1.2-1.2s-0.5-1.2-1.2-1.2S36.8,35.1,36.8,35.8z"/>
<path id="XMLID_14_" class="st0" d="M54.5,10.8h7.3v2.4h-7.3V10.8z"/>
<path id="XMLID_13_" class="st0" d="M60.6,12c0,0.7,0.5,1.2,1.2,1.2S63,12.7,63,12s-0.5-1.2-1.2-1.2S60.6,11.3,60.6,12z"/>
<path id="XMLID_12_" class="st0" d="M36.8-11.8h2.4v7.3h-2.4V-11.8z"/>
<path id="XMLID_11_" class="st0" d="M36.8-11.8c0,0.7,0.5,1.2,1.2,1.2s1.2-0.5,1.2-1.2S38.7-13,38-13S36.8-12.5,36.8-11.8z"/>
<path id="XMLID_10_" class="st0" d="M14.2,10.8h7.3v2.4h-7.3V10.8z"/>
<path id="XMLID_9_" class="st0" d="M13,12c0,0.7,0.5,1.2,1.2,1.2s1.2-0.5,1.2-1.2s-0.5-1.2-1.2-1.2S13,11.3,13,12z"/>
<path id="XMLID_8_" class="st0" d="M13-4.6c0,0.7,0.5,1.2,1.2,1.2s1.2-0.5,1.2-1.2s-0.5-1.2-1.2-1.2S13-5.2,13-4.6z"/>
<path id="XMLID_7_" class="st0" d="M20.2-11.8c0,0.7,0.5,1.2,1.2,1.2s1.2-0.5,1.2-1.2S22.1-13,21.4-13S20.2-12.5,20.2-11.8z"/>
<path id="XMLID_6_" class="st0" d="M20.2,35.8c0,0.7,0.5,1.2,1.2,1.2s1.2-0.5,1.2-1.2s-0.5-1.2-1.2-1.2S20.2,35.1,20.2,35.8z"/>
<path id="XMLID_5_" class="st0" d="M53.4,35.8c0,0.7,0.5,1.2,1.2,1.2s1.2-0.5,1.2-1.2s-0.5-1.2-1.2-1.2S53.4,35.1,53.4,35.8z"/>
<path id="XMLID_4_" class="st0" d="M53.4-11.8c0,0.7,0.5,1.2,1.2,1.2s1.2-0.5,1.2-1.2S55.2-13,54.6-13C53.9-13,53.4-12.5,53.4-11.8z
	"/>
<path id="XMLID_3_" class="st0" d="M13,28.6c0,0.7,0.5,1.2,1.2,1.2s1.2-0.5,1.2-1.2s-0.5-1.2-1.2-1.2S13,27.9,13,28.6z"/>
<path id="XMLID_2_" class="st0" d="M60.6-4.6c0,0.7,0.5,1.2,1.2,1.2S63-3.9,63-4.6s-0.5-1.2-1.2-1.2S60.6-5.2,60.6-4.6z"/>
<path id="XMLID_1_" class="st0" d="M60.6,28.6c0,0.7,0.5,1.2,1.2,1.2s1.2-0.5,1.2-1.2s-0.5-1.2-1.2-1.2S60.6,27.9,60.6,28.6z"/>
</svg>
