<?xml version="1.0" encoding="utf-8"?>
<!-- Generator: Adobe Illustrator 19.0.0, SVG Export Plug-In . SVG Version: 6.00 Build 0)  -->
<svg version="1.1" id="图层_1" xmlns="http://www.w3.org/2000/svg" xmlns:xlink="http://www.w3.org/1999/xlink" x="0px" y="0px"
	 viewBox="13 -13 50 50" style="enable-background:new 13 -13 50 50;" xml:space="preserve">
<style type="text/css">
	.st0{fill:#FFFFFF;}
</style>
<path id="XMLID_4_" class="st0" d="M28,7.6c1.6,4.7,5,10.3,10.3,10c5.3-0.3,8.4-5.6,10-10.3c2.5-0.6,2.5-4.4,0.6-5.9
	c1.6-17.2-24.4-16.2-22.2,0.3C24.8,2.9,25.5,6.7,28,7.6z M46.4,19.5c-2.2,3.4-3.4,7.5-5.6,10.6c-0.3-2.2-0.6-4.7-0.9-6.9
	c0.3-0.3,1.9-0.9,0.6-1.2h-5.3c1.2,0.9,0.3,5.6-0.3,8.1c-1.6-3.4-3.1-7.5-5.3-10.6c-9.4,1.3-16.3,5-16.6,15.6h50
	C63,24.5,55.8,20.8,46.4,19.5L46.4,19.5z"/>
</svg>
