<?xml version="1.0" encoding="utf-8"?>
<!-- Generator: Adobe Illustrator 19.0.0, SVG Export Plug-In . SVG Version: 6.00 Build 0)  -->
<svg version="1.1" id="图层_1" xmlns="http://www.w3.org/2000/svg" xmlns:xlink="http://www.w3.org/1999/xlink" x="0px" y="0px"
	 viewBox="13 -13 50 50" style="enable-background:new 13 -13 50 50;" xml:space="preserve">
<style type="text/css">
	.st0{fill:#FFFFFF;}
</style>
<g id="XMLID_3_">
	<path id="XMLID_6_" class="st0" d="M41.4,35l0.8-4.8l-3.5-3.4c-1.2-1.2-1.6-2.7-1.2-4.2c0.5-1.5,1.7-2.5,3.4-2.7l4.2-0.6
		c-0.2-0.1-0.3-0.2-0.5-0.4c-0.5-0.5-0.9-0.9-1.1-1.4c-0.2-0.5-0.4-1-0.4-1.5s0-1,0.1-1.5c0.1-0.4,0.2-0.7,0.3-1s0.3-0.5,0.5-0.7
		c0.2-0.2,0.4-0.4,0.7-0.6c0.3-0.2,0.5-0.4,0.8-0.7c0.3-0.2,0.5-0.5,0.7-1c0.2-0.4,0.4-0.8,0.6-1.2c0.2-0.5,0.3-1,0.4-1.5
		c0.3-0.1,0.6-0.3,0.9-0.5c0.3-0.2,0.5-0.5,0.7-1c0.2-0.4,0.4-0.9,0.5-1.6c0.1-0.5,0.1-1,0-1.3C49.2,3,49.1,2.8,49,2.5
		c-0.1-0.3-0.3-0.5-0.5-0.6c0-1.3,0-2.6-0.2-3.9c-0.2-1.1-0.4-2.3-0.8-3.5c-0.4-1.2-1-2.4-1.8-3.4c-0.4-0.5-0.8-0.9-1.4-1.3
		c-0.6-0.4-1.2-0.8-2-1.2c-0.8-0.4-1.6-0.6-2.4-0.9c-1-0.1-1.9-0.2-2.9-0.2c-0.8,0-1.5,0.1-2.3,0.2c-0.8,0.1-1.6,0.4-2.4,0.7
		c-0.8,0.3-1.6,0.8-2.3,1.3c-0.7,0.6-1.4,1.3-2,2.2c-0.6,0.9-1.1,2-1.5,3.2c-0.3,1.2-0.6,2.3-0.7,3.3c-0.2,1.2-0.2,2.5-0.2,3.7
		c-0.3,0.3-0.5,0.7-0.6,1c-0.1,0.3-0.2,0.7-0.3,1.1c-0.1,0.4,0,0.9,0.2,1.5s0.4,1,0.6,1.3s0.4,0.5,0.6,0.7C26.3,7.9,26.6,8,26.8,8
		c0.2,0.5,0.3,1,0.5,1.5c0.2,0.4,0.3,0.8,0.5,1.2c0.2,0.4,0.4,0.7,0.7,1c0.6,0.5,1,0.9,1.5,1.3c0.4,0.4,0.7,1,0.8,1.8
		c0,0.5,0,1,0,1.4s-0.1,0.8-0.2,1.2c-0.1,0.4-0.4,0.8-0.8,1.2c-0.4,0.4-0.9,0.8-1.6,1.2c-0.8,0.6-1.8,1-2.9,1.3s-6,2-7.1,2.3
		c-1,0.4-2,0.8-2.8,1.5c-0.8,0.6-1.3,1.5-1.5,2.7c-0.3,2.1-0.4,2.4-0.2,3.7c0.2,1.3,0.4,2.1,0.8,2.4c0.3,0.2,1.1,0.5,2.5,0.8
		s10.2,2,20.4,2c1.3,0,2.6,0,3.9-0.1C41.3,36,41.3,35.5,41.4,35z"/>
	<path id="XMLID_5_" class="st0" d="M61.6,23.3l-5.1-0.7c-0.8-0.1-1.7-0.8-2.1-1.5l-2.3-4.6c-0.2-0.4-0.4-0.5-0.6-0.5
		s-0.5,0.2-0.6,0.5l-2.3,4.6c-0.4,0.7-1.3,1.4-2.1,1.5l-5.1,0.7c-0.8,0.1-1,0.7-0.4,1.2l3.7,3.6c0.6,0.6,0.9,1.6,0.8,2.4l-0.9,5.1
		c-0.1,0.6,0.1,0.9,0.5,0.9c0.2,0,0.3,0,0.5-0.2l4.6-2.4c0.4-0.2,0.8-0.3,1.3-0.3s0.9,0.1,1.3,0.3l4.6,2.4c0.2,0.1,0.4,0.2,0.5,0.2
		c0.4,0,0.6-0.3,0.5-0.9l-0.9-5.1c-0.1-0.8,0.2-1.9,0.8-2.4l3.7-3.6C62.6,24,62.4,23.4,61.6,23.3z"/>
</g>
</svg>
