<?xml version="1.0" encoding="utf-8"?>
<!-- Generator: Adobe Illustrator 19.0.0, SVG Export Plug-In . SVG Version: 6.00 Build 0)  -->
<svg version="1.1" id="图层_1" xmlns="http://www.w3.org/2000/svg" xmlns:xlink="http://www.w3.org/1999/xlink" x="0px" y="0px"
	 viewBox="0 0 24 24" style="enable-background:new 0 0 24 24;" xml:space="preserve">
<style type="text/css">
	.st0{fill:#FFFFFF;}
</style>
<path id="XMLID_11_" class="st0" d="M21.5,12V8.6c0-1.1-0.9-2-2-2h-2h-2c-1.1,0-2,0.9-2,2l0,0.3c-0.1-0.1-0.3-0.2-0.4-0.3L9.5,6.7
	c-1-0.5-2.2-0.1-2.7,0.9l-1.5,3C3.4,11,1.7,12.2,0.8,14c-1.6,3.2-0.3,7,2.8,8.6c2.4,1.2,5.2,0.8,7.1-0.9c-0.5-0.7-0.9-1.4-1.2-2.2
	c-1.2,1.4-3.2,1.8-4.9,1c-2-1-2.8-3.4-1.8-5.4c1-2,3.4-2.8,5.4-1.8c0.4,0.2,0.8,0.5,1.1,0.8c0.6-2.2,2.1-4,4.1-5.2v3
	c-1.5,1.2-2.4,3-2.4,5c0,3.5,2.9,6.4,6.4,6.4s6.4-2.9,6.4-6.4C23.9,15,23,13.2,21.5,12z M11.2,10.3c-0.3,0.6-1,0.8-1.6,0.5
	c-0.6-0.3-0.8-1-0.5-1.6c0.3-0.6,1-0.8,1.6-0.5C11.3,9,11.5,9.7,11.2,10.3z M17.5,7.8c0.7,0,1.2,0.5,1.2,1.2c0,0.7-0.5,1.2-1.2,1.2
	S16.3,9.7,16.3,9C16.3,8.3,16.8,7.8,17.5,7.8z M17.5,21c-2.2,0-4-1.8-4-4s1.8-4,4-4s4,1.8,4,4S19.7,21,17.5,21z M11.1,7
	c1.1,0,2-0.9,2-2s-0.9-2-2-2s-2,0.9-2,2S10,7,11.1,7z M11.1,4.2c0.4,0,0.8,0.4,0.8,0.8s-0.4,0.8-0.8,0.8S10.3,5.4,10.3,5
	S10.6,4.2,11.1,4.2z M19.5,4.6c0-1.1-0.9-2-2-2c-0.5,0-0.9,0.2-1.3,0.5c0-0.1,0.1-0.3,0.1-0.5c0-1.1-0.9-2-2-2s-2,0.9-2,2s0.9,2,2,2
	c0.5,0,0.9-0.2,1.3-0.5c0,0.1-0.1,0.3-0.1,0.5c0,1.1,0.9,2,2,2C18.6,6.6,19.5,5.7,19.5,4.6z M14.3,3.4c-0.4,0-0.8-0.4-0.8-0.8
	s0.4-0.8,0.8-0.8c0.4,0,0.8,0.4,0.8,0.8S14.7,3.4,14.3,3.4z M17.5,5.4c-0.4,0-0.8-0.4-0.8-0.8s0.4-0.8,0.8-0.8s0.8,0.4,0.8,0.8
	S17.9,5.4,17.5,5.4z"/>
</svg>
