<?xml version="1.0" encoding="utf-8"?>
<!-- Generator: Adobe Illustrator 19.0.0, SVG Export Plug-In . SVG Version: 6.00 Build 0)  -->
<svg version="1.1" id="图层_1" xmlns="http://www.w3.org/2000/svg" xmlns:xlink="http://www.w3.org/1999/xlink" x="0px" y="0px"
	 viewBox="0 0 24 24" style="enable-background:new 0 0 24 24;" xml:space="preserve">
<style type="text/css">
	.st0{fill:#FFFFFF;}
</style>
<path id="XMLID_1_" class="st0" d="M9.2,15.9c0,0-3.3,0-4.1-1.5c0,0,0.8-1.5,0.8-4.7C5.8,6.6,6.1,2.8,8.5,1.4s3.3-1.2,3.9-1.2
	c0.7,0,1.6,0.2,1.9,0.7c0,0,1.2-0.2,2,0.3c0.8,0.6,2.2,1.4,2.2,8.6c0,0,0,3.7,0.8,4.7c0,0-0.4,1.5-4.3,1.5c0,0-0.3,0.9,0.7,1.7
	c1,0.7,4.6,2,5.4,2.6c0.8,0.7,2,1.3,2,3.7H1c0,0-0.1-2.3,2.2-3.7c0.6-0.4,4.4-1.8,5.4-2.6C9.4,16.7,9.2,15.9,9.2,15.9z"/>
</svg>
