<svg xmlns="http://www.w3.org/2000/svg" xmlns:xlink="http://www.w3.org/1999/xlink" preserveAspectRatio="xMidYMid" width="341" height="201" viewBox="0 0 341 201">
  <defs>
    <style>
      .cls-1 {
        stroke: #25a5ee;
        stroke-width: 1px;
        fill: none;
      }

      .cls-1, .cls-2, .cls-3 {
        fill-rule: evenodd;
      }

      .cls-2 {
        fill: #33d0ff;
      }

      .cls-3 {
        fill: #01ddff;
      }
    </style>
  </defs>
  <g>
    <path d="M1.500,10.500 L12.500,0.500 L327.500,0.500 L338.500,9.500 L340.500,55.500 L332.500,65.500 L332.500,137.500 L338.500,148.500 L338.500,191.500 L328.500,200.500 L9.500,200.500 L0.500,193.500 L1.500,146.500 L10.500,137.500 L10.500,69.500 L1.500,57.500 L1.500,10.500 Z" class="cls-1"/>
    <path d="M14.084,3.957 L14.084,12.539 L4.064,12.539 L14.084,3.957 Z" class="cls-2"/>
    <path d="M324.391,4.957 L324.391,13.539 L333.695,13.539 L324.391,4.957 Z" class="cls-2"/>
    <path d="M324.166,195.196 L324.166,186.614 L334.186,186.614 L324.166,195.196 Z" class="cls-2"/>
    <path d="M14.443,194.196 L14.443,185.614 L5.139,185.614 L14.443,194.196 Z" class="cls-3"/>
    <path d="M332.273,34.659 L328.695,38.950 L328.695,55.399 L332.273,49.615 L332.273,34.659 Z" class="cls-2"/>
    <path d="M6.336,168.292 L9.914,164.001 L9.914,151.128 L6.336,155.419 L6.336,168.292 Z" class="cls-2"/>
  </g>
</svg>
