<svg xmlns="http://www.w3.org/2000/svg" xmlns:xlink="http://www.w3.org/1999/xlink" preserveAspectRatio="xMidYMid" width="411" height="162" viewBox="0 0 411 162">
  <defs>
    <style>
      .cls-1 {
        stroke: #25a5ee;
        stroke-width: 1px;
        fill: none;
      }

      .cls-1, .cls-2, .cls-3 {
        fill-rule: evenodd;
      }

      .cls-2 {
        fill: #33d0ff;
      }

      .cls-3 {
        fill: #01ddff;
      }
    </style>
  </defs>
  <g>
    <path d="M1.500,10.500 L12.500,0.500 L397.500,0.500 L408.500,9.500 L410.500,48.500 L402.500,58.500 L402.500,88.500 L408.500,99.500 L408.500,152.500 L398.500,161.500 L9.500,161.500 L0.500,154.500 L1.500,97.500 L10.500,88.500 L10.500,62.500 L1.500,50.500 L1.500,10.500 Z" class="cls-1"/>
    <path d="M15.084,3.957 L15.084,12.539 L5.064,12.539 L15.084,3.957 Z" class="cls-2"/>
    <path d="M395.391,3.957 L395.391,12.539 L404.695,12.539 L395.391,3.957 Z" class="cls-2"/>
    <path d="M395.166,157.196 L395.166,148.614 L405.186,148.614 L395.166,157.196 Z" class="cls-3"/>
    <path d="M15.443,156.196 L15.443,147.614 L6.139,147.614 L15.443,156.196 Z" class="cls-3"/>
    <path d="M404.273,30.659 L400.695,34.950 L400.695,51.399 L404.273,45.615 L404.273,30.659 Z" class="cls-2"/>
    <path d="M5.336,130.292 L8.914,126.001 L8.914,113.128 L5.336,117.419 L5.336,130.292 Z" class="cls-2"/>
  </g>
</svg>
