<svg xmlns="http://www.w3.org/2000/svg" xmlns:xlink="http://www.w3.org/1999/xlink" preserveAspectRatio="xMidYMid" width="335" height="201" viewBox="0 0 335 201">
  <defs>
    <style>
      .cls-1 {
        stroke: url(#linear-gradient-1);
        stroke-width: 1px;
        fill: none;
      }

      .cls-2 {
        fill: #98e7ff;
        fill-rule: evenodd;
      }
    </style>

    <linearGradient id="linear-gradient-1" gradientUnits="userSpaceOnUse" x1="167.5" y1="200.5" x2="167.5" y2="0.5">
      <stop offset="0" stop-color="#228bc7"/>
      <stop offset="0.48" stop-color="#228bc7" stop-opacity="0.039"/>
      <stop offset="1" stop-color="#228bc7"/>
    </linearGradient>
  </defs>
  <g>
    <rect x="0.5" y="0.5" width="334" height="200" class="cls-1"/>
    <path d="M333.219,200.000 L324.000,200.000 L324.000,199.156 L333.219,199.156 L333.219,190.000 L334.000,190.000 L334.000,200.000 L333.219,200.000 ZM333.219,0.844 L324.000,0.844 L324.000,-0.000 L333.219,-0.000 L334.000,-0.000 L334.000,10.000 L333.219,10.000 L333.219,0.844 ZM0.000,200.000 L0.000,190.000 L0.781,190.000 L0.781,199.156 L10.000,199.156 L10.000,200.000 L0.781,200.000 L0.000,200.000 ZM0.769,10.000 L0.000,10.000 L0.000,-0.000 L0.769,-0.000 L10.000,-0.000 L10.000,0.833 L0.769,0.833 L0.769,10.000 Z" class="cls-2"/>
  </g>
</svg>
