<svg xmlns="http://www.w3.org/2000/svg" xmlns:xlink="http://www.w3.org/1999/xlink" preserveAspectRatio="xMidYMid" width="409" height="116" viewBox="0 0 409 116">
  <defs>
    <style>
      .cls-1 {
        stroke: #25a5ee;
        stroke-width: 1px;
        fill: none;
      }

      .cls-1, .cls-2 {
        fill-rule: evenodd;
      }

      .cls-2 {
        fill: #33d0ff;
      }
    </style>
  </defs>
  <g>
    <path d="M1.495,10.500 L12.441,0.500 L395.563,0.500 L406.510,9.500 L408.500,36.500 L400.539,46.500 L400.539,76.500 L406.510,87.500 L406.510,106.500 L396.559,115.500 L9.456,115.500 L0.500,108.500 L1.495,85.500 L10.451,76.500 L10.451,50.500 L1.495,38.500 L1.495,10.500 Z" class="cls-1"/>
    <path d="M11.994,4.992 L11.994,11.005 L6.001,11.005 L11.994,4.992 Z" class="cls-2"/>
    <path d="M396.990,5.992 L396.990,12.005 L403.005,12.005 L396.990,5.992 Z" class="cls-2"/>
    <path d="M396.006,110.005 L396.006,104.993 L401.999,104.993 L396.006,110.005 Z" class="cls-2"/>
    <path d="M11.003,110.006 L11.003,103.992 L5.009,103.992 L11.003,110.006 Z" class="cls-2"/>
    <path d="M403.996,22.002 L402.004,24.690 L402.004,34.995 L403.996,31.372 L403.996,22.002 Z" class="cls-2"/>
    <path d="M6.996,98.007 L9.005,95.255 L9.005,87.002 L6.996,89.753 L6.996,98.007 Z" class="cls-2"/>
  </g>
</svg>
