<svg xmlns="http://www.w3.org/2000/svg" xmlns:xlink="http://www.w3.org/1999/xlink" preserveAspectRatio="xMidYMid" width="400" height="298" viewBox="0 0 400 298">
  <defs>
    <style>
      .cls-1 {
        stroke: url(#linear-gradient-1);
        stroke-width: 1px;
        fill: none;
      }

      .cls-2 {
        fill: #98e7ff;
        fill-rule: evenodd;
      }
    </style>

    <linearGradient id="linear-gradient-1" gradientUnits="userSpaceOnUse" x1="200" y1="297.5" x2="200" y2="0.5">
      <stop offset="0" stop-color="#228bc7"/>
      <stop offset="0.49" stop-color="#228bc7" stop-opacity="0.039"/>
      <stop offset="1" stop-color="#228bc7"/>
    </linearGradient>
  </defs>
  <g>
    <rect x="0.5" y="0.5" width="399" height="297" class="cls-1"/>
    <path d="M0.769,0.833 L0.769,10.000 L0.000,10.000 L0.000,-0.000 L0.769,-0.000 L10.000,-0.000 L10.000,0.833 L0.769,0.833 Z" class="cls-2"/>
    <path d="M0.781,297.000 L0.000,297.000 L0.000,287.000 L0.781,287.000 L0.781,296.156 L10.000,296.156 L10.000,297.000 L0.781,297.000 Z" class="cls-2"/>
    <path d="M398.219,10.000 L398.219,0.844 L389.000,0.844 L389.000,-0.000 L398.219,-0.000 L399.000,-0.000 L399.000,10.000 L398.219,10.000 Z" class="cls-2"/>
    <path d="M398.219,297.000 L389.000,297.000 L389.000,296.156 L398.219,296.156 L398.219,287.000 L399.000,287.000 L399.000,297.000 L398.219,297.000 Z" class="cls-2"/>
  </g>
</svg>
