<svg xmlns="http://www.w3.org/2000/svg" xmlns:xlink="http://www.w3.org/1999/xlink" preserveAspectRatio="xMidYMid" width="178" height="43" viewBox="0 0 178 43">
  <defs>
    <style>
      .cls-1 {
        fill: #228bc7;
        stroke: #228bc7;
        fill-opacity: 0.12;
      }

      .cls-1, .cls-2 {
        stroke-width: 1px;
        fill-rule: evenodd;
      }

      .cls-2 {
        stroke: #98e7ff;
        fill: none;
      }
    </style>
  </defs>
  <g>
    <path d="M3.500,0.500 L172.500,0.500 L177.500,6.500 L177.500,32.500 L169.500,42.500 L94.500,42.500 L92.500,38.500 L4.500,38.500 L1.500,35.500 L1.500,28.500 L4.500,26.500 L4.500,16.500 L0.500,13.500 L0.500,4.500 L3.500,0.500 Z" class="cls-1"/>
    <path d="M164.577,0.500 C169.570,0.500 172.500,0.500 172.500,0.500 L177.500,6.500 L177.500,32.500 L169.500,42.500 C169.500,42.500 167.688,42.500 164.837,42.500 " class="cls-2"/>
    <path d="M17.367,38.500 C9.610,38.500 4.500,38.500 4.500,38.500 L1.500,35.500 L1.500,28.500 L4.500,26.500 L4.500,16.500 L0.500,13.500 L0.500,4.500 L3.500,0.500 C3.500,0.500 8.922,0.500 17.585,0.500 " class="cls-2"/>
  </g>
</svg>
